
<svg xmlns="http://www.w3.org/2000/svg" viewBox="0 0 1080 1350" width="1080" height="1350">
  <rect width="1080" height="1350" fill="#FAF9F6"/>
  
  <!-- Background circle with opacity -->
  <circle opacity="0.12" cx="750.5" cy="1000.5" r="186.692" 
    fill="none"
    stroke="#000000" 
    stroke-width="85.6166"/>
  
  <!-- Progress arc -->
  <path d="M750.5 813.808 A186.692 186.692 0 0 1 936.8236059837309 988.7775123280334" 
    fill="none"
    stroke="#FF7F50" 
    stroke-width="85.6166" 
    stroke-linecap="round" 
    stroke-linejoin="round"/>
  
  <path d="M111.18 220L174.69 220L174.69 205.47L135.09 205.47L135.09 204.74L153.38 188.03C168.45 174.17 173.48 167.26 173.48 156.67L173.48 156.55C173.48 141.65 160.76 131.12 142.30 131.12C123.83 131.12 110.15 142.68 110.15 159.15L110.15 159.63L127.10 159.63L127.16 159.09C127.40 151.22 133.46 145.35 142.42 145.35C150.17 145.35 155.62 150.43 155.68 157.58L155.68 157.70C155.68 163.75 153.32 168.05 142.05 178.59L111.18 207.47ZM220.46 221.51C242.62 221.51 256.06 204.14 256.06 176.35L256.06 176.22C256.06 148.43 242.62 131.12 220.46 131.12C198.30 131.12 184.86 148.43 184.86 176.22L184.86 176.35C184.86 204.14 198.30 221.51 220.46 221.51ZM220.46 206.86C209.56 206.86 203.33 195.54 203.33 176.35L203.33 176.22C203.33 157.03 209.56 145.77 220.46 145.77C231.36 145.77 237.60 157.03 237.60 176.22L237.60 176.35C237.60 195.54 231.36 206.86 220.46 206.86ZM267.27 220L330.78 220L330.78 205.47L291.18 205.47L291.18 204.74L309.47 188.03C324.54 174.17 329.57 167.26 329.57 156.67L329.57 156.55C329.57 141.65 316.85 131.12 298.39 131.12C279.92 131.12 266.24 142.68 266.24 159.15L266.24 159.63L283.19 159.63L283.25 159.09C283.49 151.22 289.55 145.35 298.51 145.35C306.26 145.35 311.71 150.43 311.77 157.58L311.77 157.70C311.77 163.75 309.41 168.05 298.14 178.59L267.27 207.47ZM377.28 221.51C396.71 221.51 410.94 208.80 410.94 190.94L410.94 190.82C410.94 174.47 399.38 162.48 382.49 162.48C370.68 162.48 362.08 168.41 358.63 176.53L358.27 176.53C358.27 175.62 358.33 174.41 358.39 173.20C359.05 157.76 364.63 145.59 377.40 145.59C384.54 145.59 389.39 149.16 391.57 154.43L391.75 154.97L409.79 154.97L409.67 154.37C407.07 140.87 394.35 131.12 377.46 131.12C354.70 131.12 340.83 148.31 340.83 176.95L340.83 177.07C340.83 206.68 356.21 221.51 377.28 221.51ZM361.05 191.36L361.05 191.24C361.05 182.34 368.08 175.98 377.22 175.98C386.30 175.98 393.14 182.40 393.14 191.48L393.14 191.60C393.14 200.20 385.94 206.98 377.04 206.98C368.08 206.98 361.05 200.14 361.05 191.36Z" fill="#000000"/>
    <path d="M111.18 360L174.69 360L174.69 345.47L135.09 345.47L135.09 344.74L153.38 328.03C168.45 314.17 173.48 307.26 173.48 296.67L173.48 296.55C173.48 281.65 160.76 271.12 142.30 271.12C123.83 271.12 110.15 282.68 110.15 299.15L110.15 299.63L127.10 299.63L127.16 299.09C127.40 291.22 133.46 285.35 142.42 285.35C150.17 285.35 155.62 290.43 155.68 297.58L155.68 297.70C155.68 303.75 153.32 308.05 142.05 318.59L111.18 347.47ZM227.61 360L244.98 360L244.98 343.96L256.49 343.96L256.49 329.36L244.98 329.36L244.98 272.63L219.19 272.63L184.13 328.70L184.13 343.96L227.61 343.96ZM200.06 329.85L200.06 329.36L227.55 285.83L227.97 285.83L227.97 329.85ZM285.43 317.62C297.96 317.62 305.65 308.84 305.65 294.73L305.65 294.67C305.65 280.62 297.96 271.84 285.43 271.84C272.84 271.84 265.15 280.62 265.15 294.67L265.15 294.73C265.15 308.84 272.84 317.62 285.43 317.62ZM294.45 360L349.61 272.63L336.17 272.63L280.95 360ZM285.43 307.57C280.53 307.57 277.80 303.03 277.80 294.73L277.80 294.67C277.80 286.44 280.53 281.89 285.43 281.89C290.27 281.89 292.94 286.44 292.94 294.67L292.94 294.73C292.94 303.03 290.27 307.57 285.43 307.57ZM345.19 360.79C357.72 360.79 365.41 352.01 365.41 337.90L365.41 337.84C365.41 323.79 357.72 315.01 345.19 315.01C332.60 315.01 324.91 323.79 324.91 337.84L324.91 337.90C324.91 352.01 332.60 360.79 345.19 360.79ZM345.19 350.74C340.29 350.74 337.56 346.20 337.56 337.90L337.56 337.84C337.56 329.61 340.29 325.06 345.19 325.06C350.03 325.06 352.70 329.61 352.70 337.84L352.70 337.90C352.70 346.20 350.03 350.74 345.19 350.74Z" fill="#000000" opacity="0.5"/>
</svg>
