
<svg xmlns="http://www.w3.org/2000/svg" viewBox="0 0 1080 1350" width="1080" height="1350">
  <rect width="1080" height="1350" fill="#F8A3FF"/>
  
  <!-- Background circle with opacity -->
  <circle opacity="0.12" cx="750.5" cy="1000.5" r="186.692" 
    fill="none"
    stroke="#000000" 
    stroke-width="85.6166"/>
  
  <!-- Progress arc -->
  <path d="M750.5 813.808 A186.692 186.692 0 0 1 932.2593925351961 1043.1312806426986" 
    fill="none"
    stroke="#27803F" 
    stroke-width="85.6166" 
    stroke-linecap="round" 
    stroke-linejoin="round"/>
  
  <path d="M111.18 220L174.69 220L174.69 205.47L135.09 205.47L135.09 204.74L153.38 188.03C168.45 174.17 173.48 167.26 173.48 156.67L173.48 156.55C173.48 141.65 160.76 131.12 142.30 131.12C123.83 131.12 110.15 142.68 110.15 159.15L110.15 159.63L127.10 159.63L127.16 159.09C127.40 151.22 133.46 145.35 142.42 145.35C150.17 145.35 155.62 150.43 155.68 157.58L155.68 157.70C155.68 163.75 153.32 168.05 142.05 178.59L111.18 207.47ZM220.46 221.51C242.62 221.51 256.06 204.14 256.06 176.35L256.06 176.22C256.06 148.43 242.62 131.12 220.46 131.12C198.30 131.12 184.86 148.43 184.86 176.22L184.86 176.35C184.86 204.14 198.30 221.51 220.46 221.51ZM220.46 206.86C209.56 206.86 203.33 195.54 203.33 176.35L203.33 176.22C203.33 157.03 209.56 145.77 220.46 145.77C231.36 145.77 237.60 157.03 237.60 176.22L237.60 176.35C237.60 195.54 231.36 206.86 220.46 206.86ZM267.27 220L330.78 220L330.78 205.47L291.18 205.47L291.18 204.74L309.47 188.03C324.54 174.17 329.57 167.26 329.57 156.67L329.57 156.55C329.57 141.65 316.85 131.12 298.39 131.12C279.92 131.12 266.24 142.68 266.24 159.15L266.24 159.63L283.19 159.63L283.25 159.09C283.49 151.22 289.55 145.35 298.51 145.35C306.26 145.35 311.71 150.43 311.77 157.58L311.77 157.70C311.77 163.75 309.41 168.05 298.14 178.59L267.27 207.47ZM375.58 221.51C395.56 221.51 409.37 209.10 409.37 190.82L409.37 190.70C409.37 174.23 397.38 162.30 380.79 162.30C371.95 162.30 364.75 165.87 361.11 171.74L360.75 171.74L362.87 147.16L404.10 147.16L404.10 132.63L348.34 132.63L344.34 183.91L360.27 183.91C361.29 182.10 362.69 180.40 364.44 179.07C367.41 176.71 371.22 175.38 375.71 175.38C385.15 175.38 391.87 181.86 391.93 191.06L391.93 191.18C391.93 200.50 385.21 207.04 375.64 207.04C367.23 207.04 361.11 201.96 359.84 195.36L359.72 194.93L342.83 194.93L342.89 195.84C343.98 210.43 356.57 221.51 375.58 221.51Z" fill="#27803F"/>
    <path d="M152.83 360L170.21 360L170.21 343.96L181.71 343.96L181.71 329.36L170.21 329.36L170.21 272.63L144.42 272.63L109.36 328.70L109.36 343.96L152.83 343.96ZM125.28 329.85L125.28 329.36L152.77 285.83L153.20 285.83L153.20 329.85ZM223.97 361.51C244.38 361.51 257.94 350.98 257.94 335.36L257.94 335.24C257.94 323.37 249.46 315.86 236.51 314.65L236.51 314.29C246.74 312.17 254.73 305.08 254.73 294.19L254.73 294.06C254.73 280.32 242.62 271.12 223.79 271.12C205.45 271.12 193.16 281.05 191.95 296.18L191.88 296.91L208.66 296.91L208.72 296.37C209.44 289.58 215.26 285.16 223.79 285.16C232.39 285.16 237.42 289.40 237.42 296.49L237.42 296.61C237.42 303.69 231.48 308.54 222.34 308.54L212.59 308.54L212.59 321.55L222.58 321.55C233.12 321.55 239.35 326.15 239.35 334.51L239.35 334.63C239.35 341.78 233.30 346.80 223.91 346.80C214.47 346.80 208.29 342.14 207.51 335.90L207.38 335.24L189.95 335.24L190.01 336.02C191.22 351.10 204.18 361.51 223.97 361.51ZM288.76 317.62C301.29 317.62 308.98 308.84 308.98 294.73L308.98 294.67C308.98 280.62 301.29 271.84 288.76 271.84C276.17 271.84 268.48 280.62 268.48 294.67L268.48 294.73C268.48 308.84 276.17 317.62 288.76 317.62ZM297.78 360L352.94 272.63L339.50 272.63L284.28 360ZM288.76 307.57C283.86 307.57 281.13 303.03 281.13 294.73L281.13 294.67C281.13 286.44 283.86 281.89 288.76 281.89C293.60 281.89 296.27 286.44 296.27 294.67L296.27 294.73C296.27 303.03 293.60 307.57 288.76 307.57ZM348.52 360.79C361.05 360.79 368.74 352.01 368.74 337.90L368.74 337.84C368.74 323.79 361.05 315.01 348.52 315.01C335.93 315.01 328.24 323.79 328.24 337.84L328.24 337.90C328.24 352.01 335.93 360.79 348.52 360.79ZM348.52 350.74C343.62 350.74 340.89 346.20 340.89 337.90L340.89 337.84C340.89 329.61 343.62 325.06 348.52 325.06C353.36 325.06 356.03 329.61 356.03 337.84L356.03 337.90C356.03 346.20 353.36 350.74 348.52 350.74Z" fill="#27803F" opacity="0.5"/>
</svg>
