
<svg xmlns="http://www.w3.org/2000/svg" viewBox="0 0 1080 1350" width="1080" height="1350">
  <rect width="1080" height="1350" fill="#C09063"/>
  
  <!-- Background circle with opacity -->
  <circle opacity="0.12" cx="750.5" cy="1000.5" r="186.692" 
    fill="none"
    stroke="#FFFFFF" 
    stroke-width="85.6166"/>
  
  <!-- Progress arc -->
  <path d="M750.5 813.808 A186.692 186.692 0 0 1 908.1292690678222 900.4654239917812" 
    fill="none"
    stroke="black" 
    stroke-width="85.6166" 
    stroke-linecap="round" 
    stroke-linejoin="round"/>
  
  <path d="M111.18 220L174.69 220L174.69 205.47L135.09 205.47L135.09 204.74L153.38 188.03C168.45 174.17 173.48 167.26 173.48 156.67L173.48 156.55C173.48 141.65 160.76 131.12 142.30 131.12C123.83 131.12 110.15 142.68 110.15 159.15L110.15 159.63L127.10 159.63L127.16 159.09C127.40 151.22 133.46 145.35 142.42 145.35C150.17 145.35 155.62 150.43 155.68 157.58L155.68 157.70C155.68 163.75 153.32 168.05 142.05 178.59L111.18 207.47ZM220.46 221.51C242.62 221.51 256.06 204.14 256.06 176.35L256.06 176.22C256.06 148.43 242.62 131.12 220.46 131.12C198.30 131.12 184.86 148.43 184.86 176.22L184.86 176.35C184.86 204.14 198.30 221.51 220.46 221.51ZM220.46 206.86C209.56 206.86 203.33 195.54 203.33 176.35L203.33 176.22C203.33 157.03 209.56 145.77 220.46 145.77C231.36 145.77 237.60 157.03 237.60 176.22L237.60 176.35C237.60 195.54 231.36 206.86 220.46 206.86ZM267.27 220L330.78 220L330.78 205.47L291.18 205.47L291.18 204.74L309.47 188.03C324.54 174.17 329.57 167.26 329.57 156.67L329.57 156.55C329.57 141.65 316.85 131.12 298.39 131.12C279.92 131.12 266.24 142.68 266.24 159.15L266.24 159.63L283.19 159.63L283.25 159.09C283.49 151.22 289.55 145.35 298.51 145.35C306.26 145.35 311.71 150.43 311.77 157.58L311.77 157.70C311.77 163.75 309.41 168.05 298.14 178.59L267.27 207.47ZM377.28 221.51C396.71 221.51 410.94 208.80 410.94 190.94L410.94 190.82C410.94 174.47 399.38 162.48 382.49 162.48C370.68 162.48 362.08 168.41 358.63 176.53L358.27 176.53C358.27 175.62 358.33 174.41 358.39 173.20C359.05 157.76 364.63 145.59 377.40 145.59C384.54 145.59 389.39 149.16 391.57 154.43L391.75 154.97L409.79 154.97L409.67 154.37C407.07 140.87 394.35 131.12 377.46 131.12C354.70 131.12 340.83 148.31 340.83 176.95L340.83 177.07C340.83 206.68 356.21 221.51 377.28 221.51ZM361.05 191.36L361.05 191.24C361.05 182.34 368.08 175.98 377.22 175.98C386.30 175.98 393.14 182.40 393.14 191.48L393.14 191.60C393.14 200.20 385.94 206.98 377.04 206.98C368.08 206.98 361.05 200.14 361.05 191.36Z" fill="black"/>
    <path d="M133.03 360L151.14 360L151.14 272.63L132.97 272.63L110.39 288.31L110.39 304.54L132.67 289.40L133.03 289.40ZM205.93 361.51C225.37 361.51 239.60 348.80 239.60 330.94L239.60 330.82C239.60 314.47 228.03 302.48 211.14 302.48C199.33 302.48 190.73 308.41 187.28 316.53L186.92 316.53C186.92 315.62 186.98 314.41 187.04 313.20C187.71 297.76 193.28 285.59 206.05 285.59C213.20 285.59 218.04 289.16 220.22 294.43L220.40 294.97L238.45 294.97L238.32 294.37C235.72 280.87 223.01 271.12 206.11 271.12C183.35 271.12 169.48 288.31 169.48 316.95L169.48 317.07C169.48 346.68 184.86 361.51 205.93 361.51ZM189.71 331.36L189.71 331.24C189.71 322.34 196.73 315.98 205.87 315.98C214.95 315.98 221.79 322.40 221.79 331.48L221.79 331.60C221.79 340.20 214.59 346.98 205.69 346.98C196.73 346.98 189.71 340.14 189.71 331.36ZM270.78 317.62C283.31 317.62 291 308.84 291 294.73L291 294.67C291 280.62 283.31 271.84 270.78 271.84C258.18 271.84 250.49 280.62 250.49 294.67L250.49 294.73C250.49 308.84 258.18 317.62 270.78 317.62ZM279.80 360L334.96 272.63L321.52 272.63L266.30 360ZM270.78 307.57C265.87 307.57 263.15 303.03 263.15 294.73L263.15 294.67C263.15 286.44 265.87 281.89 270.78 281.89C275.62 281.89 278.29 286.44 278.29 294.67L278.29 294.73C278.29 303.03 275.62 307.57 270.78 307.57ZM330.54 360.79C343.07 360.79 350.76 352.01 350.76 337.90L350.76 337.84C350.76 323.79 343.07 315.01 330.54 315.01C317.94 315.01 310.25 323.79 310.25 337.84L310.25 337.90C310.25 352.01 317.94 360.79 330.54 360.79ZM330.54 350.74C325.63 350.74 322.91 346.20 322.91 337.90L322.91 337.84C322.91 329.61 325.63 325.06 330.54 325.06C335.38 325.06 338.04 329.61 338.04 337.84L338.04 337.90C338.04 346.20 335.38 350.74 330.54 350.74Z" fill="black" opacity="0.5"/>
</svg>
