
<svg xmlns="http://www.w3.org/2000/svg" viewBox="0 0 1080 1350" width="1080" height="1350">
  <rect width="1080" height="1350" fill="#FFCE20"/>
  
  <!-- Background circle with opacity -->
  <circle opacity="0.12" cx="750.5" cy="1000.5" r="186.692" 
    fill="none"
    stroke="#000000" 
    stroke-width="85.6166"/>
  
  <!-- Progress arc -->
  <path d="M750.5 813.808 A186.692 186.692 0 0 1 935.1892303855262 1027.7725327683738" 
    fill="none"
    stroke="#9D0000" 
    stroke-width="85.6166" 
    stroke-linecap="round" 
    stroke-linejoin="round"/>
  
  <path d="M111.18 220L174.69 220L174.69 205.47L135.09 205.47L135.09 204.74L153.38 188.03C168.45 174.17 173.48 167.26 173.48 156.67L173.48 156.55C173.48 141.65 160.76 131.12 142.30 131.12C123.83 131.12 110.15 142.68 110.15 159.15L110.15 159.63L127.10 159.63L127.16 159.09C127.40 151.22 133.46 145.35 142.42 145.35C150.17 145.35 155.62 150.43 155.68 157.58L155.68 157.70C155.68 163.75 153.32 168.05 142.05 178.59L111.18 207.47ZM220.46 221.51C242.62 221.51 256.06 204.14 256.06 176.35L256.06 176.22C256.06 148.43 242.62 131.12 220.46 131.12C198.30 131.12 184.86 148.43 184.86 176.22L184.86 176.35C184.86 204.14 198.30 221.51 220.46 221.51ZM220.46 206.86C209.56 206.86 203.33 195.54 203.33 176.35L203.33 176.22C203.33 157.03 209.56 145.77 220.46 145.77C231.36 145.77 237.60 157.03 237.60 176.22L237.60 176.35C237.60 195.54 231.36 206.86 220.46 206.86ZM267.27 220L330.78 220L330.78 205.47L291.18 205.47L291.18 204.74L309.47 188.03C324.54 174.17 329.57 167.26 329.57 156.67L329.57 156.55C329.57 141.65 316.85 131.12 298.39 131.12C279.92 131.12 266.24 142.68 266.24 159.15L266.24 159.63L283.19 159.63L283.25 159.09C283.49 151.22 289.55 145.35 298.51 145.35C306.26 145.35 311.71 150.43 311.77 157.58L311.77 157.70C311.77 163.75 309.41 168.05 298.14 178.59L267.27 207.47ZM375.58 221.51C395.56 221.51 409.37 209.10 409.37 190.82L409.37 190.70C409.37 174.23 397.38 162.30 380.79 162.30C371.95 162.30 364.75 165.87 361.11 171.74L360.75 171.74L362.87 147.16L404.10 147.16L404.10 132.63L348.34 132.63L344.34 183.91L360.27 183.91C361.29 182.10 362.69 180.40 364.44 179.07C367.41 176.71 371.22 175.38 375.71 175.38C385.15 175.38 391.87 181.86 391.93 191.06L391.93 191.18C391.93 200.50 385.21 207.04 375.64 207.04C367.23 207.04 361.11 201.96 359.84 195.36L359.72 194.93L342.83 194.93L342.89 195.84C343.98 210.43 356.57 221.51 375.58 221.51Z" fill="#9D0000"/>
    <path d="M152.83 360L170.21 360L170.21 343.96L181.71 343.96L181.71 329.36L170.21 329.36L170.21 272.63L144.42 272.63L109.36 328.70L109.36 343.96L152.83 343.96ZM125.28 329.85L125.28 329.36L152.77 285.83L153.20 285.83L153.20 329.85ZM213.32 360L231.42 360L231.42 272.63L213.26 272.63L190.67 288.31L190.67 304.54L212.96 289.40L213.32 289.40ZM270.17 317.62C282.71 317.62 290.39 308.84 290.39 294.73L290.39 294.67C290.39 280.62 282.71 271.84 270.17 271.84C257.58 271.84 249.89 280.62 249.89 294.67L249.89 294.73C249.89 308.84 257.58 317.62 270.17 317.62ZM279.19 360L334.35 272.63L320.91 272.63L265.69 360ZM270.17 307.57C265.27 307.57 262.54 303.03 262.54 294.73L262.54 294.67C262.54 286.44 265.27 281.89 270.17 281.89C275.02 281.89 277.68 286.44 277.68 294.67L277.68 294.73C277.68 303.03 275.02 307.57 270.17 307.57ZM329.93 360.79C342.46 360.79 350.15 352.01 350.15 337.90L350.15 337.84C350.15 323.79 342.46 315.01 329.93 315.01C317.34 315.01 309.65 323.79 309.65 337.84L309.65 337.90C309.65 352.01 317.34 360.79 329.93 360.79ZM329.93 350.74C325.03 350.74 322.30 346.20 322.30 337.90L322.30 337.84C322.30 329.61 325.03 325.06 329.93 325.06C334.78 325.06 337.44 329.61 337.44 337.84L337.44 337.90C337.44 346.20 334.78 350.74 329.93 350.74Z" fill="#9D0000" opacity="0.5"/>
</svg>
