
<svg xmlns="http://www.w3.org/2000/svg" viewBox="0 0 1080 1350" width="1080" height="1350">
  <rect width="1080" height="1350" fill="#FDBE83"/>
  
  <!-- Background circle with opacity -->
  <circle opacity="0.12" cx="750.5" cy="1000.5" r="186.692" 
    fill="none"
    stroke="#000000" 
    stroke-width="85.6166"/>
  
  <!-- Progress arc -->
  <path d="M750.5 813.808 A186.692 186.692 0 1 1 597.1980118484106 1107.047657378142" 
    fill="none"
    stroke="#805630" 
    stroke-width="85.6166" 
    stroke-linecap="round" 
    stroke-linejoin="round"/>
  
  <path d="M111.18 220L174.69 220L174.69 205.47L135.09 205.47L135.09 204.74L153.38 188.03C168.45 174.17 173.48 167.26 173.48 156.67L173.48 156.55C173.48 141.65 160.76 131.12 142.30 131.12C123.83 131.12 110.15 142.68 110.15 159.15L110.15 159.63L127.10 159.63L127.16 159.09C127.40 151.22 133.46 145.35 142.42 145.35C150.17 145.35 155.62 150.43 155.68 157.58L155.68 157.70C155.68 163.75 153.32 168.05 142.05 178.59L111.18 207.47ZM220.46 221.51C242.62 221.51 256.06 204.14 256.06 176.35L256.06 176.22C256.06 148.43 242.62 131.12 220.46 131.12C198.30 131.12 184.86 148.43 184.86 176.22L184.86 176.35C184.86 204.14 198.30 221.51 220.46 221.51ZM220.46 206.86C209.56 206.86 203.33 195.54 203.33 176.35L203.33 176.22C203.33 157.03 209.56 145.77 220.46 145.77C231.36 145.77 237.60 157.03 237.60 176.22L237.60 176.35C237.60 195.54 231.36 206.86 220.46 206.86ZM267.27 220L330.78 220L330.78 205.47L291.18 205.47L291.18 204.74L309.47 188.03C324.54 174.17 329.57 167.26 329.57 156.67L329.57 156.55C329.57 141.65 316.85 131.12 298.39 131.12C279.92 131.12 266.24 142.68 266.24 159.15L266.24 159.63L283.19 159.63L283.25 159.09C283.49 151.22 289.55 145.35 298.51 145.35C306.26 145.35 311.71 150.43 311.77 157.58L311.77 157.70C311.77 163.75 309.41 168.05 298.14 178.59L267.27 207.47ZM375.58 221.51C395.56 221.51 409.37 209.10 409.37 190.82L409.37 190.70C409.37 174.23 397.38 162.30 380.79 162.30C371.95 162.30 364.75 165.87 361.11 171.74L360.75 171.74L362.87 147.16L404.10 147.16L404.10 132.63L348.34 132.63L344.34 183.91L360.27 183.91C361.29 182.10 362.69 180.40 364.44 179.07C367.41 176.71 371.22 175.38 375.71 175.38C385.15 175.38 391.87 181.86 391.93 191.06L391.93 191.18C391.93 200.50 385.21 207.04 375.64 207.04C367.23 207.04 361.11 201.96 359.84 195.36L359.72 194.93L342.83 194.93L342.89 195.84C343.98 210.43 356.57 221.51 375.58 221.51Z" fill="#805630"/>
    <path d="M144.48 271.12C125.04 271.12 110.81 283.77 110.81 301.63L110.81 301.75C110.81 318.16 122.38 330.09 139.27 330.09C151.08 330.09 159.67 324.16 163.13 316.04L163.43 316.04C163.49 317.01 163.43 318.22 163.37 319.37C162.70 334.81 157.13 346.98 144.36 346.98C137.21 346.98 132.37 343.41 130.19 338.14L130.01 337.66L111.96 337.66L112.08 338.20C114.69 351.71 127.40 361.51 144.29 361.51C167.06 361.51 180.93 344.26 180.93 315.62L180.93 315.50C180.93 285.89 165.55 271.12 144.48 271.12ZM144.54 316.59C135.46 316.59 128.61 310.23 128.61 301.15L128.61 301.03C128.61 292.37 135.82 285.65 144.72 285.65C153.68 285.65 160.70 292.43 160.70 301.27L160.70 301.33C160.70 310.23 153.68 316.59 144.54 316.59ZM226.15 361.51C246.98 361.51 261.33 351.16 261.33 336.14L261.33 336.02C261.33 324.70 252.92 316.35 241.23 314.04L241.23 313.68C251.28 311.20 258.18 303.87 258.18 294.55L258.18 294.43C258.18 280.93 244.98 271.12 226.15 271.12C207.26 271.12 194.13 280.93 194.13 294.43L194.13 294.55C194.13 303.87 200.97 311.20 211.08 313.68L211.08 314.04C199.33 316.35 190.92 324.70 190.92 336.02L190.92 336.14C190.92 351.16 205.33 361.51 226.15 361.51ZM226.15 308.17C217.92 308.17 212.17 303.27 212.17 296.24L212.17 296.12C212.17 289.16 217.98 284.32 226.15 284.32C234.33 284.32 240.08 289.16 240.08 296.12L240.08 296.24C240.08 303.27 234.39 308.17 226.15 308.17ZM226.15 348.19C216.59 348.19 209.87 342.62 209.87 334.93L209.87 334.81C209.87 327.06 216.53 321.43 226.15 321.43C235.78 321.43 242.38 327.06 242.38 334.81L242.38 334.93C242.38 342.62 235.66 348.19 226.15 348.19ZM291.73 317.62C304.26 317.62 311.95 308.84 311.95 294.73L311.95 294.67C311.95 280.62 304.26 271.84 291.73 271.84C279.13 271.84 271.44 280.62 271.44 294.67L271.44 294.73C271.44 308.84 279.13 317.62 291.73 317.62ZM300.75 360L355.91 272.63L342.46 272.63L287.25 360ZM291.73 307.57C286.82 307.57 284.10 303.03 284.10 294.73L284.10 294.67C284.10 286.44 286.82 281.89 291.73 281.89C296.57 281.89 299.23 286.44 299.23 294.67L299.23 294.73C299.23 303.03 296.57 307.57 291.73 307.57ZM351.49 360.79C364.02 360.79 371.71 352.01 371.71 337.90L371.71 337.84C371.71 323.79 364.02 315.01 351.49 315.01C338.89 315.01 331.20 323.79 331.20 337.84L331.20 337.90C331.20 352.01 338.89 360.79 351.49 360.79ZM351.49 350.74C346.58 350.74 343.86 346.20 343.86 337.90L343.86 337.84C343.86 329.61 346.58 325.06 351.49 325.06C356.33 325.06 358.99 329.61 358.99 337.84L358.99 337.90C358.99 346.20 356.33 350.74 351.49 350.74Z" fill="#805630" opacity="0.5"/>
</svg>
