
<svg xmlns="http://www.w3.org/2000/svg" viewBox="0 0 1080 1350" width="1080" height="1350">
  <rect width="1080" height="1350" fill="#FFEB39"/>
  
  <!-- Background circle with opacity -->
  <circle opacity="0.12" cx="750.5" cy="1000.5" r="186.692" 
    fill="none"
    stroke="#000000" 
    stroke-width="85.6166"/>
  
  <!-- Progress arc -->
  <path d="M750.5 813.808 A186.692 186.692 0 0 1 903.8019881515895 1107.047657378142" 
    fill="none"
    stroke="#F369FF" 
    stroke-width="85.6166" 
    stroke-linecap="round" 
    stroke-linejoin="round"/>
  
  <path d="M111.18 220L174.69 220L174.69 205.47L135.09 205.47L135.09 204.74L153.38 188.03C168.45 174.17 173.48 167.26 173.48 156.67L173.48 156.55C173.48 141.65 160.76 131.12 142.30 131.12C123.83 131.12 110.15 142.68 110.15 159.15L110.15 159.63L127.10 159.63L127.16 159.09C127.40 151.22 133.46 145.35 142.42 145.35C150.17 145.35 155.62 150.43 155.68 157.58L155.68 157.70C155.68 163.75 153.32 168.05 142.05 178.59L111.18 207.47ZM220.46 221.51C242.62 221.51 256.06 204.14 256.06 176.35L256.06 176.22C256.06 148.43 242.62 131.12 220.46 131.12C198.30 131.12 184.86 148.43 184.86 176.22L184.86 176.35C184.86 204.14 198.30 221.51 220.46 221.51ZM220.46 206.86C209.56 206.86 203.33 195.54 203.33 176.35L203.33 176.22C203.33 157.03 209.56 145.77 220.46 145.77C231.36 145.77 237.60 157.03 237.60 176.22L237.60 176.35C237.60 195.54 231.36 206.86 220.46 206.86ZM267.27 220L330.78 220L330.78 205.47L291.18 205.47L291.18 204.74L309.47 188.03C324.54 174.17 329.57 167.26 329.57 156.67L329.57 156.55C329.57 141.65 316.85 131.12 298.39 131.12C279.92 131.12 266.24 142.68 266.24 159.15L266.24 159.63L283.19 159.63L283.25 159.09C283.49 151.22 289.55 145.35 298.51 145.35C306.26 145.35 311.71 150.43 311.77 157.58L311.77 157.70C311.77 163.75 309.41 168.05 298.14 178.59L267.27 207.47ZM375.58 221.51C395.56 221.51 409.37 209.10 409.37 190.82L409.37 190.70C409.37 174.23 397.38 162.30 380.79 162.30C371.95 162.30 364.75 165.87 361.11 171.74L360.75 171.74L362.87 147.16L404.10 147.16L404.10 132.63L348.34 132.63L344.34 183.91L360.27 183.91C361.29 182.10 362.69 180.40 364.44 179.07C367.41 176.71 371.22 175.38 375.71 175.38C385.15 175.38 391.87 181.86 391.93 191.06L391.93 191.18C391.93 200.50 385.21 207.04 375.64 207.04C367.23 207.04 361.11 201.96 359.84 195.36L359.72 194.93L342.83 194.93L342.89 195.84C343.98 210.43 356.57 221.51 375.58 221.51Z" fill="#F369FF"/>
    <path d="M144.72 361.51C164.70 361.51 178.50 349.10 178.50 330.82L178.50 330.70C178.50 314.23 166.52 302.30 149.93 302.30C141.09 302.30 133.88 305.87 130.25 311.74L129.88 311.74L132.00 287.16L173.24 287.16L173.24 272.63L117.47 272.63L113.48 323.91L129.40 323.91C130.43 322.10 131.82 320.40 133.58 319.07C136.54 316.71 140.36 315.38 144.84 315.38C154.29 315.38 161.01 321.86 161.07 331.06L161.07 331.18C161.07 340.50 154.35 347.04 144.78 347.04C136.36 347.04 130.25 341.96 128.98 335.36L128.86 334.93L111.96 334.93L112.02 335.84C113.11 350.43 125.71 361.51 144.72 361.51ZM188.68 360L252.19 360L252.19 345.47L212.59 345.47L212.59 344.74L230.88 328.03C245.95 314.17 250.98 307.26 250.98 296.67L250.98 296.55C250.98 281.65 238.26 271.12 219.80 271.12C201.33 271.12 187.65 282.68 187.65 299.15L187.65 299.63L204.60 299.63L204.66 299.09C204.90 291.22 210.96 285.35 219.92 285.35C227.67 285.35 233.12 290.43 233.18 297.58L233.18 297.70C233.18 303.75 230.82 308.05 219.55 318.59L188.68 347.47ZM282.64 317.62C295.18 317.62 302.87 308.84 302.87 294.73L302.87 294.67C302.87 280.62 295.18 271.84 282.64 271.84C270.05 271.84 262.36 280.62 262.36 294.67L262.36 294.73C262.36 308.84 270.05 317.62 282.64 317.62ZM291.67 360L346.82 272.63L333.38 272.63L278.16 360ZM282.64 307.57C277.74 307.57 275.02 303.03 275.02 294.73L275.02 294.67C275.02 286.44 277.74 281.89 282.64 281.89C287.49 281.89 290.15 286.44 290.15 294.67L290.15 294.73C290.15 303.03 287.49 307.57 282.64 307.57ZM342.40 360.79C354.94 360.79 362.63 352.01 362.63 337.90L362.63 337.84C362.63 323.79 354.94 315.01 342.40 315.01C329.81 315.01 322.12 323.79 322.12 337.84L322.12 337.90C322.12 352.01 329.81 360.79 342.40 360.79ZM342.40 350.74C337.50 350.74 334.78 346.20 334.78 337.90L334.78 337.84C334.78 329.61 337.50 325.06 342.40 325.06C347.25 325.06 349.91 329.61 349.91 337.84L349.91 337.90C349.91 346.20 347.25 350.74 342.40 350.74Z" fill="#F369FF" opacity="0.5"/>
</svg>
