
<svg xmlns="http://www.w3.org/2000/svg" viewBox="0 0 1080 1350" width="1080" height="1350">
  <rect width="1080" height="1350" fill="#FDBE83"/>
   
  <!-- Circle with progress -->
  <circle cx="540" cy="700" r="300" fill="none" stroke="#805630" stroke-width="60" stroke-opacity="0.12" stroke-dasharray="1884" stroke-dashoffset="1205.76" />
  
  <path d="M137.27 220L152.83 220L152.83 185.55L183.47 132.63L166.39 132.63L145.26 170.65L144.84 170.65L123.71 132.63L106.63 132.63L137.27 185.55ZM219.49 221.27C236.27 221.27 245.71 211.34 247.71 201.47L247.89 200.81L233.78 200.81L233.66 201.23C232.21 205.53 227.30 209.53 219.80 209.53C209.99 209.53 203.81 202.87 203.57 191.60L248.50 191.60L248.50 186.76C248.50 167.38 237.11 154.49 218.77 154.49C200.42 154.49 188.62 167.81 188.62 188.03L188.62 188.09C188.62 208.50 200.24 221.27 219.49 221.27ZM218.95 166.29C226.94 166.29 232.75 171.38 233.84 181.55L203.75 181.55C204.96 171.68 210.96 166.29 218.95 166.29ZM277.13 221.09C285.61 221.09 292.76 216.85 296.45 210.13L296.81 210.13L296.81 220L311.89 220L311.89 175.86C311.89 162.96 301.54 154.49 285.49 154.49C269.20 154.49 259.33 163.03 258.43 174.41L258.37 175.13L272.35 175.13L272.47 174.59C273.44 169.87 277.80 166.54 284.95 166.54C292.57 166.54 296.81 170.47 296.81 176.95L296.81 181.37L280.04 182.40C264.48 183.37 255.64 190.21 255.64 201.59L255.64 201.71C255.64 213.16 264.30 221.09 277.13 221.09ZM270.66 201.11L270.66 201.05C270.66 195.96 274.71 192.75 282.16 192.27L296.81 191.36L296.81 196.21C296.81 203.83 290.27 209.59 281.62 209.59C275.02 209.59 270.66 206.38 270.66 201.11ZM324.00 220L339.07 220L339.07 182.76C339.07 173.26 344.22 167.87 352.76 167.87C355.30 167.87 357.60 168.23 358.87 168.72L358.87 155.09C357.72 154.79 355.97 154.49 354.09 154.49C346.70 154.49 341.38 159.15 339.38 166.90L339.07 166.90L339.07 155.82L324.00 155.82ZM391.75 220L453.14 220L453.14 207.22L412.40 207.22L412.40 206.56L431.65 188.27C447.03 173.50 451.81 166.54 451.81 156.24L451.81 156.12C451.81 141.71 439.58 131.12 422.08 131.12C404.34 131.12 390.90 142.56 390.90 158.54L390.90 158.97L405.55 158.97L405.55 158.54C405.74 150.13 412.52 143.65 422.21 143.65C430.62 143.65 436.49 149.22 436.55 157.03L436.55 157.15C436.55 163.63 434.07 168.05 422.63 179.25L391.75 209.34ZM497.89 221.51C519.26 221.51 532.22 204.14 532.22 176.35L532.22 176.22C532.22 148.43 519.26 131.12 497.89 131.12C476.46 131.12 463.56 148.43 463.56 176.22L463.56 176.35C463.56 204.14 476.46 221.51 497.89 221.51ZM497.89 208.74C486.08 208.74 479.30 196.51 479.30 176.35L479.30 176.22C479.30 156.06 486.08 143.95 497.89 143.95C509.63 143.95 516.48 156.06 516.48 176.22L516.48 176.35C516.48 196.51 509.63 208.74 497.89 208.74ZM543.90 220L605.30 220L605.30 207.22L564.55 207.22L564.55 206.56L583.80 188.27C599.18 173.50 603.97 166.54 603.97 156.24L603.97 156.12C603.97 141.71 591.74 131.12 574.24 131.12C556.50 131.12 543.06 142.56 543.06 158.54L543.06 158.97L557.71 158.97L557.71 158.54C557.89 150.13 564.67 143.65 574.36 143.65C582.78 143.65 588.65 149.22 588.71 157.03L588.71 157.15C588.71 163.63 586.23 168.05 574.78 179.25L543.90 209.34ZM649.26 221.51C668.57 221.51 682.07 209.16 682.07 191.18L682.07 191.06C682.07 174.47 670.08 162.42 653.43 162.42C644.65 162.42 637.45 165.87 633.63 171.74L633.33 171.74L635.75 145.41L676.93 145.41L676.93 132.63L623.28 132.63L619.10 183.43L632.73 183.43C633.76 181.49 635.21 179.80 636.84 178.46C640.17 175.68 644.47 174.17 649.44 174.17C659.67 174.17 667.00 181.31 667.00 191.30L667.00 191.42C667.00 201.65 659.79 208.80 649.38 208.80C640.17 208.80 633.51 203.17 632.24 195.84L632.18 195.42L617.53 195.42L617.59 196.21C618.74 210.68 631.09 221.51 649.26 221.51Z" fill="#805630"/>
    <path d="M142.90 361.51C162.22 361.51 175.54 350.86 175.54 335.66L175.54 335.54C175.54 323.43 167 315.80 154.10 314.59L154.10 314.29C164.58 312.11 172.45 304.90 172.45 294.06L172.45 293.94C172.45 280.38 160.76 271.12 142.72 271.12C125.10 271.12 113.17 280.93 111.90 295.70L111.84 296.43L126.37 296.43L126.43 295.82C127.22 288.31 133.52 283.53 142.72 283.53C152.11 283.53 157.43 288.13 157.43 296.00L157.43 296.12C157.43 303.75 151.02 309.20 141.39 309.20L131.40 309.20L131.40 320.83L141.75 320.83C152.89 320.83 159.67 325.91 159.67 335.12L159.67 335.24C159.67 343.17 152.95 348.74 142.84 348.74C132.61 348.74 125.83 343.59 124.98 336.51L124.92 335.84L109.96 335.84L110.03 336.57C111.24 351.22 123.71 361.51 142.90 361.51ZM221.79 361.51C240.63 361.51 254.43 348.86 254.43 331.24L254.43 331.12C254.43 314.71 242.62 302.60 225.79 302.60C213.92 302.60 205.21 308.66 201.75 316.65L201.45 316.65C201.45 315.68 201.45 314.77 201.51 313.86C202.12 297.33 207.99 283.89 222.04 283.89C229.85 283.89 235.24 287.77 237.54 293.76L237.78 294.31L253.28 294.31L253.16 293.64C250.37 280.44 238.32 271.12 222.16 271.12C199.88 271.12 186.50 288.37 186.50 317.25L186.50 317.38C186.50 348.01 202.48 361.51 221.79 361.51ZM204.12 331.48L204.12 331.42C204.12 321.67 211.74 314.65 221.73 314.65C231.72 314.65 239.05 321.73 239.05 331.66L239.05 331.79C239.05 341.23 231.30 348.74 221.55 348.74C211.80 348.74 204.12 341.17 204.12 331.48ZM285.19 316.95C297.18 316.95 304.44 308.29 304.44 294.43L304.44 294.37C304.44 280.50 297.18 271.84 285.19 271.84C273.14 271.84 265.81 280.50 265.81 294.37L265.81 294.43C265.81 308.29 273.14 316.95 285.19 316.95ZM292.33 360L347.79 272.63L335.68 272.63L280.10 360ZM285.19 307.87C279.92 307.87 276.95 303.03 276.95 294.43L276.95 294.37C276.95 285.77 279.92 280.93 285.19 280.93C290.39 280.93 293.30 285.77 293.30 294.37L293.30 294.43C293.30 303.03 290.39 307.87 285.19 307.87ZM342.77 360.79C354.76 360.79 362.08 352.13 362.08 338.20L362.08 338.14C362.08 324.34 354.76 315.68 342.77 315.68C330.78 315.68 323.45 324.34 323.45 338.14L323.45 338.20C323.45 352.13 330.78 360.79 342.77 360.79ZM342.77 351.71C337.50 351.71 334.53 346.86 334.53 338.26L334.53 338.20C334.53 329.61 337.50 324.76 342.77 324.76C347.97 324.76 350.94 329.61 350.94 338.20L350.94 338.26C350.94 346.86 347.97 351.71 342.77 351.71Z" fill="#805630" opacity="0.5"/>
</svg>
