
<svg xmlns="http://www.w3.org/2000/svg" viewBox="0 0 1080 1350" width="1080" height="1350">
  <rect width="1080" height="1350" fill="#343d46"/>
  
  <!-- Background circle with opacity -->
  <circle opacity="0.12" cx="750.5" cy="1000.5" r="186.692" 
    fill="none"
    stroke="#FFFFFF" 
    stroke-width="85.6166"/>
  
  <!-- Progress arc -->
  <path d="M750.5 813.808 A186.692 186.692 0 0 1 936.8236059837309 988.7775123280334" 
    fill="none"
    stroke="#7df9ff" 
    stroke-width="85.6166" 
    stroke-linecap="round" 
    stroke-linejoin="round"/>
  
  <path d="M111.48 220L172.87 220L172.87 207.22L132.13 207.22L132.13 206.56L151.38 188.27C166.76 173.50 171.54 166.54 171.54 156.24L171.54 156.12C171.54 141.71 159.31 131.12 141.81 131.12C124.07 131.12 110.63 142.56 110.63 158.54L110.63 158.97L125.28 158.97L125.28 158.54C125.46 150.13 132.25 143.65 141.93 143.65C150.35 143.65 156.22 149.22 156.28 157.03L156.28 157.15C156.28 163.63 153.80 168.05 142.36 179.25L111.48 209.34ZM217.62 221.51C238.99 221.51 251.95 204.14 251.95 176.35L251.95 176.22C251.95 148.43 238.99 131.12 217.62 131.12C196.18 131.12 183.29 148.43 183.29 176.22L183.29 176.35C183.29 204.14 196.18 221.51 217.62 221.51ZM217.62 208.74C205.81 208.74 199.03 196.51 199.03 176.35L199.03 176.22C199.03 156.06 205.81 143.95 217.62 143.95C229.36 143.95 236.21 156.06 236.21 176.22L236.21 176.35C236.21 196.51 229.36 208.74 217.62 208.74ZM263.63 220L325.03 220L325.03 207.22L284.28 207.22L284.28 206.56L303.53 188.27C318.91 173.50 323.70 166.54 323.70 156.24L323.70 156.12C323.70 141.71 311.46 131.12 293.97 131.12C276.23 131.12 262.79 142.56 262.79 158.54L262.79 158.97L277.44 158.97L277.44 158.54C277.62 150.13 284.40 143.65 294.09 143.65C302.50 143.65 308.38 149.22 308.44 157.03L308.44 157.15C308.44 163.63 305.96 168.05 294.51 179.25L263.63 209.34ZM368.98 221.51C388.30 221.51 401.80 209.16 401.80 191.18L401.80 191.06C401.80 174.47 389.81 162.42 373.16 162.42C364.38 162.42 357.18 165.87 353.36 171.74L353.06 171.74L355.48 145.41L396.65 145.41L396.65 132.63L343.01 132.63L338.83 183.43L352.46 183.43C353.48 181.49 354.94 179.80 356.57 178.46C359.90 175.68 364.20 174.17 369.17 174.17C379.40 174.17 386.72 181.31 386.72 191.30L386.72 191.42C386.72 201.65 379.52 208.80 369.11 208.80C359.90 208.80 353.24 203.17 351.97 195.84L351.91 195.42L337.26 195.42L337.32 196.21C338.47 210.68 350.82 221.51 368.98 221.51Z" fill="#7df9ff"/>
    <path d="M142.90 361.51C162.22 361.51 175.54 350.86 175.54 335.66L175.54 335.54C175.54 323.43 167 315.80 154.10 314.59L154.10 314.29C164.58 312.11 172.45 304.90 172.45 294.06L172.45 293.94C172.45 280.38 160.76 271.12 142.72 271.12C125.10 271.12 113.17 280.93 111.90 295.70L111.84 296.43L126.37 296.43L126.43 295.82C127.22 288.31 133.52 283.53 142.72 283.53C152.11 283.53 157.43 288.13 157.43 296.00L157.43 296.12C157.43 303.75 151.02 309.20 141.39 309.20L131.40 309.20L131.40 320.83L141.75 320.83C152.89 320.83 159.67 325.91 159.67 335.12L159.67 335.24C159.67 343.17 152.95 348.74 142.84 348.74C132.61 348.74 125.83 343.59 124.98 336.51L124.92 335.84L109.96 335.84L110.03 336.57C111.24 351.22 123.71 361.51 142.90 361.51ZM221.79 361.51C240.63 361.51 254.43 348.86 254.43 331.24L254.43 331.12C254.43 314.71 242.62 302.60 225.79 302.60C213.92 302.60 205.21 308.66 201.75 316.65L201.45 316.65C201.45 315.68 201.45 314.77 201.51 313.86C202.12 297.33 207.99 283.89 222.04 283.89C229.85 283.89 235.24 287.77 237.54 293.76L237.78 294.31L253.28 294.31L253.16 293.64C250.37 280.44 238.32 271.12 222.16 271.12C199.88 271.12 186.50 288.37 186.50 317.25L186.50 317.38C186.50 348.01 202.48 361.51 221.79 361.51ZM204.12 331.48L204.12 331.42C204.12 321.67 211.74 314.65 221.73 314.65C231.72 314.65 239.05 321.73 239.05 331.66L239.05 331.79C239.05 341.23 231.30 348.74 221.55 348.74C211.80 348.74 204.12 341.17 204.12 331.48ZM285.19 316.95C297.18 316.95 304.44 308.29 304.44 294.43L304.44 294.37C304.44 280.50 297.18 271.84 285.19 271.84C273.14 271.84 265.81 280.50 265.81 294.37L265.81 294.43C265.81 308.29 273.14 316.95 285.19 316.95ZM292.33 360L347.79 272.63L335.68 272.63L280.10 360ZM285.19 307.87C279.92 307.87 276.95 303.03 276.95 294.43L276.95 294.37C276.95 285.77 279.92 280.93 285.19 280.93C290.39 280.93 293.30 285.77 293.30 294.37L293.30 294.43C293.30 303.03 290.39 307.87 285.19 307.87ZM342.77 360.79C354.76 360.79 362.08 352.13 362.08 338.20L362.08 338.14C362.08 324.34 354.76 315.68 342.77 315.68C330.78 315.68 323.45 324.34 323.45 338.14L323.45 338.20C323.45 352.13 330.78 360.79 342.77 360.79ZM342.77 351.71C337.50 351.71 334.53 346.86 334.53 338.26L334.53 338.20C334.53 329.61 337.50 324.76 342.77 324.76C347.97 324.76 350.94 329.61 350.94 338.20L350.94 338.26C350.94 346.86 347.97 351.71 342.77 351.71Z" fill="#7df9ff" opacity="0.5"/>
</svg>
