
<svg xmlns="http://www.w3.org/2000/svg" viewBox="0 0 1080 1350" width="1080" height="1350">
  <rect width="1080" height="1350" fill="#42095C"/>
  
  <!-- Background circle with opacity -->
  <circle opacity="0.12" cx="750.5" cy="1000.5" r="186.692" 
    fill="none"
    stroke="#FFFFFF" 
    stroke-width="85.6166"/>
  
  <!-- Progress arc -->
  <path d="M750.5 813.808 A186.692 186.692 0 0 1 933.8851714130403 1035.4825923826381" 
    fill="none"
    stroke="#EE85FF" 
    stroke-width="85.6166" 
    stroke-linecap="round" 
    stroke-linejoin="round"/>
  
  <path d="M111.18 220L174.69 220L174.69 205.47L135.09 205.47L135.09 204.74L153.38 188.03C168.45 174.17 173.48 167.26 173.48 156.67L173.48 156.55C173.48 141.65 160.76 131.12 142.30 131.12C123.83 131.12 110.15 142.68 110.15 159.15L110.15 159.63L127.10 159.63L127.16 159.09C127.40 151.22 133.46 145.35 142.42 145.35C150.17 145.35 155.62 150.43 155.68 157.58L155.68 157.70C155.68 163.75 153.32 168.05 142.05 178.59L111.18 207.47ZM220.46 221.51C242.62 221.51 256.06 204.14 256.06 176.35L256.06 176.22C256.06 148.43 242.62 131.12 220.46 131.12C198.30 131.12 184.86 148.43 184.86 176.22L184.86 176.35C184.86 204.14 198.30 221.51 220.46 221.51ZM220.46 206.86C209.56 206.86 203.33 195.54 203.33 176.35L203.33 176.22C203.33 157.03 209.56 145.77 220.46 145.77C231.36 145.77 237.60 157.03 237.60 176.22L237.60 176.35C237.60 195.54 231.36 206.86 220.46 206.86ZM267.27 220L330.78 220L330.78 205.47L291.18 205.47L291.18 204.74L309.47 188.03C324.54 174.17 329.57 167.26 329.57 156.67L329.57 156.55C329.57 141.65 316.85 131.12 298.39 131.12C279.92 131.12 266.24 142.68 266.24 159.15L266.24 159.63L283.19 159.63L283.25 159.09C283.49 151.22 289.55 145.35 298.51 145.35C306.26 145.35 311.71 150.43 311.77 157.58L311.77 157.70C311.77 163.75 309.41 168.05 298.14 178.59L267.27 207.47ZM375.58 221.51C395.56 221.51 409.37 209.10 409.37 190.82L409.37 190.70C409.37 174.23 397.38 162.30 380.79 162.30C371.95 162.30 364.75 165.87 361.11 171.74L360.75 171.74L362.87 147.16L404.10 147.16L404.10 132.63L348.34 132.63L344.34 183.91L360.27 183.91C361.29 182.10 362.69 180.40 364.44 179.07C367.41 176.71 371.22 175.38 375.71 175.38C385.15 175.38 391.87 181.86 391.93 191.06L391.93 191.18C391.93 200.50 385.21 207.04 375.64 207.04C367.23 207.04 361.11 201.96 359.84 195.36L359.72 194.93L342.83 194.93L342.89 195.84C343.98 210.43 356.57 221.51 375.58 221.51Z" fill="#FFFEFE"/>
    <path d="M152.83 360L170.21 360L170.21 343.96L181.71 343.96L181.71 329.36L170.21 329.36L170.21 272.63L144.42 272.63L109.36 328.70L109.36 343.96L152.83 343.96ZM125.28 329.85L125.28 329.36L152.77 285.83L153.20 285.83L153.20 329.85ZM191.46 360L254.97 360L254.97 345.47L215.38 345.47L215.38 344.74L233.66 328.03C248.74 314.17 253.76 307.26 253.76 296.67L253.76 296.55C253.76 281.65 241.05 271.12 222.58 271.12C204.12 271.12 190.43 282.68 190.43 299.15L190.43 299.63L207.38 299.63L207.45 299.09C207.69 291.22 213.74 285.35 222.70 285.35C230.45 285.35 235.90 290.43 235.96 297.58L235.96 297.70C235.96 303.75 233.60 308.05 222.34 318.59L191.46 347.47ZM285.43 317.62C297.96 317.62 305.65 308.84 305.65 294.73L305.65 294.67C305.65 280.62 297.96 271.84 285.43 271.84C272.84 271.84 265.15 280.62 265.15 294.67L265.15 294.73C265.15 308.84 272.84 317.62 285.43 317.62ZM294.45 360L349.61 272.63L336.17 272.63L280.95 360ZM285.43 307.57C280.53 307.57 277.80 303.03 277.80 294.73L277.80 294.67C277.80 286.44 280.53 281.89 285.43 281.89C290.27 281.89 292.94 286.44 292.94 294.67L292.94 294.73C292.94 303.03 290.27 307.57 285.43 307.57ZM345.19 360.79C357.72 360.79 365.41 352.01 365.41 337.90L365.41 337.84C365.41 323.79 357.72 315.01 345.19 315.01C332.60 315.01 324.91 323.79 324.91 337.84L324.91 337.90C324.91 352.01 332.60 360.79 345.19 360.79ZM345.19 350.74C340.29 350.74 337.56 346.20 337.56 337.90L337.56 337.84C337.56 329.61 340.29 325.06 345.19 325.06C350.03 325.06 352.70 329.61 352.70 337.84L352.70 337.90C352.70 346.20 350.03 350.74 345.19 350.74Z" fill="#FFFEFE" opacity="0.5"/>
</svg>
