
<svg xmlns="http://www.w3.org/2000/svg" viewBox="0 0 1080 1350" width="1080" height="1350">
  <rect width="1080" height="1350" fill="#98D8C8"/>
  
  <!-- Background circle with opacity -->
  <circle opacity="0.12" cx="750.5" cy="1000.5" r="186.692" 
    fill="none"
    stroke="#000000" 
    stroke-width="85.6166"/>
  
  <!-- Progress arc -->
  <path d="M750.5 813.808 A186.692 186.692 0 0 1 914.099446710749 910.5604430746025" 
    fill="none"
    stroke="#3A6351" 
    stroke-width="85.6166" 
    stroke-linecap="round" 
    stroke-linejoin="round"/>
  
  <path d="M111.18 220L174.69 220L174.69 205.47L135.09 205.47L135.09 204.74L153.38 188.03C168.45 174.17 173.48 167.26 173.48 156.67L173.48 156.55C173.48 141.65 160.76 131.12 142.30 131.12C123.83 131.12 110.15 142.68 110.15 159.15L110.15 159.63L127.10 159.63L127.16 159.09C127.40 151.22 133.46 145.35 142.42 145.35C150.17 145.35 155.62 150.43 155.68 157.58L155.68 157.70C155.68 163.75 153.32 168.05 142.05 178.59L111.18 207.47ZM220.46 221.51C242.62 221.51 256.06 204.14 256.06 176.35L256.06 176.22C256.06 148.43 242.62 131.12 220.46 131.12C198.30 131.12 184.86 148.43 184.86 176.22L184.86 176.35C184.86 204.14 198.30 221.51 220.46 221.51ZM220.46 206.86C209.56 206.86 203.33 195.54 203.33 176.35L203.33 176.22C203.33 157.03 209.56 145.77 220.46 145.77C231.36 145.77 237.60 157.03 237.60 176.22L237.60 176.35C237.60 195.54 231.36 206.86 220.46 206.86ZM267.27 220L330.78 220L330.78 205.47L291.18 205.47L291.18 204.74L309.47 188.03C324.54 174.17 329.57 167.26 329.57 156.67L329.57 156.55C329.57 141.65 316.85 131.12 298.39 131.12C279.92 131.12 266.24 142.68 266.24 159.15L266.24 159.63L283.19 159.63L283.25 159.09C283.49 151.22 289.55 145.35 298.51 145.35C306.26 145.35 311.71 150.43 311.77 157.58L311.77 157.70C311.77 163.75 309.41 168.05 298.14 178.59L267.27 207.47ZM377.28 221.51C396.71 221.51 410.94 208.80 410.94 190.94L410.94 190.82C410.94 174.47 399.38 162.48 382.49 162.48C370.68 162.48 362.08 168.41 358.63 176.53L358.27 176.53C358.27 175.62 358.33 174.41 358.39 173.20C359.05 157.76 364.63 145.59 377.40 145.59C384.54 145.59 389.39 149.16 391.57 154.43L391.75 154.97L409.79 154.97L409.67 154.37C407.07 140.87 394.35 131.12 377.46 131.12C354.70 131.12 340.83 148.31 340.83 176.95L340.83 177.07C340.83 206.68 356.21 221.51 377.28 221.51ZM361.05 191.36L361.05 191.24C361.05 182.34 368.08 175.98 377.22 175.98C386.30 175.98 393.14 182.40 393.14 191.48L393.14 191.60C393.14 200.20 385.94 206.98 377.04 206.98C368.08 206.98 361.05 200.14 361.05 191.36Z" fill="#FFFFFF"/>
    <path d="M133.03 360L151.14 360L151.14 272.63L132.97 272.63L110.39 288.31L110.39 304.54L132.67 289.40L133.03 289.40ZM175.23 360L194.43 360L230.88 287.34L230.88 272.63L168.39 272.63L168.39 287.16L212.83 287.16L212.83 287.53ZM260.85 317.62C273.38 317.62 281.07 308.84 281.07 294.73L281.07 294.67C281.07 280.62 273.38 271.84 260.85 271.84C248.25 271.84 240.56 280.62 240.56 294.67L240.56 294.73C240.56 308.84 248.25 317.62 260.85 317.62ZM269.87 360L325.03 272.63L311.59 272.63L256.37 360ZM260.85 307.57C255.94 307.57 253.22 303.03 253.22 294.73L253.22 294.67C253.22 286.44 255.94 281.89 260.85 281.89C265.69 281.89 268.36 286.44 268.36 294.67L268.36 294.73C268.36 303.03 265.69 307.57 260.85 307.57ZM320.61 360.79C333.14 360.79 340.83 352.01 340.83 337.90L340.83 337.84C340.83 323.79 333.14 315.01 320.61 315.01C308.01 315.01 300.32 323.79 300.32 337.84L300.32 337.90C300.32 352.01 308.01 360.79 320.61 360.79ZM320.61 350.74C315.70 350.74 312.98 346.20 312.98 337.90L312.98 337.84C312.98 329.61 315.70 325.06 320.61 325.06C325.45 325.06 328.12 329.61 328.12 337.84L328.12 337.90C328.12 346.20 325.45 350.74 320.61 350.74Z" fill="#FFFFFF" opacity="0.5"/>
</svg>
