
<svg xmlns="http://www.w3.org/2000/svg" viewBox="0 0 1080 1350" width="1080" height="1350">
  <rect width="1080" height="1350" fill="#FCFF62"/>
  
  <!-- Background circle with opacity -->
  <circle opacity="0.12" cx="750.5" cy="1000.5" r="186.692" 
    fill="none"
    stroke="#000000" 
    stroke-width="85.6166"/>
  
  <!-- Progress arc -->
  <path d="M750.5 813.808 A186.692 186.692 0 0 1 773.8987120405872 1185.7198778178024" 
    fill="none"
    stroke="#FF8617" 
    stroke-width="85.6166" 
    stroke-linecap="round" 
    stroke-linejoin="round"/>
  
  <path d="M111.18 220L174.69 220L174.69 205.47L135.09 205.47L135.09 204.74L153.38 188.03C168.45 174.17 173.48 167.26 173.48 156.67L173.48 156.55C173.48 141.65 160.76 131.12 142.30 131.12C123.83 131.12 110.15 142.68 110.15 159.15L110.15 159.63L127.10 159.63L127.16 159.09C127.40 151.22 133.46 145.35 142.42 145.35C150.17 145.35 155.62 150.43 155.68 157.58L155.68 157.70C155.68 163.75 153.32 168.05 142.05 178.59L111.18 207.47ZM220.46 221.51C242.62 221.51 256.06 204.14 256.06 176.35L256.06 176.22C256.06 148.43 242.62 131.12 220.46 131.12C198.30 131.12 184.86 148.43 184.86 176.22L184.86 176.35C184.86 204.14 198.30 221.51 220.46 221.51ZM220.46 206.86C209.56 206.86 203.33 195.54 203.33 176.35L203.33 176.22C203.33 157.03 209.56 145.77 220.46 145.77C231.36 145.77 237.60 157.03 237.60 176.22L237.60 176.35C237.60 195.54 231.36 206.86 220.46 206.86ZM267.27 220L330.78 220L330.78 205.47L291.18 205.47L291.18 204.74L309.47 188.03C324.54 174.17 329.57 167.26 329.57 156.67L329.57 156.55C329.57 141.65 316.85 131.12 298.39 131.12C279.92 131.12 266.24 142.68 266.24 159.15L266.24 159.63L283.19 159.63L283.25 159.09C283.49 151.22 289.55 145.35 298.51 145.35C306.26 145.35 311.71 150.43 311.77 157.58L311.77 157.70C311.77 163.75 309.41 168.05 298.14 178.59L267.27 207.47ZM375.58 221.51C395.56 221.51 409.37 209.10 409.37 190.82L409.37 190.70C409.37 174.23 397.38 162.30 380.79 162.30C371.95 162.30 364.75 165.87 361.11 171.74L360.75 171.74L362.87 147.16L404.10 147.16L404.10 132.63L348.34 132.63L344.34 183.91L360.27 183.91C361.29 182.10 362.69 180.40 364.44 179.07C367.41 176.71 371.22 175.38 375.71 175.38C385.15 175.38 391.87 181.86 391.93 191.06L391.93 191.18C391.93 200.50 385.21 207.04 375.64 207.04C367.23 207.04 361.11 201.96 359.84 195.36L359.72 194.93L342.83 194.93L342.89 195.84C343.98 210.43 356.57 221.51 375.58 221.51Z" fill="#FF7A00"/>
    <path d="M115.72 360L134.91 360L171.36 287.34L171.36 272.63L108.88 272.63L108.88 287.16L153.32 287.16L153.32 287.53ZM182.14 360L245.65 360L245.65 345.47L206.05 345.47L206.05 344.74L224.34 328.03C239.41 314.17 244.44 307.26 244.44 296.67L244.44 296.55C244.44 281.65 231.72 271.12 213.26 271.12C194.79 271.12 181.11 282.68 181.11 299.15L181.11 299.63L198.06 299.63L198.12 299.09C198.36 291.22 204.42 285.35 213.38 285.35C221.13 285.35 226.58 290.43 226.64 297.58L226.64 297.70C226.64 303.75 224.28 308.05 213.02 318.59L182.14 347.47ZM276.11 317.62C288.64 317.62 296.33 308.84 296.33 294.73L296.33 294.67C296.33 280.62 288.64 271.84 276.11 271.84C263.51 271.84 255.82 280.62 255.82 294.67L255.82 294.73C255.82 308.84 263.51 317.62 276.11 317.62ZM285.13 360L340.29 272.63L326.84 272.63L271.63 360ZM276.11 307.57C271.20 307.57 268.48 303.03 268.48 294.73L268.48 294.67C268.48 286.44 271.20 281.89 276.11 281.89C280.95 281.89 283.61 286.44 283.61 294.67L283.61 294.73C283.61 303.03 280.95 307.57 276.11 307.57ZM335.87 360.79C348.40 360.79 356.09 352.01 356.09 337.90L356.09 337.84C356.09 323.79 348.40 315.01 335.87 315.01C323.27 315.01 315.58 323.79 315.58 337.84L315.58 337.90C315.58 352.01 323.27 360.79 335.87 360.79ZM335.87 350.74C330.96 350.74 328.24 346.20 328.24 337.90L328.24 337.84C328.24 329.61 330.96 325.06 335.87 325.06C340.71 325.06 343.37 329.61 343.37 337.84L343.37 337.90C343.37 346.20 340.71 350.74 335.87 350.74Z" fill="#FF7A00" opacity="0.5"/>
</svg>
