
<svg xmlns="http://www.w3.org/2000/svg" viewBox="0 0 1080 1350" width="1080" height="1350">
  <rect width="1080" height="1350" fill="#FFE881"/>
  
  <!-- Background circle with opacity -->
  <circle opacity="0.12" cx="750.5" cy="1000.5" r="186.692" 
    fill="none"
    stroke="#000000" 
    stroke-width="85.6166"/>
  
  <!-- Progress arc -->
  <path d="M750.5 813.808 A186.692 186.692 0 0 1 936.8236059837309 1012.2224876719666" 
    fill="none"
    stroke="#0B600F" 
    stroke-width="85.6166" 
    stroke-linecap="round" 
    stroke-linejoin="round"/>
  
  <path d="M111.18 220L174.69 220L174.69 205.47L135.09 205.47L135.09 204.74L153.38 188.03C168.45 174.17 173.48 167.26 173.48 156.67L173.48 156.55C173.48 141.65 160.76 131.12 142.30 131.12C123.83 131.12 110.15 142.68 110.15 159.15L110.15 159.63L127.10 159.63L127.16 159.09C127.40 151.22 133.46 145.35 142.42 145.35C150.17 145.35 155.62 150.43 155.68 157.58L155.68 157.70C155.68 163.75 153.32 168.05 142.05 178.59L111.18 207.47ZM220.46 221.51C242.62 221.51 256.06 204.14 256.06 176.35L256.06 176.22C256.06 148.43 242.62 131.12 220.46 131.12C198.30 131.12 184.86 148.43 184.86 176.22L184.86 176.35C184.86 204.14 198.30 221.51 220.46 221.51ZM220.46 206.86C209.56 206.86 203.33 195.54 203.33 176.35L203.33 176.22C203.33 157.03 209.56 145.77 220.46 145.77C231.36 145.77 237.60 157.03 237.60 176.22L237.60 176.35C237.60 195.54 231.36 206.86 220.46 206.86ZM267.27 220L330.78 220L330.78 205.47L291.18 205.47L291.18 204.74L309.47 188.03C324.54 174.17 329.57 167.26 329.57 156.67L329.57 156.55C329.57 141.65 316.85 131.12 298.39 131.12C279.92 131.12 266.24 142.68 266.24 159.15L266.24 159.63L283.19 159.63L283.25 159.09C283.49 151.22 289.55 145.35 298.51 145.35C306.26 145.35 311.71 150.43 311.77 157.58L311.77 157.70C311.77 163.75 309.41 168.05 298.14 178.59L267.27 207.47ZM377.28 221.51C396.71 221.51 410.94 208.80 410.94 190.94L410.94 190.82C410.94 174.47 399.38 162.48 382.49 162.48C370.68 162.48 362.08 168.41 358.63 176.53L358.27 176.53C358.27 175.62 358.33 174.41 358.39 173.20C359.05 157.76 364.63 145.59 377.40 145.59C384.54 145.59 389.39 149.16 391.57 154.43L391.75 154.97L409.79 154.97L409.67 154.37C407.07 140.87 394.35 131.12 377.46 131.12C354.70 131.12 340.83 148.31 340.83 176.95L340.83 177.07C340.83 206.68 356.21 221.51 377.28 221.51ZM361.05 191.36L361.05 191.24C361.05 182.34 368.08 175.98 377.22 175.98C386.30 175.98 393.14 182.40 393.14 191.48L393.14 191.60C393.14 200.20 385.94 206.98 377.04 206.98C368.08 206.98 361.05 200.14 361.05 191.36Z" fill="#184D0F"/>
    <path d="M111.18 360L174.69 360L174.69 345.47L135.09 345.47L135.09 344.74L153.38 328.03C168.45 314.17 173.48 307.26 173.48 296.67L173.48 296.55C173.48 281.65 160.76 271.12 142.30 271.12C123.83 271.12 110.15 282.68 110.15 299.15L110.15 299.63L127.10 299.63L127.16 299.09C127.40 291.22 133.46 285.35 142.42 285.35C150.17 285.35 155.62 290.43 155.68 297.58L155.68 297.70C155.68 303.75 153.32 308.05 142.05 318.59L111.18 347.47ZM221.19 361.51C240.63 361.51 254.85 348.80 254.85 330.94L254.85 330.82C254.85 314.47 243.29 302.48 226.40 302.48C214.59 302.48 205.99 308.41 202.54 316.53L202.18 316.53C202.18 315.62 202.24 314.41 202.30 313.20C202.96 297.76 208.54 285.59 221.31 285.59C228.46 285.59 233.30 289.16 235.48 294.43L235.66 294.97L253.70 294.97L253.58 294.37C250.98 280.87 238.26 271.12 221.37 271.12C198.61 271.12 184.74 288.31 184.74 316.95L184.74 317.07C184.74 346.68 200.12 361.51 221.19 361.51ZM204.96 331.36L204.96 331.24C204.96 322.34 211.99 315.98 221.13 315.98C230.21 315.98 237.05 322.40 237.05 331.48L237.05 331.60C237.05 340.20 229.85 346.98 220.95 346.98C211.99 346.98 204.96 340.14 204.96 331.36ZM286.04 317.62C298.57 317.62 306.26 308.84 306.26 294.73L306.26 294.67C306.26 280.62 298.57 271.84 286.04 271.84C273.44 271.84 265.75 280.62 265.75 294.67L265.75 294.73C265.75 308.84 273.44 317.62 286.04 317.62ZM295.06 360L350.21 272.63L336.77 272.63L281.55 360ZM286.04 307.57C281.13 307.57 278.41 303.03 278.41 294.73L278.41 294.67C278.41 286.44 281.13 281.89 286.04 281.89C290.88 281.89 293.54 286.44 293.54 294.67L293.54 294.73C293.54 303.03 290.88 307.57 286.04 307.57ZM345.79 360.79C358.33 360.79 366.02 352.01 366.02 337.90L366.02 337.84C366.02 323.79 358.33 315.01 345.79 315.01C333.20 315.01 325.51 323.79 325.51 337.84L325.51 337.90C325.51 352.01 333.20 360.79 345.79 360.79ZM345.79 350.74C340.89 350.74 338.17 346.20 338.17 337.90L338.17 337.84C338.17 329.61 340.89 325.06 345.79 325.06C350.64 325.06 353.30 329.61 353.30 337.84L353.30 337.90C353.30 346.20 350.64 350.74 345.79 350.74Z" fill="#184D0F" opacity="0.5"/>
</svg>
