
<svg xmlns="http://www.w3.org/2000/svg" viewBox="0 0 1080 1350" width="1080" height="1350">
  <rect width="1080" height="1350" fill="#D3D3D3"/>
  
  <!-- Background circle with opacity -->
  <circle opacity="0.12" cx="750.5" cy="1000.5" r="186.692" 
    fill="none"
    stroke="#000000" 
    stroke-width="85.6166"/>
  
  <!-- Progress arc -->
  <path d="M750.5 813.808 A186.692 186.692 0 0 1 781.6343908619226 1184.5775721527666" 
    fill="none"
    stroke="#046307" 
    stroke-width="85.6166" 
    stroke-linecap="round" 
    stroke-linejoin="round"/>
  
  <path d="M111.18 220L174.69 220L174.69 205.47L135.09 205.47L135.09 204.74L153.38 188.03C168.45 174.17 173.48 167.26 173.48 156.67L173.48 156.55C173.48 141.65 160.76 131.12 142.30 131.12C123.83 131.12 110.15 142.68 110.15 159.15L110.15 159.63L127.10 159.63L127.16 159.09C127.40 151.22 133.46 145.35 142.42 145.35C150.17 145.35 155.62 150.43 155.68 157.58L155.68 157.70C155.68 163.75 153.32 168.05 142.05 178.59L111.18 207.47ZM220.46 221.51C242.62 221.51 256.06 204.14 256.06 176.35L256.06 176.22C256.06 148.43 242.62 131.12 220.46 131.12C198.30 131.12 184.86 148.43 184.86 176.22L184.86 176.35C184.86 204.14 198.30 221.51 220.46 221.51ZM220.46 206.86C209.56 206.86 203.33 195.54 203.33 176.35L203.33 176.22C203.33 157.03 209.56 145.77 220.46 145.77C231.36 145.77 237.60 157.03 237.60 176.22L237.60 176.35C237.60 195.54 231.36 206.86 220.46 206.86ZM267.27 220L330.78 220L330.78 205.47L291.18 205.47L291.18 204.74L309.47 188.03C324.54 174.17 329.57 167.26 329.57 156.67L329.57 156.55C329.57 141.65 316.85 131.12 298.39 131.12C279.92 131.12 266.24 142.68 266.24 159.15L266.24 159.63L283.19 159.63L283.25 159.09C283.49 151.22 289.55 145.35 298.51 145.35C306.26 145.35 311.71 150.43 311.77 157.58L311.77 157.70C311.77 163.75 309.41 168.05 298.14 178.59L267.27 207.47ZM375.58 221.51C395.56 221.51 409.37 209.10 409.37 190.82L409.37 190.70C409.37 174.23 397.38 162.30 380.79 162.30C371.95 162.30 364.75 165.87 361.11 171.74L360.75 171.74L362.87 147.16L404.10 147.16L404.10 132.63L348.34 132.63L344.34 183.91L360.27 183.91C361.29 182.10 362.69 180.40 364.44 179.07C367.41 176.71 371.22 175.38 375.71 175.38C385.15 175.38 391.87 181.86 391.93 191.06L391.93 191.18C391.93 200.50 385.21 207.04 375.64 207.04C367.23 207.04 361.11 201.96 359.84 195.36L359.72 194.93L342.83 194.93L342.89 195.84C343.98 210.43 356.57 221.51 375.58 221.51Z" fill="#000000"/>
    <path d="M115.72 360L134.91 360L171.36 287.34L171.36 272.63L108.88 272.63L108.88 287.16L153.32 287.16L153.32 287.53ZM203.99 360L222.10 360L222.10 272.63L203.93 272.63L181.35 288.31L181.35 304.54L203.63 289.40L203.99 289.40ZM260.85 317.62C273.38 317.62 281.07 308.84 281.07 294.73L281.07 294.67C281.07 280.62 273.38 271.84 260.85 271.84C248.25 271.84 240.56 280.62 240.56 294.67L240.56 294.73C240.56 308.84 248.25 317.62 260.85 317.62ZM269.87 360L325.03 272.63L311.59 272.63L256.37 360ZM260.85 307.57C255.94 307.57 253.22 303.03 253.22 294.73L253.22 294.67C253.22 286.44 255.94 281.89 260.85 281.89C265.69 281.89 268.36 286.44 268.36 294.67L268.36 294.73C268.36 303.03 265.69 307.57 260.85 307.57ZM320.61 360.79C333.14 360.79 340.83 352.01 340.83 337.90L340.83 337.84C340.83 323.79 333.14 315.01 320.61 315.01C308.01 315.01 300.32 323.79 300.32 337.84L300.32 337.90C300.32 352.01 308.01 360.79 320.61 360.79ZM320.61 350.74C315.70 350.74 312.98 346.20 312.98 337.90L312.98 337.84C312.98 329.61 315.70 325.06 320.61 325.06C325.45 325.06 328.12 329.61 328.12 337.84L328.12 337.90C328.12 346.20 325.45 350.74 320.61 350.74Z" fill="#000000" opacity="0.5"/>
</svg>
