
<svg xmlns="http://www.w3.org/2000/svg" viewBox="0 0 1080 1350" width="1080" height="1350">
  <rect width="1080" height="1350" fill="#FFE456"/>
  
  <!-- Background circle with opacity -->
  <circle opacity="0.12" cx="750.5" cy="1000.5" r="186.692" 
    fill="none"
    stroke="#000000" 
    stroke-width="85.6166"/>
  
  <!-- Progress arc -->
  <path d="M750.5 813.808 A186.692 186.692 0 0 1 773.898712040587 815.2801221821975" 
    fill="none"
    stroke="#807EFF" 
    stroke-width="85.6166" 
    stroke-linecap="round" 
    stroke-linejoin="round"/>
  
  <path d="M111.18 220L174.69 220L174.69 205.47L135.09 205.47L135.09 204.74L153.38 188.03C168.45 174.17 173.48 167.26 173.48 156.67L173.48 156.55C173.48 141.65 160.76 131.12 142.30 131.12C123.83 131.12 110.15 142.68 110.15 159.15L110.15 159.63L127.10 159.63L127.16 159.09C127.40 151.22 133.46 145.35 142.42 145.35C150.17 145.35 155.62 150.43 155.68 157.58L155.68 157.70C155.68 163.75 153.32 168.05 142.05 178.59L111.18 207.47ZM220.46 221.51C242.62 221.51 256.06 204.14 256.06 176.35L256.06 176.22C256.06 148.43 242.62 131.12 220.46 131.12C198.30 131.12 184.86 148.43 184.86 176.22L184.86 176.35C184.86 204.14 198.30 221.51 220.46 221.51ZM220.46 206.86C209.56 206.86 203.33 195.54 203.33 176.35L203.33 176.22C203.33 157.03 209.56 145.77 220.46 145.77C231.36 145.77 237.60 157.03 237.60 176.22L237.60 176.35C237.60 195.54 231.36 206.86 220.46 206.86ZM267.27 220L330.78 220L330.78 205.47L291.18 205.47L291.18 204.74L309.47 188.03C324.54 174.17 329.57 167.26 329.57 156.67L329.57 156.55C329.57 141.65 316.85 131.12 298.39 131.12C279.92 131.12 266.24 142.68 266.24 159.15L266.24 159.63L283.19 159.63L283.25 159.09C283.49 151.22 289.55 145.35 298.51 145.35C306.26 145.35 311.71 150.43 311.77 157.58L311.77 157.70C311.77 163.75 309.41 168.05 298.14 178.59L267.27 207.47ZM377.28 221.51C396.71 221.51 410.94 208.80 410.94 190.94L410.94 190.82C410.94 174.47 399.38 162.48 382.49 162.48C370.68 162.48 362.08 168.41 358.63 176.53L358.27 176.53C358.27 175.62 358.33 174.41 358.39 173.20C359.05 157.76 364.63 145.59 377.40 145.59C384.54 145.59 389.39 149.16 391.57 154.43L391.75 154.97L409.79 154.97L409.67 154.37C407.07 140.87 394.35 131.12 377.46 131.12C354.70 131.12 340.83 148.31 340.83 176.95L340.83 177.07C340.83 206.68 356.21 221.51 377.28 221.51ZM361.05 191.36L361.05 191.24C361.05 182.34 368.08 175.98 377.22 175.98C386.30 175.98 393.14 182.40 393.14 191.48L393.14 191.60C393.14 200.20 385.94 206.98 377.04 206.98C368.08 206.98 361.05 200.14 361.05 191.36Z" fill="#A97EFF"/>
    <path d="M143.69 361.51C164.09 361.51 177.66 350.98 177.66 335.36L177.66 335.24C177.66 323.37 169.18 315.86 156.22 314.65L156.22 314.29C166.46 312.17 174.45 305.08 174.45 294.19L174.45 294.06C174.45 280.32 162.34 271.12 143.51 271.12C125.16 271.12 112.87 281.05 111.66 296.18L111.60 296.91L128.37 296.91L128.43 296.37C129.16 289.58 134.97 285.16 143.51 285.16C152.11 285.16 157.13 289.40 157.13 296.49L157.13 296.61C157.13 303.69 151.20 308.54 142.05 308.54L132.31 308.54L132.31 321.55L142.30 321.55C152.83 321.55 159.07 326.15 159.07 334.51L159.07 334.63C159.07 341.78 153.01 346.80 143.63 346.80C134.18 346.80 128.01 342.14 127.22 335.90L127.10 335.24L109.66 335.24L109.72 336.02C110.93 351.10 123.89 361.51 143.69 361.51ZM208.47 317.62C221.01 317.62 228.70 308.84 228.70 294.73L228.70 294.67C228.70 280.62 221.01 271.84 208.47 271.84C195.88 271.84 188.19 280.62 188.19 294.67L188.19 294.73C188.19 308.84 195.88 317.62 208.47 317.62ZM217.50 360L272.65 272.63L259.21 272.63L203.99 360ZM208.47 307.57C203.57 307.57 200.85 303.03 200.85 294.73L200.85 294.67C200.85 286.44 203.57 281.89 208.47 281.89C213.32 281.89 215.98 286.44 215.98 294.67L215.98 294.73C215.98 303.03 213.32 307.57 208.47 307.57ZM268.23 360.79C280.77 360.79 288.46 352.01 288.46 337.90L288.46 337.84C288.46 323.79 280.77 315.01 268.23 315.01C255.64 315.01 247.95 323.79 247.95 337.84L247.95 337.90C247.95 352.01 255.64 360.79 268.23 360.79ZM268.23 350.74C263.33 350.74 260.61 346.20 260.61 337.90L260.61 337.84C260.61 329.61 263.33 325.06 268.23 325.06C273.08 325.06 275.74 329.61 275.74 337.84L275.74 337.90C275.74 346.20 273.08 350.74 268.23 350.74Z" fill="#A97EFF" opacity="0.5"/>
</svg>
