
<svg xmlns="http://www.w3.org/2000/svg" viewBox="0 0 1080 1350" width="1080" height="1350">
  <rect width="1080" height="1350" fill="#170606"/>
  
  <!-- Background circle with opacity -->
  <circle opacity="0.12" cx="750.5" cy="1000.5" r="186.692" 
    fill="none"
    stroke="#FFFFFF" 
    stroke-width="85.6166"/>
  
  <!-- Progress arc -->
  <path d="M750.5 813.808 A186.692 186.692 0 0 1 796.9284124145811 819.6732724825736" 
    fill="none"
    stroke="#4D9DBF" 
    stroke-width="85.6166" 
    stroke-linecap="round" 
    stroke-linejoin="round"/>
  
  <path d="M111.18 220L174.69 220L174.69 205.47L135.09 205.47L135.09 204.74L153.38 188.03C168.45 174.17 173.48 167.26 173.48 156.67L173.48 156.55C173.48 141.65 160.76 131.12 142.30 131.12C123.83 131.12 110.15 142.68 110.15 159.15L110.15 159.63L127.10 159.63L127.16 159.09C127.40 151.22 133.46 145.35 142.42 145.35C150.17 145.35 155.62 150.43 155.68 157.58L155.68 157.70C155.68 163.75 153.32 168.05 142.05 178.59L111.18 207.47ZM220.46 221.51C242.62 221.51 256.06 204.14 256.06 176.35L256.06 176.22C256.06 148.43 242.62 131.12 220.46 131.12C198.30 131.12 184.86 148.43 184.86 176.22L184.86 176.35C184.86 204.14 198.30 221.51 220.46 221.51ZM220.46 206.86C209.56 206.86 203.33 195.54 203.33 176.35L203.33 176.22C203.33 157.03 209.56 145.77 220.46 145.77C231.36 145.77 237.60 157.03 237.60 176.22L237.60 176.35C237.60 195.54 231.36 206.86 220.46 206.86ZM267.27 220L330.78 220L330.78 205.47L291.18 205.47L291.18 204.74L309.47 188.03C324.54 174.17 329.57 167.26 329.57 156.67L329.57 156.55C329.57 141.65 316.85 131.12 298.39 131.12C279.92 131.12 266.24 142.68 266.24 159.15L266.24 159.63L283.19 159.63L283.25 159.09C283.49 151.22 289.55 145.35 298.51 145.35C306.26 145.35 311.71 150.43 311.77 157.58L311.77 157.70C311.77 163.75 309.41 168.05 298.14 178.59L267.27 207.47ZM377.28 221.51C396.71 221.51 410.94 208.80 410.94 190.94L410.94 190.82C410.94 174.47 399.38 162.48 382.49 162.48C370.68 162.48 362.08 168.41 358.63 176.53L358.27 176.53C358.27 175.62 358.33 174.41 358.39 173.20C359.05 157.76 364.63 145.59 377.40 145.59C384.54 145.59 389.39 149.16 391.57 154.43L391.75 154.97L409.79 154.97L409.67 154.37C407.07 140.87 394.35 131.12 377.46 131.12C354.70 131.12 340.83 148.31 340.83 176.95L340.83 177.07C340.83 206.68 356.21 221.51 377.28 221.51ZM361.05 191.36L361.05 191.24C361.05 182.34 368.08 175.98 377.22 175.98C386.30 175.98 393.14 182.40 393.14 191.48L393.14 191.60C393.14 200.20 385.94 206.98 377.04 206.98C368.08 206.98 361.05 200.14 361.05 191.36Z" fill="#4D9DBF"/>
    <path d="M146.41 361.51C165.85 361.51 180.08 348.80 180.08 330.94L180.08 330.82C180.08 314.47 168.51 302.48 151.62 302.48C139.81 302.48 131.22 308.41 127.77 316.53L127.40 316.53C127.40 315.62 127.46 314.41 127.52 313.20C128.19 297.76 133.76 285.59 146.54 285.59C153.68 285.59 158.52 289.16 160.70 294.43L160.88 294.97L178.93 294.97L178.81 294.37C176.20 280.87 163.49 271.12 146.60 271.12C123.83 271.12 109.96 288.31 109.96 316.95L109.96 317.07C109.96 346.68 125.34 361.51 146.41 361.51ZM130.19 331.36L130.19 331.24C130.19 322.34 137.21 315.98 146.35 315.98C155.44 315.98 162.28 322.40 162.28 331.48L162.28 331.60C162.28 340.20 155.07 346.98 146.17 346.98C137.21 346.98 130.19 340.14 130.19 331.36ZM211.26 317.62C223.79 317.62 231.48 308.84 231.48 294.73L231.48 294.67C231.48 280.62 223.79 271.84 211.26 271.84C198.67 271.84 190.98 280.62 190.98 294.67L190.98 294.73C190.98 308.84 198.67 317.62 211.26 317.62ZM220.28 360L275.44 272.63L262.00 272.63L206.78 360ZM211.26 307.57C206.36 307.57 203.63 303.03 203.63 294.73L203.63 294.67C203.63 286.44 206.36 281.89 211.26 281.89C216.10 281.89 218.77 286.44 218.77 294.67L218.77 294.73C218.77 303.03 216.10 307.57 211.26 307.57ZM271.02 360.79C283.55 360.79 291.24 352.01 291.24 337.90L291.24 337.84C291.24 323.79 283.55 315.01 271.02 315.01C258.43 315.01 250.74 323.79 250.74 337.84L250.74 337.90C250.74 352.01 258.43 360.79 271.02 360.79ZM271.02 350.74C266.12 350.74 263.39 346.20 263.39 337.90L263.39 337.84C263.39 329.61 266.12 325.06 271.02 325.06C275.86 325.06 278.53 329.61 278.53 337.84L278.53 337.90C278.53 346.20 275.86 350.74 271.02 350.74Z" fill="#4D9DBF" opacity="0.5"/>
</svg>
