
<svg xmlns="http://www.w3.org/2000/svg" viewBox="0 0 1080 1350" width="1080" height="1350">
  <rect width="1080" height="1350" fill="#FF69B4"/>
  
  <!-- Background circle with opacity -->
  <circle opacity="0.12" cx="750.5" cy="1000.5" r="186.692" 
    fill="none"
    stroke="#00964b" 
    stroke-width="85.6166"/>
  
  <!-- Progress arc -->
  <path d="M750.5 813.808 A186.692 186.692 0 0 1 860.2348043209864 849.4629992861524" 
    fill="none"
    stroke="#111111" 
    stroke-width="85.6166" 
    stroke-linecap="round" 
    stroke-linejoin="round"/>
  
  <path d="M111.18 220L174.69 220L174.69 205.47L135.09 205.47L135.09 204.74L153.38 188.03C168.45 174.17 173.48 167.26 173.48 156.67L173.48 156.55C173.48 141.65 160.76 131.12 142.30 131.12C123.83 131.12 110.15 142.68 110.15 159.15L110.15 159.63L127.10 159.63L127.16 159.09C127.40 151.22 133.46 145.35 142.42 145.35C150.17 145.35 155.62 150.43 155.68 157.58L155.68 157.70C155.68 163.75 153.32 168.05 142.05 178.59L111.18 207.47ZM220.46 221.51C242.62 221.51 256.06 204.14 256.06 176.35L256.06 176.22C256.06 148.43 242.62 131.12 220.46 131.12C198.30 131.12 184.86 148.43 184.86 176.22L184.86 176.35C184.86 204.14 198.30 221.51 220.46 221.51ZM220.46 206.86C209.56 206.86 203.33 195.54 203.33 176.35L203.33 176.22C203.33 157.03 209.56 145.77 220.46 145.77C231.36 145.77 237.60 157.03 237.60 176.22L237.60 176.35C237.60 195.54 231.36 206.86 220.46 206.86ZM267.27 220L330.78 220L330.78 205.47L291.18 205.47L291.18 204.74L309.47 188.03C324.54 174.17 329.57 167.26 329.57 156.67L329.57 156.55C329.57 141.65 316.85 131.12 298.39 131.12C279.92 131.12 266.24 142.68 266.24 159.15L266.24 159.63L283.19 159.63L283.25 159.09C283.49 151.22 289.55 145.35 298.51 145.35C306.26 145.35 311.71 150.43 311.77 157.58L311.77 157.70C311.77 163.75 309.41 168.05 298.14 178.59L267.27 207.47ZM377.28 221.51C396.71 221.51 410.94 208.80 410.94 190.94L410.94 190.82C410.94 174.47 399.38 162.48 382.49 162.48C370.68 162.48 362.08 168.41 358.63 176.53L358.27 176.53C358.27 175.62 358.33 174.41 358.39 173.20C359.05 157.76 364.63 145.59 377.40 145.59C384.54 145.59 389.39 149.16 391.57 154.43L391.75 154.97L409.79 154.97L409.67 154.37C407.07 140.87 394.35 131.12 377.46 131.12C354.70 131.12 340.83 148.31 340.83 176.95L340.83 177.07C340.83 206.68 356.21 221.51 377.28 221.51ZM361.05 191.36L361.05 191.24C361.05 182.34 368.08 175.98 377.22 175.98C386.30 175.98 393.14 182.40 393.14 191.48L393.14 191.60C393.14 200.20 385.94 206.98 377.04 206.98C368.08 206.98 361.05 200.14 361.05 191.36Z" fill="#000000"/>
    <path d="M133.03 360L151.14 360L151.14 272.63L132.97 272.63L110.39 288.31L110.39 304.54L132.67 289.40L133.03 289.40ZM205.21 361.51C227.37 361.51 240.81 344.14 240.81 316.35L240.81 316.22C240.81 288.43 227.37 271.12 205.21 271.12C183.04 271.12 169.60 288.43 169.60 316.22L169.60 316.35C169.60 344.14 183.04 361.51 205.21 361.51ZM205.21 346.86C194.31 346.86 188.07 335.54 188.07 316.35L188.07 316.22C188.07 297.03 194.31 285.77 205.21 285.77C216.10 285.77 222.34 297.03 222.34 316.22L222.34 316.35C222.34 335.54 216.10 346.86 205.21 346.86ZM271.20 317.62C283.73 317.62 291.42 308.84 291.42 294.73L291.42 294.67C291.42 280.62 283.73 271.84 271.20 271.84C258.61 271.84 250.92 280.62 250.92 294.67L250.92 294.73C250.92 308.84 258.61 317.62 271.20 317.62ZM280.22 360L335.38 272.63L321.94 272.63L266.72 360ZM271.20 307.57C266.30 307.57 263.57 303.03 263.57 294.73L263.57 294.67C263.57 286.44 266.30 281.89 271.20 281.89C276.04 281.89 278.71 286.44 278.71 294.67L278.71 294.73C278.71 303.03 276.04 307.57 271.20 307.57ZM330.96 360.79C343.49 360.79 351.18 352.01 351.18 337.90L351.18 337.84C351.18 323.79 343.49 315.01 330.96 315.01C318.37 315.01 310.68 323.79 310.68 337.84L310.68 337.90C310.68 352.01 318.37 360.79 330.96 360.79ZM330.96 350.74C326.06 350.74 323.33 346.20 323.33 337.90L323.33 337.84C323.33 329.61 326.06 325.06 330.96 325.06C335.80 325.06 338.47 329.61 338.47 337.84L338.47 337.90C338.47 346.20 335.80 350.74 330.96 350.74Z" fill="#000000" opacity="0.5"/>
</svg>
