
<svg xmlns="http://www.w3.org/2000/svg" viewBox="0 0 1080 1350" width="1080" height="1350">
  <rect width="1080" height="1350" fill="#9FFFF9"/>
  
  <!-- Background circle with opacity -->
  <circle opacity="0.12" cx="750.5" cy="1000.5" r="186.692" 
    fill="none"
    stroke="#000000" 
    stroke-width="85.6166"/>
  
  <!-- Progress arc -->
  <path d="M750.5 813.808 A186.692 186.692 0 1 1 689.1032279870805 1176.8075133123757" 
    fill="none"
    stroke="#3D1FA8" 
    stroke-width="85.6166" 
    stroke-linecap="round" 
    stroke-linejoin="round"/>
  
  <path d="M111.18 220L174.69 220L174.69 205.47L135.09 205.47L135.09 204.74L153.38 188.03C168.45 174.17 173.48 167.26 173.48 156.67L173.48 156.55C173.48 141.65 160.76 131.12 142.30 131.12C123.83 131.12 110.15 142.68 110.15 159.15L110.15 159.63L127.10 159.63L127.16 159.09C127.40 151.22 133.46 145.35 142.42 145.35C150.17 145.35 155.62 150.43 155.68 157.58L155.68 157.70C155.68 163.75 153.32 168.05 142.05 178.59L111.18 207.47ZM220.46 221.51C242.62 221.51 256.06 204.14 256.06 176.35L256.06 176.22C256.06 148.43 242.62 131.12 220.46 131.12C198.30 131.12 184.86 148.43 184.86 176.22L184.86 176.35C184.86 204.14 198.30 221.51 220.46 221.51ZM220.46 206.86C209.56 206.86 203.33 195.54 203.33 176.35L203.33 176.22C203.33 157.03 209.56 145.77 220.46 145.77C231.36 145.77 237.60 157.03 237.60 176.22L237.60 176.35C237.60 195.54 231.36 206.86 220.46 206.86ZM267.27 220L330.78 220L330.78 205.47L291.18 205.47L291.18 204.74L309.47 188.03C324.54 174.17 329.57 167.26 329.57 156.67L329.57 156.55C329.57 141.65 316.85 131.12 298.39 131.12C279.92 131.12 266.24 142.68 266.24 159.15L266.24 159.63L283.19 159.63L283.25 159.09C283.49 151.22 289.55 145.35 298.51 145.35C306.26 145.35 311.71 150.43 311.77 157.58L311.77 157.70C311.77 163.75 309.41 168.05 298.14 178.59L267.27 207.47ZM375.58 221.51C395.56 221.51 409.37 209.10 409.37 190.82L409.37 190.70C409.37 174.23 397.38 162.30 380.79 162.30C371.95 162.30 364.75 165.87 361.11 171.74L360.75 171.74L362.87 147.16L404.10 147.16L404.10 132.63L348.34 132.63L344.34 183.91L360.27 183.91C361.29 182.10 362.69 180.40 364.44 179.07C367.41 176.71 371.22 175.38 375.71 175.38C385.15 175.38 391.87 181.86 391.93 191.06L391.93 191.18C391.93 200.50 385.21 207.04 375.64 207.04C367.23 207.04 361.11 201.96 359.84 195.36L359.72 194.93L342.83 194.93L342.89 195.84C343.98 210.43 356.57 221.51 375.58 221.51Z" fill="#3D1FA8"/>
    <path d="M145.26 361.51C166.09 361.51 180.44 351.16 180.44 336.14L180.44 336.02C180.44 324.70 172.03 316.35 160.34 314.04L160.34 313.68C170.39 311.20 177.29 303.87 177.29 294.55L177.29 294.43C177.29 280.93 164.09 271.12 145.26 271.12C126.37 271.12 113.23 280.93 113.23 294.43L113.23 294.55C113.23 303.87 120.08 311.20 130.19 313.68L130.19 314.04C118.44 316.35 110.03 324.70 110.03 336.02L110.03 336.14C110.03 351.16 124.44 361.51 145.26 361.51ZM145.26 308.17C137.03 308.17 131.28 303.27 131.28 296.24L131.28 296.12C131.28 289.16 137.09 284.32 145.26 284.32C153.44 284.32 159.19 289.16 159.19 296.12L159.19 296.24C159.19 303.27 153.50 308.17 145.26 308.17ZM145.26 348.19C135.70 348.19 128.98 342.62 128.98 334.93L128.98 334.81C128.98 327.06 135.64 321.43 145.26 321.43C154.89 321.43 161.49 327.06 161.49 334.81L161.49 334.93C161.49 342.62 154.77 348.19 145.26 348.19ZM224.16 361.51C244.56 361.51 258.12 350.98 258.12 335.36L258.12 335.24C258.12 323.37 249.65 315.86 236.69 314.65L236.69 314.29C246.92 312.17 254.91 305.08 254.91 294.19L254.91 294.06C254.91 280.32 242.80 271.12 223.97 271.12C205.63 271.12 193.34 281.05 192.13 296.18L192.07 296.91L208.84 296.91L208.90 296.37C209.63 289.58 215.44 285.16 223.97 285.16C232.57 285.16 237.60 289.40 237.60 296.49L237.60 296.61C237.60 303.69 231.66 308.54 222.52 308.54L212.77 308.54L212.77 321.55L222.76 321.55C233.30 321.55 239.54 326.15 239.54 334.51L239.54 334.63C239.54 341.78 233.48 346.80 224.10 346.80C214.65 346.80 208.47 342.14 207.69 335.90L207.57 335.24L190.13 335.24L190.19 336.02C191.40 351.10 204.36 361.51 224.16 361.51ZM288.94 317.62C301.47 317.62 309.16 308.84 309.16 294.73L309.16 294.67C309.16 280.62 301.47 271.84 288.94 271.84C276.35 271.84 268.66 280.62 268.66 294.67L268.66 294.73C268.66 308.84 276.35 317.62 288.94 317.62ZM297.96 360L353.12 272.63L339.68 272.63L284.46 360ZM288.94 307.57C284.04 307.57 281.31 303.03 281.31 294.73L281.31 294.67C281.31 286.44 284.04 281.89 288.94 281.89C293.79 281.89 296.45 286.44 296.45 294.67L296.45 294.73C296.45 303.03 293.79 307.57 288.94 307.57ZM348.70 360.79C361.23 360.79 368.92 352.01 368.92 337.90L368.92 337.84C368.92 323.79 361.23 315.01 348.70 315.01C336.11 315.01 328.42 323.79 328.42 337.84L328.42 337.90C328.42 352.01 336.11 360.79 348.70 360.79ZM348.70 350.74C343.80 350.74 341.07 346.20 341.07 337.90L341.07 337.84C341.07 329.61 343.80 325.06 348.70 325.06C353.54 325.06 356.21 329.61 356.21 337.84L356.21 337.90C356.21 346.20 353.54 350.74 348.70 350.74Z" fill="#3D1FA8" opacity="0.5"/>
</svg>
