
<svg xmlns="http://www.w3.org/2000/svg" viewBox="0 0 1080 1350" width="1080" height="1350">
  <rect width="1080" height="1350" fill="#008080"/>
  
  <!-- Background circle with opacity -->
  <circle opacity="0.12" cx="750.5" cy="1000.5" r="186.692" 
    fill="none"
    stroke="#FFFFFF" 
    stroke-width="85.6166"/>
  
  <!-- Progress arc -->
  <path d="M750.5 813.808 A186.692 186.692 0 0 1 886.5926109905581 872.7005316999613" 
    fill="none"
    stroke="#FFBF00" 
    stroke-width="85.6166" 
    stroke-linecap="round" 
    stroke-linejoin="round"/>
  
  <path d="M111.18 220L174.69 220L174.69 205.47L135.09 205.47L135.09 204.74L153.38 188.03C168.45 174.17 173.48 167.26 173.48 156.67L173.48 156.55C173.48 141.65 160.76 131.12 142.30 131.12C123.83 131.12 110.15 142.68 110.15 159.15L110.15 159.63L127.10 159.63L127.16 159.09C127.40 151.22 133.46 145.35 142.42 145.35C150.17 145.35 155.62 150.43 155.68 157.58L155.68 157.70C155.68 163.75 153.32 168.05 142.05 178.59L111.18 207.47ZM220.46 221.51C242.62 221.51 256.06 204.14 256.06 176.35L256.06 176.22C256.06 148.43 242.62 131.12 220.46 131.12C198.30 131.12 184.86 148.43 184.86 176.22L184.86 176.35C184.86 204.14 198.30 221.51 220.46 221.51ZM220.46 206.86C209.56 206.86 203.33 195.54 203.33 176.35L203.33 176.22C203.33 157.03 209.56 145.77 220.46 145.77C231.36 145.77 237.60 157.03 237.60 176.22L237.60 176.35C237.60 195.54 231.36 206.86 220.46 206.86ZM267.27 220L330.78 220L330.78 205.47L291.18 205.47L291.18 204.74L309.47 188.03C324.54 174.17 329.57 167.26 329.57 156.67L329.57 156.55C329.57 141.65 316.85 131.12 298.39 131.12C279.92 131.12 266.24 142.68 266.24 159.15L266.24 159.63L283.19 159.63L283.25 159.09C283.49 151.22 289.55 145.35 298.51 145.35C306.26 145.35 311.71 150.43 311.77 157.58L311.77 157.70C311.77 163.75 309.41 168.05 298.14 178.59L267.27 207.47ZM377.28 221.51C396.71 221.51 410.94 208.80 410.94 190.94L410.94 190.82C410.94 174.47 399.38 162.48 382.49 162.48C370.68 162.48 362.08 168.41 358.63 176.53L358.27 176.53C358.27 175.62 358.33 174.41 358.39 173.20C359.05 157.76 364.63 145.59 377.40 145.59C384.54 145.59 389.39 149.16 391.57 154.43L391.75 154.97L409.79 154.97L409.67 154.37C407.07 140.87 394.35 131.12 377.46 131.12C354.70 131.12 340.83 148.31 340.83 176.95L340.83 177.07C340.83 206.68 356.21 221.51 377.28 221.51ZM361.05 191.36L361.05 191.24C361.05 182.34 368.08 175.98 377.22 175.98C386.30 175.98 393.14 182.40 393.14 191.48L393.14 191.60C393.14 200.20 385.94 206.98 377.04 206.98C368.08 206.98 361.05 200.14 361.05 191.36Z" fill="#FFBF00"/>
    <path d="M133.03 360L151.14 360L151.14 272.63L132.97 272.63L110.39 288.31L110.39 304.54L132.67 289.40L133.03 289.40ZM203.21 361.51C223.61 361.51 237.17 350.98 237.17 335.36L237.17 335.24C237.17 323.37 228.70 315.86 215.74 314.65L215.74 314.29C225.97 312.17 233.96 305.08 233.96 294.19L233.96 294.06C233.96 280.32 221.86 271.12 203.03 271.12C184.68 271.12 172.39 281.05 171.18 296.18L171.12 296.91L187.89 296.91L187.95 296.37C188.68 289.58 194.49 285.16 203.03 285.16C211.62 285.16 216.65 289.40 216.65 296.49L216.65 296.61C216.65 303.69 210.71 308.54 201.57 308.54L191.82 308.54L191.82 321.55L201.81 321.55C212.35 321.55 218.59 326.15 218.59 334.51L218.59 334.63C218.59 341.78 212.53 346.80 203.15 346.80C193.70 346.80 187.53 342.14 186.74 335.90L186.62 335.24L169.18 335.24L169.24 336.02C170.45 351.10 183.41 361.51 203.21 361.51ZM267.99 317.62C280.53 317.62 288.21 308.84 288.21 294.73L288.21 294.67C288.21 280.62 280.53 271.84 267.99 271.84C255.40 271.84 247.71 280.62 247.71 294.67L247.71 294.73C247.71 308.84 255.40 317.62 267.99 317.62ZM277.01 360L332.17 272.63L318.73 272.63L263.51 360ZM267.99 307.57C263.09 307.57 260.36 303.03 260.36 294.73L260.36 294.67C260.36 286.44 263.09 281.89 267.99 281.89C272.84 281.89 275.50 286.44 275.50 294.67L275.50 294.73C275.50 303.03 272.84 307.57 267.99 307.57ZM327.75 360.79C340.29 360.79 347.97 352.01 347.97 337.90L347.97 337.84C347.97 323.79 340.29 315.01 327.75 315.01C315.16 315.01 307.47 323.79 307.47 337.84L307.47 337.90C307.47 352.01 315.16 360.79 327.75 360.79ZM327.75 350.74C322.85 350.74 320.12 346.20 320.12 337.90L320.12 337.84C320.12 329.61 322.85 325.06 327.75 325.06C332.60 325.06 335.26 329.61 335.26 337.84L335.26 337.90C335.26 346.20 332.60 350.74 327.75 350.74Z" fill="#FFBF00" opacity="0.5"/>
</svg>
