
<svg xmlns="http://www.w3.org/2000/svg" viewBox="0 0 1080 1350" width="1080" height="1350">
  <rect width="1080" height="1350" fill="#FFF972"/>
  
  <!-- Background circle with opacity -->
  <circle opacity="0.12" cx="750.5" cy="1000.5" r="186.692" 
    fill="none"
    stroke="#000000" 
    stroke-width="85.6166"/>
  
  <!-- Progress arc -->
  <path d="M750.5 813.808 A186.692 186.692 0 1 1 588.8199853166756 1093.846" 
    fill="none"
    stroke="#FF0000" 
    stroke-width="85.6166" 
    stroke-linecap="round" 
    stroke-linejoin="round"/>
  
  <path d="M111.18 220L174.69 220L174.69 205.47L135.09 205.47L135.09 204.74L153.38 188.03C168.45 174.17 173.48 167.26 173.48 156.67L173.48 156.55C173.48 141.65 160.76 131.12 142.30 131.12C123.83 131.12 110.15 142.68 110.15 159.15L110.15 159.63L127.10 159.63L127.16 159.09C127.40 151.22 133.46 145.35 142.42 145.35C150.17 145.35 155.62 150.43 155.68 157.58L155.68 157.70C155.68 163.75 153.32 168.05 142.05 178.59L111.18 207.47ZM220.46 221.51C242.62 221.51 256.06 204.14 256.06 176.35L256.06 176.22C256.06 148.43 242.62 131.12 220.46 131.12C198.30 131.12 184.86 148.43 184.86 176.22L184.86 176.35C184.86 204.14 198.30 221.51 220.46 221.51ZM220.46 206.86C209.56 206.86 203.33 195.54 203.33 176.35L203.33 176.22C203.33 157.03 209.56 145.77 220.46 145.77C231.36 145.77 237.60 157.03 237.60 176.22L237.60 176.35C237.60 195.54 231.36 206.86 220.46 206.86ZM267.27 220L330.78 220L330.78 205.47L291.18 205.47L291.18 204.74L309.47 188.03C324.54 174.17 329.57 167.26 329.57 156.67L329.57 156.55C329.57 141.65 316.85 131.12 298.39 131.12C279.92 131.12 266.24 142.68 266.24 159.15L266.24 159.63L283.19 159.63L283.25 159.09C283.49 151.22 289.55 145.35 298.51 145.35C306.26 145.35 311.71 150.43 311.77 157.58L311.77 157.70C311.77 163.75 309.41 168.05 298.14 178.59L267.27 207.47ZM375.58 221.51C395.56 221.51 409.37 209.10 409.37 190.82L409.37 190.70C409.37 174.23 397.38 162.30 380.79 162.30C371.95 162.30 364.75 165.87 361.11 171.74L360.75 171.74L362.87 147.16L404.10 147.16L404.10 132.63L348.34 132.63L344.34 183.91L360.27 183.91C361.29 182.10 362.69 180.40 364.44 179.07C367.41 176.71 371.22 175.38 375.71 175.38C385.15 175.38 391.87 181.86 391.93 191.06L391.93 191.18C391.93 200.50 385.21 207.04 375.64 207.04C367.23 207.04 361.11 201.96 359.84 195.36L359.72 194.93L342.83 194.93L342.89 195.84C343.98 210.43 356.57 221.51 375.58 221.51Z" fill="#FF0000"/>
    <path d="M133.03 360L151.14 360L151.14 272.63L132.97 272.63L110.39 288.31L110.39 304.54L132.67 289.40L133.03 289.40ZM205.21 361.51C227.37 361.51 240.81 344.14 240.81 316.35L240.81 316.22C240.81 288.43 227.37 271.12 205.21 271.12C183.04 271.12 169.60 288.43 169.60 316.22L169.60 316.35C169.60 344.14 183.04 361.51 205.21 361.51ZM205.21 346.86C194.31 346.86 188.07 335.54 188.07 316.35L188.07 316.22C188.07 297.03 194.31 285.77 205.21 285.77C216.10 285.77 222.34 297.03 222.34 316.22L222.34 316.35C222.34 335.54 216.10 346.86 205.21 346.86ZM286.52 361.51C308.68 361.51 322.12 344.14 322.12 316.35L322.12 316.22C322.12 288.43 308.68 271.12 286.52 271.12C264.36 271.12 250.92 288.43 250.92 316.22L250.92 316.35C250.92 344.14 264.36 361.51 286.52 361.51ZM286.52 346.86C275.62 346.86 269.38 335.54 269.38 316.35L269.38 316.22C269.38 297.03 275.62 285.77 286.52 285.77C297.42 285.77 303.65 297.03 303.65 316.22L303.65 316.35C303.65 335.54 297.42 346.86 286.52 346.86ZM352.52 317.62C365.05 317.62 372.74 308.84 372.74 294.73L372.74 294.67C372.74 280.62 365.05 271.84 352.52 271.84C339.92 271.84 332.23 280.62 332.23 294.67L332.23 294.73C332.23 308.84 339.92 317.62 352.52 317.62ZM361.54 360L416.70 272.63L403.25 272.63L348.04 360ZM352.52 307.57C347.61 307.57 344.89 303.03 344.89 294.73L344.89 294.67C344.89 286.44 347.61 281.89 352.52 281.89C357.36 281.89 360.02 286.44 360.02 294.67L360.02 294.73C360.02 303.03 357.36 307.57 352.52 307.57ZM412.28 360.79C424.81 360.79 432.50 352.01 432.50 337.90L432.50 337.84C432.50 323.79 424.81 315.01 412.28 315.01C399.68 315.01 391.99 323.79 391.99 337.84L391.99 337.90C391.99 352.01 399.68 360.79 412.28 360.79ZM412.28 350.74C407.37 350.74 404.65 346.20 404.65 337.90L404.65 337.84C404.65 329.61 407.37 325.06 412.28 325.06C417.12 325.06 419.78 329.61 419.78 337.84L419.78 337.90C419.78 346.20 417.12 350.74 412.28 350.74Z" fill="#FF0000" opacity="0.5"/>
</svg>
