
<svg xmlns="http://www.w3.org/2000/svg" viewBox="0 0 1080 1350" width="1080" height="1350">
  <rect width="1080" height="1350" fill="#00B3FF"/>
  
  <!-- Background circle with opacity -->
  <circle opacity="0.12" cx="750.5" cy="1000.5" r="186.692" 
    fill="none"
    stroke="#ff4c00" 
    stroke-width="85.6166"/>
  
  <!-- Progress arc -->
  <path d="M750.5 813.808 A186.692 186.692 0 0 1 766.1219839273966 814.4627551209915" 
    fill="none"
    stroke="#73FF71" 
    stroke-width="85.6166" 
    stroke-linecap="round" 
    stroke-linejoin="round"/>
  
  <path d="M111.18 220L174.69 220L174.69 205.47L135.09 205.47L135.09 204.74L153.38 188.03C168.45 174.17 173.48 167.26 173.48 156.67L173.48 156.55C173.48 141.65 160.76 131.12 142.30 131.12C123.83 131.12 110.15 142.68 110.15 159.15L110.15 159.63L127.10 159.63L127.16 159.09C127.40 151.22 133.46 145.35 142.42 145.35C150.17 145.35 155.62 150.43 155.68 157.58L155.68 157.70C155.68 163.75 153.32 168.05 142.05 178.59L111.18 207.47ZM220.46 221.51C242.62 221.51 256.06 204.14 256.06 176.35L256.06 176.22C256.06 148.43 242.62 131.12 220.46 131.12C198.30 131.12 184.86 148.43 184.86 176.22L184.86 176.35C184.86 204.14 198.30 221.51 220.46 221.51ZM220.46 206.86C209.56 206.86 203.33 195.54 203.33 176.35L203.33 176.22C203.33 157.03 209.56 145.77 220.46 145.77C231.36 145.77 237.60 157.03 237.60 176.22L237.60 176.35C237.60 195.54 231.36 206.86 220.46 206.86ZM267.27 220L330.78 220L330.78 205.47L291.18 205.47L291.18 204.74L309.47 188.03C324.54 174.17 329.57 167.26 329.57 156.67L329.57 156.55C329.57 141.65 316.85 131.12 298.39 131.12C279.92 131.12 266.24 142.68 266.24 159.15L266.24 159.63L283.19 159.63L283.25 159.09C283.49 151.22 289.55 145.35 298.51 145.35C306.26 145.35 311.71 150.43 311.77 157.58L311.77 157.70C311.77 163.75 309.41 168.05 298.14 178.59L267.27 207.47ZM377.28 221.51C396.71 221.51 410.94 208.80 410.94 190.94L410.94 190.82C410.94 174.47 399.38 162.48 382.49 162.48C370.68 162.48 362.08 168.41 358.63 176.53L358.27 176.53C358.27 175.62 358.33 174.41 358.39 173.20C359.05 157.76 364.63 145.59 377.40 145.59C384.54 145.59 389.39 149.16 391.57 154.43L391.75 154.97L409.79 154.97L409.67 154.37C407.07 140.87 394.35 131.12 377.46 131.12C354.70 131.12 340.83 148.31 340.83 176.95L340.83 177.07C340.83 206.68 356.21 221.51 377.28 221.51ZM361.05 191.36L361.05 191.24C361.05 182.34 368.08 175.98 377.22 175.98C386.30 175.98 393.14 182.40 393.14 191.48L393.14 191.60C393.14 200.20 385.94 206.98 377.04 206.98C368.08 206.98 361.05 200.14 361.05 191.36Z" fill="#62FF7B"/>
    <path d="M111.18 360L174.69 360L174.69 345.47L135.09 345.47L135.09 344.74L153.38 328.03C168.45 314.17 173.48 307.26 173.48 296.67L173.48 296.55C173.48 281.65 160.76 271.12 142.30 271.12C123.83 271.12 110.15 282.68 110.15 299.15L110.15 299.63L127.10 299.63L127.16 299.09C127.40 291.22 133.46 285.35 142.42 285.35C150.17 285.35 155.62 290.43 155.68 297.58L155.68 297.70C155.68 303.75 153.32 308.05 142.05 318.59L111.18 347.47ZM205.14 317.62C217.68 317.62 225.37 308.84 225.37 294.73L225.37 294.67C225.37 280.62 217.68 271.84 205.14 271.84C192.55 271.84 184.86 280.62 184.86 294.67L184.86 294.73C184.86 308.84 192.55 317.62 205.14 317.62ZM214.17 360L269.32 272.63L255.88 272.63L200.66 360ZM205.14 307.57C200.24 307.57 197.52 303.03 197.52 294.73L197.52 294.67C197.52 286.44 200.24 281.89 205.14 281.89C209.99 281.89 212.65 286.44 212.65 294.67L212.65 294.73C212.65 303.03 209.99 307.57 205.14 307.57ZM264.90 360.79C277.44 360.79 285.13 352.01 285.13 337.90L285.13 337.84C285.13 323.79 277.44 315.01 264.90 315.01C252.31 315.01 244.62 323.79 244.62 337.84L244.62 337.90C244.62 352.01 252.31 360.79 264.90 360.79ZM264.90 350.74C260 350.74 257.28 346.20 257.28 337.90L257.28 337.84C257.28 329.61 260 325.06 264.90 325.06C269.75 325.06 272.41 329.61 272.41 337.84L272.41 337.90C272.41 346.20 269.75 350.74 264.90 350.74Z" fill="#62FF7B" opacity="0.5"/>
</svg>
