
<svg xmlns="http://www.w3.org/2000/svg" viewBox="0 0 1080 1350" width="1080" height="1350">
  <rect width="1080" height="1350" fill="#FF69B4"/>
  
  <!-- Background circle with opacity -->
  <circle opacity="0.12" cx="750.5" cy="1000.5" r="186.692" 
    fill="none"
    stroke="#00964b" 
    stroke-width="85.6166"/>
  
  <!-- Progress arc -->
  <path d="M750.5 813.808 A186.692 186.692 0 0 1 878.2994683000388 1136.5926109905581" 
    fill="none"
    stroke="#363636" 
    stroke-width="85.6166" 
    stroke-linecap="round" 
    stroke-linejoin="round"/>
  
  <path d="M111.18 220L174.69 220L174.69 205.47L135.09 205.47L135.09 204.74L153.38 188.03C168.45 174.17 173.48 167.26 173.48 156.67L173.48 156.55C173.48 141.65 160.76 131.12 142.30 131.12C123.83 131.12 110.15 142.68 110.15 159.15L110.15 159.63L127.10 159.63L127.16 159.09C127.40 151.22 133.46 145.35 142.42 145.35C150.17 145.35 155.62 150.43 155.68 157.58L155.68 157.70C155.68 163.75 153.32 168.05 142.05 178.59L111.18 207.47ZM220.46 221.51C242.62 221.51 256.06 204.14 256.06 176.35L256.06 176.22C256.06 148.43 242.62 131.12 220.46 131.12C198.30 131.12 184.86 148.43 184.86 176.22L184.86 176.35C184.86 204.14 198.30 221.51 220.46 221.51ZM220.46 206.86C209.56 206.86 203.33 195.54 203.33 176.35L203.33 176.22C203.33 157.03 209.56 145.77 220.46 145.77C231.36 145.77 237.60 157.03 237.60 176.22L237.60 176.35C237.60 195.54 231.36 206.86 220.46 206.86ZM267.27 220L330.78 220L330.78 205.47L291.18 205.47L291.18 204.74L309.47 188.03C324.54 174.17 329.57 167.26 329.57 156.67L329.57 156.55C329.57 141.65 316.85 131.12 298.39 131.12C279.92 131.12 266.24 142.68 266.24 159.15L266.24 159.63L283.19 159.63L283.25 159.09C283.49 151.22 289.55 145.35 298.51 145.35C306.26 145.35 311.71 150.43 311.77 157.58L311.77 157.70C311.77 163.75 309.41 168.05 298.14 178.59L267.27 207.47ZM375.58 221.51C395.56 221.51 409.37 209.10 409.37 190.82L409.37 190.70C409.37 174.23 397.38 162.30 380.79 162.30C371.95 162.30 364.75 165.87 361.11 171.74L360.75 171.74L362.87 147.16L404.10 147.16L404.10 132.63L348.34 132.63L344.34 183.91L360.27 183.91C361.29 182.10 362.69 180.40 364.44 179.07C367.41 176.71 371.22 175.38 375.71 175.38C385.15 175.38 391.87 181.86 391.93 191.06L391.93 191.18C391.93 200.50 385.21 207.04 375.64 207.04C367.23 207.04 361.11 201.96 359.84 195.36L359.72 194.93L342.83 194.93L342.89 195.84C343.98 210.43 356.57 221.51 375.58 221.51Z" fill="#363636"/>
    <path d="M144.72 361.51C164.70 361.51 178.50 349.10 178.50 330.82L178.50 330.70C178.50 314.23 166.52 302.30 149.93 302.30C141.09 302.30 133.88 305.87 130.25 311.74L129.88 311.74L132.00 287.16L173.24 287.16L173.24 272.63L117.47 272.63L113.48 323.91L129.40 323.91C130.43 322.10 131.82 320.40 133.58 319.07C136.54 316.71 140.36 315.38 144.84 315.38C154.29 315.38 161.01 321.86 161.07 331.06L161.07 331.18C161.07 340.50 154.35 347.04 144.78 347.04C136.36 347.04 130.25 341.96 128.98 335.36L128.86 334.93L111.96 334.93L112.02 335.84C113.11 350.43 125.71 361.51 144.72 361.51ZM193.22 360L212.41 360L248.86 287.34L248.86 272.63L186.38 272.63L186.38 287.16L230.82 287.16L230.82 287.53ZM278.83 317.62C291.36 317.62 299.05 308.84 299.05 294.73L299.05 294.67C299.05 280.62 291.36 271.84 278.83 271.84C266.24 271.84 258.55 280.62 258.55 294.67L258.55 294.73C258.55 308.84 266.24 317.62 278.83 317.62ZM287.85 360L343.01 272.63L329.57 272.63L274.35 360ZM278.83 307.57C273.93 307.57 271.20 303.03 271.20 294.73L271.20 294.67C271.20 286.44 273.93 281.89 278.83 281.89C283.67 281.89 286.34 286.44 286.34 294.67L286.34 294.73C286.34 303.03 283.67 307.57 278.83 307.57ZM338.59 360.79C351.12 360.79 358.81 352.01 358.81 337.90L358.81 337.84C358.81 323.79 351.12 315.01 338.59 315.01C326.00 315.01 318.31 323.79 318.31 337.84L318.31 337.90C318.31 352.01 326.00 360.79 338.59 360.79ZM338.59 350.74C333.69 350.74 330.96 346.20 330.96 337.90L330.96 337.84C330.96 329.61 333.69 325.06 338.59 325.06C343.43 325.06 346.10 329.61 346.10 337.84L346.10 337.90C346.10 346.20 343.43 350.74 338.59 350.74Z" fill="#363636" opacity="0.5"/>
</svg>
