
<svg xmlns="http://www.w3.org/2000/svg" viewBox="0 0 1080 1350" width="1080" height="1350">
  <rect width="1080" height="1350" fill="#7389FF"/>
  
  <!-- Background circle with opacity -->
  <circle opacity="0.12" cx="750.5" cy="1000.5" r="186.692" 
    fill="none"
    stroke="#FFFFFF" 
    stroke-width="85.6166"/>
  
  <!-- Progress arc -->
  <path d="M750.5 813.808 A186.692 186.692 0 0 1 894.3486583202975 1119.5019594941625" 
    fill="none"
    stroke="black" 
    stroke-width="85.6166" 
    stroke-linecap="round" 
    stroke-linejoin="round"/>
  
  <path d="M111.18 220L174.69 220L174.69 205.47L135.09 205.47L135.09 204.74L153.38 188.03C168.45 174.17 173.48 167.26 173.48 156.67L173.48 156.55C173.48 141.65 160.76 131.12 142.30 131.12C123.83 131.12 110.15 142.68 110.15 159.15L110.15 159.63L127.10 159.63L127.16 159.09C127.40 151.22 133.46 145.35 142.42 145.35C150.17 145.35 155.62 150.43 155.68 157.58L155.68 157.70C155.68 163.75 153.32 168.05 142.05 178.59L111.18 207.47ZM220.46 221.51C242.62 221.51 256.06 204.14 256.06 176.35L256.06 176.22C256.06 148.43 242.62 131.12 220.46 131.12C198.30 131.12 184.86 148.43 184.86 176.22L184.86 176.35C184.86 204.14 198.30 221.51 220.46 221.51ZM220.46 206.86C209.56 206.86 203.33 195.54 203.33 176.35L203.33 176.22C203.33 157.03 209.56 145.77 220.46 145.77C231.36 145.77 237.60 157.03 237.60 176.22L237.60 176.35C237.60 195.54 231.36 206.86 220.46 206.86ZM267.27 220L330.78 220L330.78 205.47L291.18 205.47L291.18 204.74L309.47 188.03C324.54 174.17 329.57 167.26 329.57 156.67L329.57 156.55C329.57 141.65 316.85 131.12 298.39 131.12C279.92 131.12 266.24 142.68 266.24 159.15L266.24 159.63L283.19 159.63L283.25 159.09C283.49 151.22 289.55 145.35 298.51 145.35C306.26 145.35 311.71 150.43 311.77 157.58L311.77 157.70C311.77 163.75 309.41 168.05 298.14 178.59L267.27 207.47ZM375.58 221.51C395.56 221.51 409.37 209.10 409.37 190.82L409.37 190.70C409.37 174.23 397.38 162.30 380.79 162.30C371.95 162.30 364.75 165.87 361.11 171.74L360.75 171.74L362.87 147.16L404.10 147.16L404.10 132.63L348.34 132.63L344.34 183.91L360.27 183.91C361.29 182.10 362.69 180.40 364.44 179.07C367.41 176.71 371.22 175.38 375.71 175.38C385.15 175.38 391.87 181.86 391.93 191.06L391.93 191.18C391.93 200.50 385.21 207.04 375.64 207.04C367.23 207.04 361.11 201.96 359.84 195.36L359.72 194.93L342.83 194.93L342.89 195.84C343.98 210.43 356.57 221.51 375.58 221.51Z" fill="black"/>
    <path d="M144.72 361.51C164.70 361.51 178.50 349.10 178.50 330.82L178.50 330.70C178.50 314.23 166.52 302.30 149.93 302.30C141.09 302.30 133.88 305.87 130.25 311.74L129.88 311.74L132.00 287.16L173.24 287.16L173.24 272.63L117.47 272.63L113.48 323.91L129.40 323.91C130.43 322.10 131.82 320.40 133.58 319.07C136.54 316.71 140.36 315.38 144.84 315.38C154.29 315.38 161.01 321.86 161.07 331.06L161.07 331.18C161.07 340.50 154.35 347.04 144.78 347.04C136.36 347.04 130.25 341.96 128.98 335.36L128.86 334.93L111.96 334.93L112.02 335.84C113.11 350.43 125.71 361.51 144.72 361.51ZM230.33 360L247.71 360L247.71 343.96L259.21 343.96L259.21 329.36L247.71 329.36L247.71 272.63L221.92 272.63L186.86 328.70L186.86 343.96L230.33 343.96ZM202.78 329.85L202.78 329.36L230.27 285.83L230.70 285.83L230.70 329.85ZM288.15 317.62C300.69 317.62 308.38 308.84 308.38 294.73L308.38 294.67C308.38 280.62 300.69 271.84 288.15 271.84C275.56 271.84 267.87 280.62 267.87 294.67L267.87 294.73C267.87 308.84 275.56 317.62 288.15 317.62ZM297.18 360L352.33 272.63L338.89 272.63L283.67 360ZM288.15 307.57C283.25 307.57 280.53 303.03 280.53 294.73L280.53 294.67C280.53 286.44 283.25 281.89 288.15 281.89C293.00 281.89 295.66 286.44 295.66 294.67L295.66 294.73C295.66 303.03 293.00 307.57 288.15 307.57ZM347.91 360.79C360.45 360.79 368.14 352.01 368.14 337.90L368.14 337.84C368.14 323.79 360.45 315.01 347.91 315.01C335.32 315.01 327.63 323.79 327.63 337.84L327.63 337.90C327.63 352.01 335.32 360.79 347.91 360.79ZM347.91 350.74C343.01 350.74 340.29 346.20 340.29 337.90L340.29 337.84C340.29 329.61 343.01 325.06 347.91 325.06C352.76 325.06 355.42 329.61 355.42 337.84L355.42 337.90C355.42 346.20 352.76 350.74 347.91 350.74Z" fill="black" opacity="0.5"/>
</svg>
