
<svg xmlns="http://www.w3.org/2000/svg" viewBox="0 0 1080 1350" width="1080" height="1350">
  <rect width="1080" height="1350" fill="#D1F2EB"/>
  
  <!-- Background circle with opacity -->
  <circle opacity="0.12" cx="750.5" cy="1000.5" r="186.692" 
    fill="none"
    stroke="#000000" 
    stroke-width="85.6166"/>
  
  <!-- Progress arc -->
  <path d="M750.5 813.808 A186.692 186.692 0 1 1 719.3656091380774 1184.5775721527666" 
    fill="none"
    stroke="#5A3E36" 
    stroke-width="85.6166" 
    stroke-linecap="round" 
    stroke-linejoin="round"/>
  
  <path d="M111.18 220L174.69 220L174.69 205.47L135.09 205.47L135.09 204.74L153.38 188.03C168.45 174.17 173.48 167.26 173.48 156.67L173.48 156.55C173.48 141.65 160.76 131.12 142.30 131.12C123.83 131.12 110.15 142.68 110.15 159.15L110.15 159.63L127.10 159.63L127.16 159.09C127.40 151.22 133.46 145.35 142.42 145.35C150.17 145.35 155.62 150.43 155.68 157.58L155.68 157.70C155.68 163.75 153.32 168.05 142.05 178.59L111.18 207.47ZM220.46 221.51C242.62 221.51 256.06 204.14 256.06 176.35L256.06 176.22C256.06 148.43 242.62 131.12 220.46 131.12C198.30 131.12 184.86 148.43 184.86 176.22L184.86 176.35C184.86 204.14 198.30 221.51 220.46 221.51ZM220.46 206.86C209.56 206.86 203.33 195.54 203.33 176.35L203.33 176.22C203.33 157.03 209.56 145.77 220.46 145.77C231.36 145.77 237.60 157.03 237.60 176.22L237.60 176.35C237.60 195.54 231.36 206.86 220.46 206.86ZM267.27 220L330.78 220L330.78 205.47L291.18 205.47L291.18 204.74L309.47 188.03C324.54 174.17 329.57 167.26 329.57 156.67L329.57 156.55C329.57 141.65 316.85 131.12 298.39 131.12C279.92 131.12 266.24 142.68 266.24 159.15L266.24 159.63L283.19 159.63L283.25 159.09C283.49 151.22 289.55 145.35 298.51 145.35C306.26 145.35 311.71 150.43 311.77 157.58L311.77 157.70C311.77 163.75 309.41 168.05 298.14 178.59L267.27 207.47ZM375.58 221.51C395.56 221.51 409.37 209.10 409.37 190.82L409.37 190.70C409.37 174.23 397.38 162.30 380.79 162.30C371.95 162.30 364.75 165.87 361.11 171.74L360.75 171.74L362.87 147.16L404.10 147.16L404.10 132.63L348.34 132.63L344.34 183.91L360.27 183.91C361.29 182.10 362.69 180.40 364.44 179.07C367.41 176.71 371.22 175.38 375.71 175.38C385.15 175.38 391.87 181.86 391.93 191.06L391.93 191.18C391.93 200.50 385.21 207.04 375.64 207.04C367.23 207.04 361.11 201.96 359.84 195.36L359.72 194.93L342.83 194.93L342.89 195.84C343.98 210.43 356.57 221.51 375.58 221.51Z" fill="#5A3E36"/>
    <path d="M115.72 360L134.91 360L171.36 287.34L171.36 272.63L108.88 272.63L108.88 287.16L153.32 287.16L153.32 287.53ZM215.44 271.12C196.00 271.12 181.77 283.77 181.77 301.63L181.77 301.75C181.77 318.16 193.34 330.09 210.23 330.09C222.04 330.09 230.63 324.16 234.09 316.04L234.39 316.04C234.45 317.01 234.39 318.22 234.33 319.37C233.66 334.81 228.09 346.98 215.32 346.98C208.17 346.98 203.33 343.41 201.15 338.14L200.97 337.66L182.92 337.66L183.04 338.20C185.65 351.71 198.36 361.51 215.26 361.51C238.02 361.51 251.89 344.26 251.89 315.62L251.89 315.50C251.89 285.89 236.51 271.12 215.44 271.12ZM215.50 316.59C206.42 316.59 199.57 310.23 199.57 301.15L199.57 301.03C199.57 292.37 206.78 285.65 215.68 285.65C224.64 285.65 231.66 292.43 231.66 301.27L231.66 301.33C231.66 310.23 224.64 316.59 215.50 316.59ZM282.22 317.62C294.75 317.62 302.44 308.84 302.44 294.73L302.44 294.67C302.44 280.62 294.75 271.84 282.22 271.84C269.63 271.84 261.94 280.62 261.94 294.67L261.94 294.73C261.94 308.84 269.63 317.62 282.22 317.62ZM291.24 360L346.40 272.63L332.96 272.63L277.74 360ZM282.22 307.57C277.32 307.57 274.59 303.03 274.59 294.73L274.59 294.67C274.59 286.44 277.32 281.89 282.22 281.89C287.06 281.89 289.73 286.44 289.73 294.67L289.73 294.73C289.73 303.03 287.06 307.57 282.22 307.57ZM341.98 360.79C354.51 360.79 362.20 352.01 362.20 337.90L362.20 337.84C362.20 323.79 354.51 315.01 341.98 315.01C329.39 315.01 321.70 323.79 321.70 337.84L321.70 337.90C321.70 352.01 329.39 360.79 341.98 360.79ZM341.98 350.74C337.08 350.74 334.35 346.20 334.35 337.90L334.35 337.84C334.35 329.61 337.08 325.06 341.98 325.06C346.82 325.06 349.49 329.61 349.49 337.84L349.49 337.90C349.49 346.20 346.82 350.74 341.98 350.74Z" fill="#5A3E36" opacity="0.5"/>
</svg>
