
<svg xmlns="http://www.w3.org/2000/svg" viewBox="0 0 1080 1350" width="1080" height="1350">
  <rect width="1080" height="1350" fill="#201414"/>
  
  <!-- Background circle with opacity -->
  <circle opacity="0.12" cx="750.5" cy="1000.5" r="186.692" 
    fill="none"
    stroke="#FFFFFF" 
    stroke-width="85.6166"/>
  
  <!-- Progress arc -->
  <path d="M750.5 813.808 A186.692 186.692 0 1 1 622.7005316999613 1136.5926109905581" 
    fill="none"
    stroke="#E95C4A" 
    stroke-width="85.6166" 
    stroke-linecap="round" 
    stroke-linejoin="round"/>
  
  <path d="M111.18 220L174.69 220L174.69 205.47L135.09 205.47L135.09 204.74L153.38 188.03C168.45 174.17 173.48 167.26 173.48 156.67L173.48 156.55C173.48 141.65 160.76 131.12 142.30 131.12C123.83 131.12 110.15 142.68 110.15 159.15L110.15 159.63L127.10 159.63L127.16 159.09C127.40 151.22 133.46 145.35 142.42 145.35C150.17 145.35 155.62 150.43 155.68 157.58L155.68 157.70C155.68 163.75 153.32 168.05 142.05 178.59L111.18 207.47ZM220.46 221.51C242.62 221.51 256.06 204.14 256.06 176.35L256.06 176.22C256.06 148.43 242.62 131.12 220.46 131.12C198.30 131.12 184.86 148.43 184.86 176.22L184.86 176.35C184.86 204.14 198.30 221.51 220.46 221.51ZM220.46 206.86C209.56 206.86 203.33 195.54 203.33 176.35L203.33 176.22C203.33 157.03 209.56 145.77 220.46 145.77C231.36 145.77 237.60 157.03 237.60 176.22L237.60 176.35C237.60 195.54 231.36 206.86 220.46 206.86ZM267.27 220L330.78 220L330.78 205.47L291.18 205.47L291.18 204.74L309.47 188.03C324.54 174.17 329.57 167.26 329.57 156.67L329.57 156.55C329.57 141.65 316.85 131.12 298.39 131.12C279.92 131.12 266.24 142.68 266.24 159.15L266.24 159.63L283.19 159.63L283.25 159.09C283.49 151.22 289.55 145.35 298.51 145.35C306.26 145.35 311.71 150.43 311.77 157.58L311.77 157.70C311.77 163.75 309.41 168.05 298.14 178.59L267.27 207.47ZM375.58 221.51C395.56 221.51 409.37 209.10 409.37 190.82L409.37 190.70C409.37 174.23 397.38 162.30 380.79 162.30C371.95 162.30 364.75 165.87 361.11 171.74L360.75 171.74L362.87 147.16L404.10 147.16L404.10 132.63L348.34 132.63L344.34 183.91L360.27 183.91C361.29 182.10 362.69 180.40 364.44 179.07C367.41 176.71 371.22 175.38 375.71 175.38C385.15 175.38 391.87 181.86 391.93 191.06L391.93 191.18C391.93 200.50 385.21 207.04 375.64 207.04C367.23 207.04 361.11 201.96 359.84 195.36L359.72 194.93L342.83 194.93L342.89 195.84C343.98 210.43 356.57 221.51 375.58 221.51Z" fill="#E95C4A"/>
    <path d="M144.48 271.12C125.04 271.12 110.81 283.77 110.81 301.63L110.81 301.75C110.81 318.16 122.38 330.09 139.27 330.09C151.08 330.09 159.67 324.16 163.13 316.04L163.43 316.04C163.49 317.01 163.43 318.22 163.37 319.37C162.70 334.81 157.13 346.98 144.36 346.98C137.21 346.98 132.37 343.41 130.19 338.14L130.01 337.66L111.96 337.66L112.08 338.20C114.69 351.71 127.40 361.51 144.29 361.51C167.06 361.51 180.93 344.26 180.93 315.62L180.93 315.50C180.93 285.89 165.55 271.12 144.48 271.12ZM144.54 316.59C135.46 316.59 128.61 310.23 128.61 301.15L128.61 301.03C128.61 292.37 135.82 285.65 144.72 285.65C153.68 285.65 160.70 292.43 160.70 301.27L160.70 301.33C160.70 310.23 153.68 316.59 144.54 316.59ZM224.58 361.51C244.98 361.51 258.55 350.98 258.55 335.36L258.55 335.24C258.55 323.37 250.07 315.86 237.11 314.65L237.11 314.29C247.35 312.17 255.34 305.08 255.34 294.19L255.34 294.06C255.34 280.32 243.23 271.12 224.40 271.12C206.05 271.12 193.76 281.05 192.55 296.18L192.49 296.91L209.26 296.91L209.32 296.37C210.05 289.58 215.86 285.16 224.40 285.16C233.00 285.16 238.02 289.40 238.02 296.49L238.02 296.61C238.02 303.69 232.09 308.54 222.95 308.54L213.20 308.54L213.20 321.55L223.19 321.55C233.72 321.55 239.96 326.15 239.96 334.51L239.96 334.63C239.96 341.78 233.90 346.80 224.52 346.80C215.07 346.80 208.90 342.14 208.11 335.90L207.99 335.24L190.55 335.24L190.61 336.02C191.82 351.10 204.78 361.51 224.58 361.51ZM289.37 317.62C301.90 317.62 309.59 308.84 309.59 294.73L309.59 294.67C309.59 280.62 301.90 271.84 289.37 271.84C276.77 271.84 269.08 280.62 269.08 294.67L269.08 294.73C269.08 308.84 276.77 317.62 289.37 317.62ZM298.39 360L353.54 272.63L340.10 272.63L284.88 360ZM289.37 307.57C284.46 307.57 281.74 303.03 281.74 294.73L281.74 294.67C281.74 286.44 284.46 281.89 289.37 281.89C294.21 281.89 296.87 286.44 296.87 294.67L296.87 294.73C296.87 303.03 294.21 307.57 289.37 307.57ZM349.13 360.79C361.66 360.79 369.35 352.01 369.35 337.90L369.35 337.84C369.35 323.79 361.66 315.01 349.13 315.01C336.53 315.01 328.84 323.79 328.84 337.84L328.84 337.90C328.84 352.01 336.53 360.79 349.13 360.79ZM349.13 350.74C344.22 350.74 341.50 346.20 341.50 337.90L341.50 337.84C341.50 329.61 344.22 325.06 349.13 325.06C353.97 325.06 356.63 329.61 356.63 337.84L356.63 337.90C356.63 346.20 353.97 350.74 349.13 350.74Z" fill="#E95C4A" opacity="0.5"/>
</svg>
