
<svg xmlns="http://www.w3.org/2000/svg" viewBox="0 0 1080 1350" width="1080" height="1350">
  <rect width="1080" height="1350" fill="#6D190F"/>
  
  <!-- Background circle with opacity -->
  <circle opacity="0.12" cx="750.5" cy="1000.5" r="186.692" 
    fill="none"
    stroke="#FFFFFF" 
    stroke-width="85.6166"/>
  
  <!-- Progress arc -->
  <path d="M750.5 813.808 A186.692 186.692 0 0 1 936.1692816900937 1020.0146278643648" 
    fill="none"
    stroke="#F9987E" 
    stroke-width="85.6166" 
    stroke-linecap="round" 
    stroke-linejoin="round"/>
  
  <path d="M111.18 220L174.69 220L174.69 205.47L135.09 205.47L135.09 204.74L153.38 188.03C168.45 174.17 173.48 167.26 173.48 156.67L173.48 156.55C173.48 141.65 160.76 131.12 142.30 131.12C123.83 131.12 110.15 142.68 110.15 159.15L110.15 159.63L127.10 159.63L127.16 159.09C127.40 151.22 133.46 145.35 142.42 145.35C150.17 145.35 155.62 150.43 155.68 157.58L155.68 157.70C155.68 163.75 153.32 168.05 142.05 178.59L111.18 207.47ZM220.46 221.51C242.62 221.51 256.06 204.14 256.06 176.35L256.06 176.22C256.06 148.43 242.62 131.12 220.46 131.12C198.30 131.12 184.86 148.43 184.86 176.22L184.86 176.35C184.86 204.14 198.30 221.51 220.46 221.51ZM220.46 206.86C209.56 206.86 203.33 195.54 203.33 176.35L203.33 176.22C203.33 157.03 209.56 145.77 220.46 145.77C231.36 145.77 237.60 157.03 237.60 176.22L237.60 176.35C237.60 195.54 231.36 206.86 220.46 206.86ZM267.27 220L330.78 220L330.78 205.47L291.18 205.47L291.18 204.74L309.47 188.03C324.54 174.17 329.57 167.26 329.57 156.67L329.57 156.55C329.57 141.65 316.85 131.12 298.39 131.12C279.92 131.12 266.24 142.68 266.24 159.15L266.24 159.63L283.19 159.63L283.25 159.09C283.49 151.22 289.55 145.35 298.51 145.35C306.26 145.35 311.71 150.43 311.77 157.58L311.77 157.70C311.77 163.75 309.41 168.05 298.14 178.59L267.27 207.47ZM375.58 221.51C395.56 221.51 409.37 209.10 409.37 190.82L409.37 190.70C409.37 174.23 397.38 162.30 380.79 162.30C371.95 162.30 364.75 165.87 361.11 171.74L360.75 171.74L362.87 147.16L404.10 147.16L404.10 132.63L348.34 132.63L344.34 183.91L360.27 183.91C361.29 182.10 362.69 180.40 364.44 179.07C367.41 176.71 371.22 175.38 375.71 175.38C385.15 175.38 391.87 181.86 391.93 191.06L391.93 191.18C391.93 200.50 385.21 207.04 375.64 207.04C367.23 207.04 361.11 201.96 359.84 195.36L359.72 194.93L342.83 194.93L342.89 195.84C343.98 210.43 356.57 221.51 375.58 221.51Z" fill="#F9987E"/>
    <path d="M152.83 360L170.21 360L170.21 343.96L181.71 343.96L181.71 329.36L170.21 329.36L170.21 272.63L144.42 272.63L109.36 328.70L109.36 343.96L152.83 343.96ZM125.28 329.85L125.28 329.36L152.77 285.83L153.20 285.83L153.20 329.85ZM225.97 361.51C248.13 361.51 261.57 344.14 261.57 316.35L261.57 316.22C261.57 288.43 248.13 271.12 225.97 271.12C203.81 271.12 190.37 288.43 190.37 316.22L190.37 316.35C190.37 344.14 203.81 361.51 225.97 361.51ZM225.97 346.86C215.07 346.86 208.84 335.54 208.84 316.35L208.84 316.22C208.84 297.03 215.07 285.77 225.97 285.77C236.87 285.77 243.11 297.03 243.11 316.22L243.11 316.35C243.11 335.54 236.87 346.86 225.97 346.86ZM291.97 317.62C304.50 317.62 312.19 308.84 312.19 294.73L312.19 294.67C312.19 280.62 304.50 271.84 291.97 271.84C279.38 271.84 271.69 280.62 271.69 294.67L271.69 294.73C271.69 308.84 279.38 317.62 291.97 317.62ZM300.99 360L356.15 272.63L342.71 272.63L287.49 360ZM291.97 307.57C287.06 307.57 284.34 303.03 284.34 294.73L284.34 294.67C284.34 286.44 287.06 281.89 291.97 281.89C296.81 281.89 299.48 286.44 299.48 294.67L299.48 294.73C299.48 303.03 296.81 307.57 291.97 307.57ZM351.73 360.79C364.26 360.79 371.95 352.01 371.95 337.90L371.95 337.84C371.95 323.79 364.26 315.01 351.73 315.01C339.13 315.01 331.45 323.79 331.45 337.84L331.45 337.90C331.45 352.01 339.13 360.79 351.73 360.79ZM351.73 350.74C346.82 350.74 344.10 346.20 344.10 337.90L344.10 337.84C344.10 329.61 346.82 325.06 351.73 325.06C356.57 325.06 359.24 329.61 359.24 337.84L359.24 337.90C359.24 346.20 356.57 350.74 351.73 350.74Z" fill="#F9987E" opacity="0.5"/>
</svg>
