
<svg xmlns="http://www.w3.org/2000/svg" viewBox="0 0 1080 1350" width="1080" height="1350">
  <rect width="1080" height="1350" fill="#E8E8E8"/>
  
  <!-- Background circle with opacity -->
  <circle opacity="0.12" cx="750.5" cy="1000.5" r="186.692" 
    fill="none"
    stroke="#000000" 
    stroke-width="85.6166"/>
  
  <!-- Progress arc -->
  <path d="M750.5 813.808 A186.692 186.692 0 1 1 611.7608062419744 1125.421331162348" 
    fill="none"
    stroke="#85144b" 
    stroke-width="85.6166" 
    stroke-linecap="round" 
    stroke-linejoin="round"/>
  
  <path d="M111.18 220L174.69 220L174.69 205.47L135.09 205.47L135.09 204.74L153.38 188.03C168.45 174.17 173.48 167.26 173.48 156.67L173.48 156.55C173.48 141.65 160.76 131.12 142.30 131.12C123.83 131.12 110.15 142.68 110.15 159.15L110.15 159.63L127.10 159.63L127.16 159.09C127.40 151.22 133.46 145.35 142.42 145.35C150.17 145.35 155.62 150.43 155.68 157.58L155.68 157.70C155.68 163.75 153.32 168.05 142.05 178.59L111.18 207.47ZM220.46 221.51C242.62 221.51 256.06 204.14 256.06 176.35L256.06 176.22C256.06 148.43 242.62 131.12 220.46 131.12C198.30 131.12 184.86 148.43 184.86 176.22L184.86 176.35C184.86 204.14 198.30 221.51 220.46 221.51ZM220.46 206.86C209.56 206.86 203.33 195.54 203.33 176.35L203.33 176.22C203.33 157.03 209.56 145.77 220.46 145.77C231.36 145.77 237.60 157.03 237.60 176.22L237.60 176.35C237.60 195.54 231.36 206.86 220.46 206.86ZM267.27 220L330.78 220L330.78 205.47L291.18 205.47L291.18 204.74L309.47 188.03C324.54 174.17 329.57 167.26 329.57 156.67L329.57 156.55C329.57 141.65 316.85 131.12 298.39 131.12C279.92 131.12 266.24 142.68 266.24 159.15L266.24 159.63L283.19 159.63L283.25 159.09C283.49 151.22 289.55 145.35 298.51 145.35C306.26 145.35 311.71 150.43 311.77 157.58L311.77 157.70C311.77 163.75 309.41 168.05 298.14 178.59L267.27 207.47ZM375.58 221.51C395.56 221.51 409.37 209.10 409.37 190.82L409.37 190.70C409.37 174.23 397.38 162.30 380.79 162.30C371.95 162.30 364.75 165.87 361.11 171.74L360.75 171.74L362.87 147.16L404.10 147.16L404.10 132.63L348.34 132.63L344.34 183.91L360.27 183.91C361.29 182.10 362.69 180.40 364.44 179.07C367.41 176.71 371.22 175.38 375.71 175.38C385.15 175.38 391.87 181.86 391.93 191.06L391.93 191.18C391.93 200.50 385.21 207.04 375.64 207.04C367.23 207.04 361.11 201.96 359.84 195.36L359.72 194.93L342.83 194.93L342.89 195.84C343.98 210.43 356.57 221.51 375.58 221.51Z" fill="#85144b"/>
    <path d="M144.48 271.12C125.04 271.12 110.81 283.77 110.81 301.63L110.81 301.75C110.81 318.16 122.38 330.09 139.27 330.09C151.08 330.09 159.67 324.16 163.13 316.04L163.43 316.04C163.49 317.01 163.43 318.22 163.37 319.37C162.70 334.81 157.13 346.98 144.36 346.98C137.21 346.98 132.37 343.41 130.19 338.14L130.01 337.66L111.96 337.66L112.08 338.20C114.69 351.71 127.40 361.51 144.29 361.51C167.06 361.51 180.93 344.26 180.93 315.62L180.93 315.50C180.93 285.89 165.55 271.12 144.48 271.12ZM144.54 316.59C135.46 316.59 128.61 310.23 128.61 301.15L128.61 301.03C128.61 292.37 135.82 285.65 144.72 285.65C153.68 285.65 160.70 292.43 160.70 301.27L160.70 301.33C160.70 310.23 153.68 316.59 144.54 316.59ZM225.61 361.51C245.59 361.51 259.39 349.10 259.39 330.82L259.39 330.70C259.39 314.23 247.41 302.30 230.82 302.30C221.98 302.30 214.77 305.87 211.14 311.74L210.78 311.74L212.89 287.16L254.13 287.16L254.13 272.63L198.36 272.63L194.37 323.91L210.29 323.91C211.32 322.10 212.71 320.40 214.47 319.07C217.44 316.71 221.25 315.38 225.73 315.38C235.18 315.38 241.90 321.86 241.96 331.06L241.96 331.18C241.96 340.50 235.24 347.04 225.67 347.04C217.25 347.04 211.14 341.96 209.87 335.36L209.75 334.93L192.85 334.93L192.91 335.84C194.00 350.43 206.60 361.51 225.61 361.51ZM288.76 317.62C301.29 317.62 308.98 308.84 308.98 294.73L308.98 294.67C308.98 280.62 301.29 271.84 288.76 271.84C276.17 271.84 268.48 280.62 268.48 294.67L268.48 294.73C268.48 308.84 276.17 317.62 288.76 317.62ZM297.78 360L352.94 272.63L339.50 272.63L284.28 360ZM288.76 307.57C283.86 307.57 281.13 303.03 281.13 294.73L281.13 294.67C281.13 286.44 283.86 281.89 288.76 281.89C293.60 281.89 296.27 286.44 296.27 294.67L296.27 294.73C296.27 303.03 293.60 307.57 288.76 307.57ZM348.52 360.79C361.05 360.79 368.74 352.01 368.74 337.90L368.74 337.84C368.74 323.79 361.05 315.01 348.52 315.01C335.93 315.01 328.24 323.79 328.24 337.84L328.24 337.90C328.24 352.01 335.93 360.79 348.52 360.79ZM348.52 350.74C343.62 350.74 340.89 346.20 340.89 337.90L340.89 337.84C340.89 329.61 343.62 325.06 348.52 325.06C353.36 325.06 356.03 329.61 356.03 337.84L356.03 337.90C356.03 346.20 353.36 350.74 348.52 350.74Z" fill="#85144b" opacity="0.5"/>
</svg>
