
<svg xmlns="http://www.w3.org/2000/svg" viewBox="0 0 1080 1350" width="1080" height="1350">
  <rect width="1080" height="1350" fill="#777F94"/>
  
  <!-- Background circle with opacity -->
  <circle opacity="0.12" cx="750.5" cy="1000.5" r="186.692" 
    fill="none"
    stroke="#FFFFFF" 
    stroke-width="85.6166"/>
  
  <!-- Progress arc -->
  <path d="M750.5 813.808 A186.692 186.692 0 1 1 734.8780160726034 1186.5372448790085" 
    fill="none"
    stroke="#73FF71" 
    stroke-width="85.6166" 
    stroke-linecap="round" 
    stroke-linejoin="round"/>
  
  <path d="M111.18 220L174.69 220L174.69 205.47L135.09 205.47L135.09 204.74L153.38 188.03C168.45 174.17 173.48 167.26 173.48 156.67L173.48 156.55C173.48 141.65 160.76 131.12 142.30 131.12C123.83 131.12 110.15 142.68 110.15 159.15L110.15 159.63L127.10 159.63L127.16 159.09C127.40 151.22 133.46 145.35 142.42 145.35C150.17 145.35 155.62 150.43 155.68 157.58L155.68 157.70C155.68 163.75 153.32 168.05 142.05 178.59L111.18 207.47ZM220.46 221.51C242.62 221.51 256.06 204.14 256.06 176.35L256.06 176.22C256.06 148.43 242.62 131.12 220.46 131.12C198.30 131.12 184.86 148.43 184.86 176.22L184.86 176.35C184.86 204.14 198.30 221.51 220.46 221.51ZM220.46 206.86C209.56 206.86 203.33 195.54 203.33 176.35L203.33 176.22C203.33 157.03 209.56 145.77 220.46 145.77C231.36 145.77 237.60 157.03 237.60 176.22L237.60 176.35C237.60 195.54 231.36 206.86 220.46 206.86ZM267.27 220L330.78 220L330.78 205.47L291.18 205.47L291.18 204.74L309.47 188.03C324.54 174.17 329.57 167.26 329.57 156.67L329.57 156.55C329.57 141.65 316.85 131.12 298.39 131.12C279.92 131.12 266.24 142.68 266.24 159.15L266.24 159.63L283.19 159.63L283.25 159.09C283.49 151.22 289.55 145.35 298.51 145.35C306.26 145.35 311.71 150.43 311.77 157.58L311.77 157.70C311.77 163.75 309.41 168.05 298.14 178.59L267.27 207.47ZM375.58 221.51C395.56 221.51 409.37 209.10 409.37 190.82L409.37 190.70C409.37 174.23 397.38 162.30 380.79 162.30C371.95 162.30 364.75 165.87 361.11 171.74L360.75 171.74L362.87 147.16L404.10 147.16L404.10 132.63L348.34 132.63L344.34 183.91L360.27 183.91C361.29 182.10 362.69 180.40 364.44 179.07C367.41 176.71 371.22 175.38 375.71 175.38C385.15 175.38 391.87 181.86 391.93 191.06L391.93 191.18C391.93 200.50 385.21 207.04 375.64 207.04C367.23 207.04 361.11 201.96 359.84 195.36L359.72 194.93L342.83 194.93L342.89 195.84C343.98 210.43 356.57 221.51 375.58 221.51Z" fill="#73FF71"/>
    <path d="M115.72 360L134.91 360L171.36 287.34L171.36 272.63L108.88 272.63L108.88 287.16L153.32 287.16L153.32 287.53ZM186.68 360L205.87 360L242.32 287.34L242.32 272.63L179.84 272.63L179.84 287.16L224.28 287.16L224.28 287.53ZM272.29 317.62C284.82 317.62 292.51 308.84 292.51 294.73L292.51 294.67C292.51 280.62 284.82 271.84 272.29 271.84C259.70 271.84 252.01 280.62 252.01 294.67L252.01 294.73C252.01 308.84 259.70 317.62 272.29 317.62ZM281.31 360L336.47 272.63L323.03 272.63L267.81 360ZM272.29 307.57C267.39 307.57 264.66 303.03 264.66 294.73L264.66 294.67C264.66 286.44 267.39 281.89 272.29 281.89C277.13 281.89 279.80 286.44 279.80 294.67L279.80 294.73C279.80 303.03 277.13 307.57 272.29 307.57ZM332.05 360.79C344.58 360.79 352.27 352.01 352.27 337.90L352.27 337.84C352.27 323.79 344.58 315.01 332.05 315.01C319.46 315.01 311.77 323.79 311.77 337.84L311.77 337.90C311.77 352.01 319.46 360.79 332.05 360.79ZM332.05 350.74C327.15 350.74 324.42 346.20 324.42 337.90L324.42 337.84C324.42 329.61 327.15 325.06 332.05 325.06C336.89 325.06 339.56 329.61 339.56 337.84L339.56 337.90C339.56 346.20 336.89 350.74 332.05 350.74Z" fill="#73FF71" opacity="0.5"/>
</svg>
