
<svg xmlns="http://www.w3.org/2000/svg" viewBox="0 0 1080 1350" width="1080" height="1350">
  <rect width="1080" height="1350" fill="#FF9636"/>
  
  <!-- Background circle with opacity -->
  <circle opacity="0.12" cx="750.5" cy="1000.5" r="186.692" 
    fill="none"
    stroke="#0069c9" 
    stroke-width="85.6166"/>
  
  <!-- Progress arc -->
  <path d="M750.5 813.808 A186.692 186.692 0 0 1 933.8851714130403 965.5174076173619" 
    fill="none"
    stroke="#9D0000" 
    stroke-width="85.6166" 
    stroke-linecap="round" 
    stroke-linejoin="round"/>
  
  <path d="M111.18 220L174.69 220L174.69 205.47L135.09 205.47L135.09 204.74L153.38 188.03C168.45 174.17 173.48 167.26 173.48 156.67L173.48 156.55C173.48 141.65 160.76 131.12 142.30 131.12C123.83 131.12 110.15 142.68 110.15 159.15L110.15 159.63L127.10 159.63L127.16 159.09C127.40 151.22 133.46 145.35 142.42 145.35C150.17 145.35 155.62 150.43 155.68 157.58L155.68 157.70C155.68 163.75 153.32 168.05 142.05 178.59L111.18 207.47ZM220.46 221.51C242.62 221.51 256.06 204.14 256.06 176.35L256.06 176.22C256.06 148.43 242.62 131.12 220.46 131.12C198.30 131.12 184.86 148.43 184.86 176.22L184.86 176.35C184.86 204.14 198.30 221.51 220.46 221.51ZM220.46 206.86C209.56 206.86 203.33 195.54 203.33 176.35L203.33 176.22C203.33 157.03 209.56 145.77 220.46 145.77C231.36 145.77 237.60 157.03 237.60 176.22L237.60 176.35C237.60 195.54 231.36 206.86 220.46 206.86ZM267.27 220L330.78 220L330.78 205.47L291.18 205.47L291.18 204.74L309.47 188.03C324.54 174.17 329.57 167.26 329.57 156.67L329.57 156.55C329.57 141.65 316.85 131.12 298.39 131.12C279.92 131.12 266.24 142.68 266.24 159.15L266.24 159.63L283.19 159.63L283.25 159.09C283.49 151.22 289.55 145.35 298.51 145.35C306.26 145.35 311.71 150.43 311.77 157.58L311.77 157.70C311.77 163.75 309.41 168.05 298.14 178.59L267.27 207.47ZM377.28 221.51C396.71 221.51 410.94 208.80 410.94 190.94L410.94 190.82C410.94 174.47 399.38 162.48 382.49 162.48C370.68 162.48 362.08 168.41 358.63 176.53L358.27 176.53C358.27 175.62 358.33 174.41 358.39 173.20C359.05 157.76 364.63 145.59 377.40 145.59C384.54 145.59 389.39 149.16 391.57 154.43L391.75 154.97L409.79 154.97L409.67 154.37C407.07 140.87 394.35 131.12 377.46 131.12C354.70 131.12 340.83 148.31 340.83 176.95L340.83 177.07C340.83 206.68 356.21 221.51 377.28 221.51ZM361.05 191.36L361.05 191.24C361.05 182.34 368.08 175.98 377.22 175.98C386.30 175.98 393.14 182.40 393.14 191.48L393.14 191.60C393.14 200.20 385.94 206.98 377.04 206.98C368.08 206.98 361.05 200.14 361.05 191.36Z" fill="#9D0000"/>
    <path d="M111.18 360L174.69 360L174.69 345.47L135.09 345.47L135.09 344.74L153.38 328.03C168.45 314.17 173.48 307.26 173.48 296.67L173.48 296.55C173.48 281.65 160.76 271.12 142.30 271.12C123.83 271.12 110.15 282.68 110.15 299.15L110.15 299.63L127.10 299.63L127.16 299.09C127.40 291.22 133.46 285.35 142.42 285.35C150.17 285.35 155.62 290.43 155.68 297.58L155.68 297.70C155.68 303.75 153.32 308.05 142.05 318.59L111.18 347.47ZM185.95 360L249.46 360L249.46 345.47L209.87 345.47L209.87 344.74L228.15 328.03C243.23 314.17 248.25 307.26 248.25 296.67L248.25 296.55C248.25 281.65 235.54 271.12 217.07 271.12C198.61 271.12 184.92 282.68 184.92 299.15L184.92 299.63L201.88 299.63L201.94 299.09C202.18 291.22 208.23 285.35 217.19 285.35C224.94 285.35 230.39 290.43 230.45 297.58L230.45 297.70C230.45 303.75 228.09 308.05 216.83 318.59L185.95 347.47ZM279.92 317.62C292.45 317.62 300.14 308.84 300.14 294.73L300.14 294.67C300.14 280.62 292.45 271.84 279.92 271.84C267.33 271.84 259.64 280.62 259.64 294.67L259.64 294.73C259.64 308.84 267.33 317.62 279.92 317.62ZM288.94 360L344.10 272.63L330.66 272.63L275.44 360ZM279.92 307.57C275.02 307.57 272.29 303.03 272.29 294.73L272.29 294.67C272.29 286.44 275.02 281.89 279.92 281.89C284.76 281.89 287.43 286.44 287.43 294.67L287.43 294.73C287.43 303.03 284.76 307.57 279.92 307.57ZM339.68 360.79C352.21 360.79 359.90 352.01 359.90 337.90L359.90 337.84C359.90 323.79 352.21 315.01 339.68 315.01C327.09 315.01 319.40 323.79 319.40 337.84L319.40 337.90C319.40 352.01 327.09 360.79 339.68 360.79ZM339.68 350.74C334.78 350.74 332.05 346.20 332.05 337.90L332.05 337.84C332.05 329.61 334.78 325.06 339.68 325.06C344.52 325.06 347.19 329.61 347.19 337.84L347.19 337.90C347.19 346.20 344.52 350.74 339.68 350.74Z" fill="#9D0000" opacity="0.5"/>
</svg>
