
<svg xmlns="http://www.w3.org/2000/svg" viewBox="0 0 1080 1350" width="1080" height="1350">
  <rect width="1080" height="1350" fill="#FF6600"/>
  
  <!-- Background circle with opacity -->
  <circle opacity="0.12" cx="750.5" cy="1000.5" r="186.692" 
    fill="none"
    stroke="#0099ff" 
    stroke-width="85.6166"/>
  
  <!-- Progress arc -->
  <path d="M750.5 813.808 A186.692 186.692 0 0 1 901.5370007138476 890.7651956790136" 
    fill="none"
    stroke="white" 
    stroke-width="85.6166" 
    stroke-linecap="round" 
    stroke-linejoin="round"/>
  
  <path d="M111.18 220L174.69 220L174.69 205.47L135.09 205.47L135.09 204.74L153.38 188.03C168.45 174.17 173.48 167.26 173.48 156.67L173.48 156.55C173.48 141.65 160.76 131.12 142.30 131.12C123.83 131.12 110.15 142.68 110.15 159.15L110.15 159.63L127.10 159.63L127.16 159.09C127.40 151.22 133.46 145.35 142.42 145.35C150.17 145.35 155.62 150.43 155.68 157.58L155.68 157.70C155.68 163.75 153.32 168.05 142.05 178.59L111.18 207.47ZM220.46 221.51C242.62 221.51 256.06 204.14 256.06 176.35L256.06 176.22C256.06 148.43 242.62 131.12 220.46 131.12C198.30 131.12 184.86 148.43 184.86 176.22L184.86 176.35C184.86 204.14 198.30 221.51 220.46 221.51ZM220.46 206.86C209.56 206.86 203.33 195.54 203.33 176.35L203.33 176.22C203.33 157.03 209.56 145.77 220.46 145.77C231.36 145.77 237.60 157.03 237.60 176.22L237.60 176.35C237.60 195.54 231.36 206.86 220.46 206.86ZM267.27 220L330.78 220L330.78 205.47L291.18 205.47L291.18 204.74L309.47 188.03C324.54 174.17 329.57 167.26 329.57 156.67L329.57 156.55C329.57 141.65 316.85 131.12 298.39 131.12C279.92 131.12 266.24 142.68 266.24 159.15L266.24 159.63L283.19 159.63L283.25 159.09C283.49 151.22 289.55 145.35 298.51 145.35C306.26 145.35 311.71 150.43 311.77 157.58L311.77 157.70C311.77 163.75 309.41 168.05 298.14 178.59L267.27 207.47ZM377.28 221.51C396.71 221.51 410.94 208.80 410.94 190.94L410.94 190.82C410.94 174.47 399.38 162.48 382.49 162.48C370.68 162.48 362.08 168.41 358.63 176.53L358.27 176.53C358.27 175.62 358.33 174.41 358.39 173.20C359.05 157.76 364.63 145.59 377.40 145.59C384.54 145.59 389.39 149.16 391.57 154.43L391.75 154.97L409.79 154.97L409.67 154.37C407.07 140.87 394.35 131.12 377.46 131.12C354.70 131.12 340.83 148.31 340.83 176.95L340.83 177.07C340.83 206.68 356.21 221.51 377.28 221.51ZM361.05 191.36L361.05 191.24C361.05 182.34 368.08 175.98 377.22 175.98C386.30 175.98 393.14 182.40 393.14 191.48L393.14 191.60C393.14 200.20 385.94 206.98 377.04 206.98C368.08 206.98 361.05 200.14 361.05 191.36Z" fill="white"/>
    <path d="M133.03 360L151.14 360L151.14 272.63L132.97 272.63L110.39 288.31L110.39 304.54L132.67 289.40L133.03 289.40ZM204.24 361.51C224.22 361.51 238.02 349.10 238.02 330.82L238.02 330.70C238.02 314.23 226.03 302.30 209.44 302.30C200.60 302.30 193.40 305.87 189.77 311.74L189.40 311.74L191.52 287.16L232.75 287.16L232.75 272.63L176.99 272.63L172.99 323.91L188.92 323.91C189.95 322.10 191.34 320.40 193.10 319.07C196.06 316.71 199.88 315.38 204.36 315.38C213.80 315.38 220.52 321.86 220.58 331.06L220.58 331.18C220.58 340.50 213.86 347.04 204.30 347.04C195.88 347.04 189.77 341.96 188.49 335.36L188.37 334.93L171.48 334.93L171.54 335.84C172.63 350.43 185.22 361.51 204.24 361.51ZM267.39 317.62C279.92 317.62 287.61 308.84 287.61 294.73L287.61 294.67C287.61 280.62 279.92 271.84 267.39 271.84C254.79 271.84 247.10 280.62 247.10 294.67L247.10 294.73C247.10 308.84 254.79 317.62 267.39 317.62ZM276.41 360L331.57 272.63L318.13 272.63L262.91 360ZM267.39 307.57C262.48 307.57 259.76 303.03 259.76 294.73L259.76 294.67C259.76 286.44 262.48 281.89 267.39 281.89C272.23 281.89 274.89 286.44 274.89 294.67L274.89 294.73C274.89 303.03 272.23 307.57 267.39 307.57ZM327.15 360.79C339.68 360.79 347.37 352.01 347.37 337.90L347.37 337.84C347.37 323.79 339.68 315.01 327.15 315.01C314.55 315.01 306.86 323.79 306.86 337.84L306.86 337.90C306.86 352.01 314.55 360.79 327.15 360.79ZM327.15 350.74C322.24 350.74 319.52 346.20 319.52 337.90L319.52 337.84C319.52 329.61 322.24 325.06 327.15 325.06C331.99 325.06 334.65 329.61 334.65 337.84L334.65 337.90C334.65 346.20 331.99 350.74 327.15 350.74Z" fill="white" opacity="0.5"/>
</svg>
