
<svg xmlns="http://www.w3.org/2000/svg" viewBox="0 0 1080 1350" width="1080" height="1350">
  <rect width="1080" height="1350" fill="#FFFAFA"/>
  
  <!-- Background circle with opacity -->
  <circle opacity="0.12" cx="750.5" cy="1000.5" r="186.692" 
    fill="none"
    stroke="#000000" 
    stroke-width="85.6166"/>
  
  <!-- Progress arc -->
  <path d="M750.5 813.808 A186.692 186.692 0 1 1 727.1012879594128 1185.7198778178024" 
    fill="none"
    stroke="#0000CD" 
    stroke-width="85.6166" 
    stroke-linecap="round" 
    stroke-linejoin="round"/>
  
  <path d="M111.18 220L174.69 220L174.69 205.47L135.09 205.47L135.09 204.74L153.38 188.03C168.45 174.17 173.48 167.26 173.48 156.67L173.48 156.55C173.48 141.65 160.76 131.12 142.30 131.12C123.83 131.12 110.15 142.68 110.15 159.15L110.15 159.63L127.10 159.63L127.16 159.09C127.40 151.22 133.46 145.35 142.42 145.35C150.17 145.35 155.62 150.43 155.68 157.58L155.68 157.70C155.68 163.75 153.32 168.05 142.05 178.59L111.18 207.47ZM220.46 221.51C242.62 221.51 256.06 204.14 256.06 176.35L256.06 176.22C256.06 148.43 242.62 131.12 220.46 131.12C198.30 131.12 184.86 148.43 184.86 176.22L184.86 176.35C184.86 204.14 198.30 221.51 220.46 221.51ZM220.46 206.86C209.56 206.86 203.33 195.54 203.33 176.35L203.33 176.22C203.33 157.03 209.56 145.77 220.46 145.77C231.36 145.77 237.60 157.03 237.60 176.22L237.60 176.35C237.60 195.54 231.36 206.86 220.46 206.86ZM267.27 220L330.78 220L330.78 205.47L291.18 205.47L291.18 204.74L309.47 188.03C324.54 174.17 329.57 167.26 329.57 156.67L329.57 156.55C329.57 141.65 316.85 131.12 298.39 131.12C279.92 131.12 266.24 142.68 266.24 159.15L266.24 159.63L283.19 159.63L283.25 159.09C283.49 151.22 289.55 145.35 298.51 145.35C306.26 145.35 311.71 150.43 311.77 157.58L311.77 157.70C311.77 163.75 309.41 168.05 298.14 178.59L267.27 207.47ZM375.58 221.51C395.56 221.51 409.37 209.10 409.37 190.82L409.37 190.70C409.37 174.23 397.38 162.30 380.79 162.30C371.95 162.30 364.75 165.87 361.11 171.74L360.75 171.74L362.87 147.16L404.10 147.16L404.10 132.63L348.34 132.63L344.34 183.91L360.27 183.91C361.29 182.10 362.69 180.40 364.44 179.07C367.41 176.71 371.22 175.38 375.71 175.38C385.15 175.38 391.87 181.86 391.93 191.06L391.93 191.18C391.93 200.50 385.21 207.04 375.64 207.04C367.23 207.04 361.11 201.96 359.84 195.36L359.72 194.93L342.83 194.93L342.89 195.84C343.98 210.43 356.57 221.51 375.58 221.51Z" fill="#000000"/>
    <path d="M115.72 360L134.91 360L171.36 287.34L171.36 272.63L108.88 272.63L108.88 287.16L153.32 287.16L153.32 287.53ZM216.22 361.51C237.05 361.51 251.40 351.16 251.40 336.14L251.40 336.02C251.40 324.70 242.99 316.35 231.30 314.04L231.30 313.68C241.35 311.20 248.25 303.87 248.25 294.55L248.25 294.43C248.25 280.93 235.05 271.12 216.22 271.12C197.33 271.12 184.20 280.93 184.20 294.43L184.20 294.55C184.20 303.87 191.04 311.20 201.15 313.68L201.15 314.04C189.40 316.35 180.99 324.70 180.99 336.02L180.99 336.14C180.99 351.16 195.40 361.51 216.22 361.51ZM216.22 308.17C207.99 308.17 202.24 303.27 202.24 296.24L202.24 296.12C202.24 289.16 208.05 284.32 216.22 284.32C224.40 284.32 230.15 289.16 230.15 296.12L230.15 296.24C230.15 303.27 224.46 308.17 216.22 308.17ZM216.22 348.19C206.66 348.19 199.94 342.62 199.94 334.93L199.94 334.81C199.94 327.06 206.60 321.43 216.22 321.43C225.85 321.43 232.45 327.06 232.45 334.81L232.45 334.93C232.45 342.62 225.73 348.19 216.22 348.19ZM281.80 317.62C294.33 317.62 302.02 308.84 302.02 294.73L302.02 294.67C302.02 280.62 294.33 271.84 281.80 271.84C269.20 271.84 261.51 280.62 261.51 294.67L261.51 294.73C261.51 308.84 269.20 317.62 281.80 317.62ZM290.82 360L345.98 272.63L332.54 272.63L277.32 360ZM281.80 307.57C276.89 307.57 274.17 303.03 274.17 294.73L274.17 294.67C274.17 286.44 276.89 281.89 281.80 281.89C286.64 281.89 289.30 286.44 289.30 294.67L289.30 294.73C289.30 303.03 286.64 307.57 281.80 307.57ZM341.56 360.79C354.09 360.79 361.78 352.01 361.78 337.90L361.78 337.84C361.78 323.79 354.09 315.01 341.56 315.01C328.96 315.01 321.27 323.79 321.27 337.84L321.27 337.90C321.27 352.01 328.96 360.79 341.56 360.79ZM341.56 350.74C336.65 350.74 333.93 346.20 333.93 337.90L333.93 337.84C333.93 329.61 336.65 325.06 341.56 325.06C346.40 325.06 349.06 329.61 349.06 337.84L349.06 337.90C349.06 346.20 346.40 350.74 341.56 350.74Z" fill="#000000" opacity="0.5"/>
</svg>
