
<svg xmlns="http://www.w3.org/2000/svg" viewBox="0 0 1080 1350" width="1080" height="1350">
  <rect width="1080" height="1350" fill="#0A0A0A"/>
  
  <!-- Background circle with opacity -->
  <circle opacity="0.12" cx="750.5" cy="1000.5" r="186.692" 
    fill="none"
    stroke="#FFFFFF" 
    stroke-width="85.6166"/>
  
  <!-- Progress arc -->
  <path d="M750.5 813.808 A186.692 186.692 0 1 1 653.7885015661117 1160.1896644578853" 
    fill="none"
    stroke="#FF00FF" 
    stroke-width="85.6166" 
    stroke-linecap="round" 
    stroke-linejoin="round"/>
  
  <path d="M111.18 220L174.69 220L174.69 205.47L135.09 205.47L135.09 204.74L153.38 188.03C168.45 174.17 173.48 167.26 173.48 156.67L173.48 156.55C173.48 141.65 160.76 131.12 142.30 131.12C123.83 131.12 110.15 142.68 110.15 159.15L110.15 159.63L127.10 159.63L127.16 159.09C127.40 151.22 133.46 145.35 142.42 145.35C150.17 145.35 155.62 150.43 155.68 157.58L155.68 157.70C155.68 163.75 153.32 168.05 142.05 178.59L111.18 207.47ZM220.46 221.51C242.62 221.51 256.06 204.14 256.06 176.35L256.06 176.22C256.06 148.43 242.62 131.12 220.46 131.12C198.30 131.12 184.86 148.43 184.86 176.22L184.86 176.35C184.86 204.14 198.30 221.51 220.46 221.51ZM220.46 206.86C209.56 206.86 203.33 195.54 203.33 176.35L203.33 176.22C203.33 157.03 209.56 145.77 220.46 145.77C231.36 145.77 237.60 157.03 237.60 176.22L237.60 176.35C237.60 195.54 231.36 206.86 220.46 206.86ZM267.27 220L330.78 220L330.78 205.47L291.18 205.47L291.18 204.74L309.47 188.03C324.54 174.17 329.57 167.26 329.57 156.67L329.57 156.55C329.57 141.65 316.85 131.12 298.39 131.12C279.92 131.12 266.24 142.68 266.24 159.15L266.24 159.63L283.19 159.63L283.25 159.09C283.49 151.22 289.55 145.35 298.51 145.35C306.26 145.35 311.71 150.43 311.77 157.58L311.77 157.70C311.77 163.75 309.41 168.05 298.14 178.59L267.27 207.47ZM375.58 221.51C395.56 221.51 409.37 209.10 409.37 190.82L409.37 190.70C409.37 174.23 397.38 162.30 380.79 162.30C371.95 162.30 364.75 165.87 361.11 171.74L360.75 171.74L362.87 147.16L404.10 147.16L404.10 132.63L348.34 132.63L344.34 183.91L360.27 183.91C361.29 182.10 362.69 180.40 364.44 179.07C367.41 176.71 371.22 175.38 375.71 175.38C385.15 175.38 391.87 181.86 391.93 191.06L391.93 191.18C391.93 200.50 385.21 207.04 375.64 207.04C367.23 207.04 361.11 201.96 359.84 195.36L359.72 194.93L342.83 194.93L342.89 195.84C343.98 210.43 356.57 221.51 375.58 221.51Z" fill="#FF00FF"/>
    <path d="M145.26 361.51C166.09 361.51 180.44 351.16 180.44 336.14L180.44 336.02C180.44 324.70 172.03 316.35 160.34 314.04L160.34 313.68C170.39 311.20 177.29 303.87 177.29 294.55L177.29 294.43C177.29 280.93 164.09 271.12 145.26 271.12C126.37 271.12 113.23 280.93 113.23 294.43L113.23 294.55C113.23 303.87 120.08 311.20 130.19 313.68L130.19 314.04C118.44 316.35 110.03 324.70 110.03 336.02L110.03 336.14C110.03 351.16 124.44 361.51 145.26 361.51ZM145.26 308.17C137.03 308.17 131.28 303.27 131.28 296.24L131.28 296.12C131.28 289.16 137.09 284.32 145.26 284.32C153.44 284.32 159.19 289.16 159.19 296.12L159.19 296.24C159.19 303.27 153.50 308.17 145.26 308.17ZM145.26 348.19C135.70 348.19 128.98 342.62 128.98 334.93L128.98 334.81C128.98 327.06 135.64 321.43 145.26 321.43C154.89 321.43 161.49 327.06 161.49 334.81L161.49 334.93C161.49 342.62 154.77 348.19 145.26 348.19ZM225.73 361.51C246.56 361.51 260.91 351.16 260.91 336.14L260.91 336.02C260.91 324.70 252.49 316.35 240.81 314.04L240.81 313.68C250.86 311.20 257.76 303.87 257.76 294.55L257.76 294.43C257.76 280.93 244.56 271.12 225.73 271.12C206.84 271.12 193.70 280.93 193.70 294.43L193.70 294.55C193.70 303.87 200.54 311.20 210.65 313.68L210.65 314.04C198.91 316.35 190.49 324.70 190.49 336.02L190.49 336.14C190.49 351.16 204.90 361.51 225.73 361.51ZM225.73 308.17C217.50 308.17 211.74 303.27 211.74 296.24L211.74 296.12C211.74 289.16 217.56 284.32 225.73 284.32C233.90 284.32 239.66 289.16 239.66 296.12L239.66 296.24C239.66 303.27 233.96 308.17 225.73 308.17ZM225.73 348.19C216.16 348.19 209.44 342.62 209.44 334.93L209.44 334.81C209.44 327.06 216.10 321.43 225.73 321.43C235.36 321.43 241.96 327.06 241.96 334.81L241.96 334.93C241.96 342.62 235.24 348.19 225.73 348.19ZM291.30 317.62C303.84 317.62 311.53 308.84 311.53 294.73L311.53 294.67C311.53 280.62 303.84 271.84 291.30 271.84C278.71 271.84 271.02 280.62 271.02 294.67L271.02 294.73C271.02 308.84 278.71 317.62 291.30 317.62ZM300.32 360L355.48 272.63L342.04 272.63L286.82 360ZM291.30 307.57C286.40 307.57 283.67 303.03 283.67 294.73L283.67 294.67C283.67 286.44 286.40 281.89 291.30 281.89C296.15 281.89 298.81 286.44 298.81 294.67L298.81 294.73C298.81 303.03 296.15 307.57 291.30 307.57ZM351.06 360.79C363.60 360.79 371.29 352.01 371.29 337.90L371.29 337.84C371.29 323.79 363.60 315.01 351.06 315.01C338.47 315.01 330.78 323.79 330.78 337.84L330.78 337.90C330.78 352.01 338.47 360.79 351.06 360.79ZM351.06 350.74C346.16 350.74 343.43 346.20 343.43 337.90L343.43 337.84C343.43 329.61 346.16 325.06 351.06 325.06C355.91 325.06 358.57 329.61 358.57 337.84L358.57 337.90C358.57 346.20 355.91 350.74 351.06 350.74Z" fill="#FF00FF" opacity="0.5"/>
</svg>
