
<svg xmlns="http://www.w3.org/2000/svg" viewBox="0 0 1080 1350" width="1080" height="1350">
  <rect width="1080" height="1350" fill="#2F4F4F"/>
  
  <!-- Background circle with opacity -->
  <circle opacity="0.12" cx="750.5" cy="1000.5" r="186.692" 
    fill="none"
    stroke="#FFFFFF" 
    stroke-width="85.6166"/>
  
  <!-- Progress arc -->
  <path d="M750.5 813.808 A186.692 186.692 0 0 1 912.1800146833244 1093.846" 
    fill="none"
    stroke="#FFDAB9" 
    stroke-width="85.6166" 
    stroke-linecap="round" 
    stroke-linejoin="round"/>
  
  <path d="M111.18 220L174.69 220L174.69 205.47L135.09 205.47L135.09 204.74L153.38 188.03C168.45 174.17 173.48 167.26 173.48 156.67L173.48 156.55C173.48 141.65 160.76 131.12 142.30 131.12C123.83 131.12 110.15 142.68 110.15 159.15L110.15 159.63L127.10 159.63L127.16 159.09C127.40 151.22 133.46 145.35 142.42 145.35C150.17 145.35 155.62 150.43 155.68 157.58L155.68 157.70C155.68 163.75 153.32 168.05 142.05 178.59L111.18 207.47ZM220.46 221.51C242.62 221.51 256.06 204.14 256.06 176.35L256.06 176.22C256.06 148.43 242.62 131.12 220.46 131.12C198.30 131.12 184.86 148.43 184.86 176.22L184.86 176.35C184.86 204.14 198.30 221.51 220.46 221.51ZM220.46 206.86C209.56 206.86 203.33 195.54 203.33 176.35L203.33 176.22C203.33 157.03 209.56 145.77 220.46 145.77C231.36 145.77 237.60 157.03 237.60 176.22L237.60 176.35C237.60 195.54 231.36 206.86 220.46 206.86ZM267.27 220L330.78 220L330.78 205.47L291.18 205.47L291.18 204.74L309.47 188.03C324.54 174.17 329.57 167.26 329.57 156.67L329.57 156.55C329.57 141.65 316.85 131.12 298.39 131.12C279.92 131.12 266.24 142.68 266.24 159.15L266.24 159.63L283.19 159.63L283.25 159.09C283.49 151.22 289.55 145.35 298.51 145.35C306.26 145.35 311.71 150.43 311.77 157.58L311.77 157.70C311.77 163.75 309.41 168.05 298.14 178.59L267.27 207.47ZM375.58 221.51C395.56 221.51 409.37 209.10 409.37 190.82L409.37 190.70C409.37 174.23 397.38 162.30 380.79 162.30C371.95 162.30 364.75 165.87 361.11 171.74L360.75 171.74L362.87 147.16L404.10 147.16L404.10 132.63L348.34 132.63L344.34 183.91L360.27 183.91C361.29 182.10 362.69 180.40 364.44 179.07C367.41 176.71 371.22 175.38 375.71 175.38C385.15 175.38 391.87 181.86 391.93 191.06L391.93 191.18C391.93 200.50 385.21 207.04 375.64 207.04C367.23 207.04 361.11 201.96 359.84 195.36L359.72 194.93L342.83 194.93L342.89 195.84C343.98 210.43 356.57 221.51 375.58 221.51Z" fill="#FFDAB9"/>
    <path d="M144.72 361.51C164.70 361.51 178.50 349.10 178.50 330.82L178.50 330.70C178.50 314.23 166.52 302.30 149.93 302.30C141.09 302.30 133.88 305.87 130.25 311.74L129.88 311.74L132.00 287.16L173.24 287.16L173.24 272.63L117.47 272.63L113.48 323.91L129.40 323.91C130.43 322.10 131.82 320.40 133.58 319.07C136.54 316.71 140.36 315.38 144.84 315.38C154.29 315.38 161.01 321.86 161.07 331.06L161.07 331.18C161.07 340.50 154.35 347.04 144.78 347.04C136.36 347.04 130.25 341.96 128.98 335.36L128.86 334.93L111.96 334.93L112.02 335.84C113.11 350.43 125.71 361.51 144.72 361.51ZM223.19 361.51C245.35 361.51 258.79 344.14 258.79 316.35L258.79 316.22C258.79 288.43 245.35 271.12 223.19 271.12C201.03 271.12 187.59 288.43 187.59 316.22L187.59 316.35C187.59 344.14 201.03 361.51 223.19 361.51ZM223.19 346.86C212.29 346.86 206.05 335.54 206.05 316.35L206.05 316.22C206.05 297.03 212.29 285.77 223.19 285.77C234.09 285.77 240.32 297.03 240.32 316.22L240.32 316.35C240.32 335.54 234.09 346.86 223.19 346.86ZM289.18 317.62C301.72 317.62 309.41 308.84 309.41 294.73L309.41 294.67C309.41 280.62 301.72 271.84 289.18 271.84C276.59 271.84 268.90 280.62 268.90 294.67L268.90 294.73C268.90 308.84 276.59 317.62 289.18 317.62ZM298.21 360L353.36 272.63L339.92 272.63L284.70 360ZM289.18 307.57C284.28 307.57 281.55 303.03 281.55 294.73L281.55 294.67C281.55 286.44 284.28 281.89 289.18 281.89C294.03 281.89 296.69 286.44 296.69 294.67L296.69 294.73C296.69 303.03 294.03 307.57 289.18 307.57ZM348.94 360.79C361.48 360.79 369.17 352.01 369.17 337.90L369.17 337.84C369.17 323.79 361.48 315.01 348.94 315.01C336.35 315.01 328.66 323.79 328.66 337.84L328.66 337.90C328.66 352.01 336.35 360.79 348.94 360.79ZM348.94 350.74C344.04 350.74 341.31 346.20 341.31 337.90L341.31 337.84C341.31 329.61 344.04 325.06 348.94 325.06C353.79 325.06 356.45 329.61 356.45 337.84L356.45 337.90C356.45 346.20 353.79 350.74 348.94 350.74Z" fill="#FFDAB9" opacity="0.5"/>
</svg>
