
<svg xmlns="http://www.w3.org/2000/svg" viewBox="0 0 1080 1350" width="1080" height="1350">
  <rect width="1080" height="1350" fill="#FFE074"/>
  
  <!-- Background circle with opacity -->
  <circle opacity="0.12" cx="750.5" cy="1000.5" r="186.692" 
    fill="none"
    stroke="#000000" 
    stroke-width="85.6166"/>
  
  <!-- Progress arc -->
  <path d="M750.5 813.808 A186.692 186.692 0 0 1 889.2391937580257 1125.421331162348" 
    fill="none"
    stroke="#4F558B" 
    stroke-width="85.6166" 
    stroke-linecap="round" 
    stroke-linejoin="round"/>
  
  <path d="M111.18 220L174.69 220L174.69 205.47L135.09 205.47L135.09 204.74L153.38 188.03C168.45 174.17 173.48 167.26 173.48 156.67L173.48 156.55C173.48 141.65 160.76 131.12 142.30 131.12C123.83 131.12 110.15 142.68 110.15 159.15L110.15 159.63L127.10 159.63L127.16 159.09C127.40 151.22 133.46 145.35 142.42 145.35C150.17 145.35 155.62 150.43 155.68 157.58L155.68 157.70C155.68 163.75 153.32 168.05 142.05 178.59L111.18 207.47ZM220.46 221.51C242.62 221.51 256.06 204.14 256.06 176.35L256.06 176.22C256.06 148.43 242.62 131.12 220.46 131.12C198.30 131.12 184.86 148.43 184.86 176.22L184.86 176.35C184.86 204.14 198.30 221.51 220.46 221.51ZM220.46 206.86C209.56 206.86 203.33 195.54 203.33 176.35L203.33 176.22C203.33 157.03 209.56 145.77 220.46 145.77C231.36 145.77 237.60 157.03 237.60 176.22L237.60 176.35C237.60 195.54 231.36 206.86 220.46 206.86ZM267.27 220L330.78 220L330.78 205.47L291.18 205.47L291.18 204.74L309.47 188.03C324.54 174.17 329.57 167.26 329.57 156.67L329.57 156.55C329.57 141.65 316.85 131.12 298.39 131.12C279.92 131.12 266.24 142.68 266.24 159.15L266.24 159.63L283.19 159.63L283.25 159.09C283.49 151.22 289.55 145.35 298.51 145.35C306.26 145.35 311.71 150.43 311.77 157.58L311.77 157.70C311.77 163.75 309.41 168.05 298.14 178.59L267.27 207.47ZM375.58 221.51C395.56 221.51 409.37 209.10 409.37 190.82L409.37 190.70C409.37 174.23 397.38 162.30 380.79 162.30C371.95 162.30 364.75 165.87 361.11 171.74L360.75 171.74L362.87 147.16L404.10 147.16L404.10 132.63L348.34 132.63L344.34 183.91L360.27 183.91C361.29 182.10 362.69 180.40 364.44 179.07C367.41 176.71 371.22 175.38 375.71 175.38C385.15 175.38 391.87 181.86 391.93 191.06L391.93 191.18C391.93 200.50 385.21 207.04 375.64 207.04C367.23 207.04 361.11 201.96 359.84 195.36L359.72 194.93L342.83 194.93L342.89 195.84C343.98 210.43 356.57 221.51 375.58 221.51Z" fill="#767272"/>
    <path d="M144.72 361.51C164.70 361.51 178.50 349.10 178.50 330.82L178.50 330.70C178.50 314.23 166.52 302.30 149.93 302.30C141.09 302.30 133.88 305.87 130.25 311.74L129.88 311.74L132.00 287.16L173.24 287.16L173.24 272.63L117.47 272.63L113.48 323.91L129.40 323.91C130.43 322.10 131.82 320.40 133.58 319.07C136.54 316.71 140.36 315.38 144.84 315.38C154.29 315.38 161.01 321.86 161.07 331.06L161.07 331.18C161.07 340.50 154.35 347.04 144.78 347.04C136.36 347.04 130.25 341.96 128.98 335.36L128.86 334.93L111.96 334.93L112.02 335.84C113.11 350.43 125.71 361.51 144.72 361.51ZM222.22 361.51C242.20 361.51 256.00 349.10 256.00 330.82L256.00 330.70C256.00 314.23 244.02 302.30 227.43 302.30C218.59 302.30 211.38 305.87 207.75 311.74L207.38 311.74L209.50 287.16L250.74 287.16L250.74 272.63L194.97 272.63L190.98 323.91L206.90 323.91C207.93 322.10 209.32 320.40 211.08 319.07C214.04 316.71 217.86 315.38 222.34 315.38C231.79 315.38 238.51 321.86 238.57 331.06L238.57 331.18C238.57 340.50 231.85 347.04 222.28 347.04C213.86 347.04 207.75 341.96 206.48 335.36L206.36 334.93L189.46 334.93L189.52 335.84C190.61 350.43 203.21 361.51 222.22 361.51ZM285.37 317.62C297.90 317.62 305.59 308.84 305.59 294.73L305.59 294.67C305.59 280.62 297.90 271.84 285.37 271.84C272.78 271.84 265.09 280.62 265.09 294.67L265.09 294.73C265.09 308.84 272.78 317.62 285.37 317.62ZM294.39 360L349.55 272.63L336.11 272.63L280.89 360ZM285.37 307.57C280.46 307.57 277.74 303.03 277.74 294.73L277.74 294.67C277.74 286.44 280.46 281.89 285.37 281.89C290.21 281.89 292.88 286.44 292.88 294.67L292.88 294.73C292.88 303.03 290.21 307.57 285.37 307.57ZM345.13 360.79C357.66 360.79 365.35 352.01 365.35 337.90L365.35 337.84C365.35 323.79 357.66 315.01 345.13 315.01C332.54 315.01 324.85 323.79 324.85 337.84L324.85 337.90C324.85 352.01 332.54 360.79 345.13 360.79ZM345.13 350.74C340.22 350.74 337.50 346.20 337.50 337.90L337.50 337.84C337.50 329.61 340.22 325.06 345.13 325.06C349.97 325.06 352.64 329.61 352.64 337.84L352.64 337.90C352.64 346.20 349.97 350.74 345.13 350.74Z" fill="#767272" opacity="0.5"/>
</svg>
