
<svg xmlns="http://www.w3.org/2000/svg" viewBox="0 0 1080 1350" width="1080" height="1350">
  <rect width="1080" height="1350" fill="#EC68CF"/>
  
  <!-- Background circle with opacity -->
  <circle opacity="0.12" cx="750.5" cy="1000.5" r="186.692" 
    fill="none"
    stroke="white" 
    stroke-width="85.6166"/>
  
  <!-- Progress arc -->
  <path d="M750.5 813.808 A186.692 186.692 0 0 1 750.5 813.808" 
    fill="none"
    stroke="#50FBE6" 
    stroke-width="85.6166" 
    stroke-linecap="round" 
    stroke-linejoin="round"/>
  
  <path d="M111.18 220L174.69 220L174.69 205.47L135.09 205.47L135.09 204.74L153.38 188.03C168.45 174.17 173.48 167.26 173.48 156.67L173.48 156.55C173.48 141.65 160.76 131.12 142.30 131.12C123.83 131.12 110.15 142.68 110.15 159.15L110.15 159.63L127.10 159.63L127.16 159.09C127.40 151.22 133.46 145.35 142.42 145.35C150.17 145.35 155.62 150.43 155.68 157.58L155.68 157.70C155.68 163.75 153.32 168.05 142.05 178.59L111.18 207.47ZM220.46 221.51C242.62 221.51 256.06 204.14 256.06 176.35L256.06 176.22C256.06 148.43 242.62 131.12 220.46 131.12C198.30 131.12 184.86 148.43 184.86 176.22L184.86 176.35C184.86 204.14 198.30 221.51 220.46 221.51ZM220.46 206.86C209.56 206.86 203.33 195.54 203.33 176.35L203.33 176.22C203.33 157.03 209.56 145.77 220.46 145.77C231.36 145.77 237.60 157.03 237.60 176.22L237.60 176.35C237.60 195.54 231.36 206.86 220.46 206.86ZM267.27 220L330.78 220L330.78 205.47L291.18 205.47L291.18 204.74L309.47 188.03C324.54 174.17 329.57 167.26 329.57 156.67L329.57 156.55C329.57 141.65 316.85 131.12 298.39 131.12C279.92 131.12 266.24 142.68 266.24 159.15L266.24 159.63L283.19 159.63L283.25 159.09C283.49 151.22 289.55 145.35 298.51 145.35C306.26 145.35 311.71 150.43 311.77 157.58L311.77 157.70C311.77 163.75 309.41 168.05 298.14 178.59L267.27 207.47ZM377.28 221.51C396.71 221.51 410.94 208.80 410.94 190.94L410.94 190.82C410.94 174.47 399.38 162.48 382.49 162.48C370.68 162.48 362.08 168.41 358.63 176.53L358.27 176.53C358.27 175.62 358.33 174.41 358.39 173.20C359.05 157.76 364.63 145.59 377.40 145.59C384.54 145.59 389.39 149.16 391.57 154.43L391.75 154.97L409.79 154.97L409.67 154.37C407.07 140.87 394.35 131.12 377.46 131.12C354.70 131.12 340.83 148.31 340.83 176.95L340.83 177.07C340.83 206.68 356.21 221.51 377.28 221.51ZM361.05 191.36L361.05 191.24C361.05 182.34 368.08 175.98 377.22 175.98C386.30 175.98 393.14 182.40 393.14 191.48L393.14 191.60C393.14 200.20 385.94 206.98 377.04 206.98C368.08 206.98 361.05 200.14 361.05 191.36Z" fill="white"/>
    <path d="M145.69 361.51C167.85 361.51 181.29 344.14 181.29 316.35L181.29 316.22C181.29 288.43 167.85 271.12 145.69 271.12C123.53 271.12 110.09 288.43 110.09 316.22L110.09 316.35C110.09 344.14 123.53 361.51 145.69 361.51ZM145.69 346.86C134.79 346.86 128.55 335.54 128.55 316.35L128.55 316.22C128.55 297.03 134.79 285.77 145.69 285.77C156.59 285.77 162.82 297.03 162.82 316.22L162.82 316.35C162.82 335.54 156.59 346.86 145.69 346.86ZM211.68 317.62C224.22 317.62 231.91 308.84 231.91 294.73L231.91 294.67C231.91 280.62 224.22 271.84 211.68 271.84C199.09 271.84 191.40 280.62 191.40 294.67L191.40 294.73C191.40 308.84 199.09 317.62 211.68 317.62ZM220.71 360L275.86 272.63L262.42 272.63L207.20 360ZM211.68 307.57C206.78 307.57 204.05 303.03 204.05 294.73L204.05 294.67C204.05 286.44 206.78 281.89 211.68 281.89C216.53 281.89 219.19 286.44 219.19 294.67L219.19 294.73C219.19 303.03 216.53 307.57 211.68 307.57ZM271.44 360.79C283.98 360.79 291.67 352.01 291.67 337.90L291.67 337.84C291.67 323.79 283.98 315.01 271.44 315.01C258.85 315.01 251.16 323.79 251.16 337.84L251.16 337.90C251.16 352.01 258.85 360.79 271.44 360.79ZM271.44 350.74C266.54 350.74 263.81 346.20 263.81 337.90L263.81 337.84C263.81 329.61 266.54 325.06 271.44 325.06C276.29 325.06 278.95 329.61 278.95 337.84L278.95 337.90C278.95 346.20 276.29 350.74 271.44 350.74Z" fill="white" opacity="0.5"/>
</svg>
