
<svg xmlns="http://www.w3.org/2000/svg" viewBox="0 0 1080 1350" width="1080" height="1350">
  <rect width="1080" height="1350" fill="#00B3FF"/>
  
  <!-- Background circle with opacity -->
  <circle opacity="0.12" cx="750.5" cy="1000.5" r="186.692" 
    fill="none"
    stroke="#ff4c00" 
    stroke-width="85.6166"/>
  
  <!-- Progress arc -->
  <path d="M750.5 813.808 A186.692 186.692 0 1 1 674.5655226308927 1171.0516285782126" 
    fill="none"
    stroke="#B6FF8F" 
    stroke-width="85.6166" 
    stroke-linecap="round" 
    stroke-linejoin="round"/>
  
  <path d="M111.18 220L174.69 220L174.69 205.47L135.09 205.47L135.09 204.74L153.38 188.03C168.45 174.17 173.48 167.26 173.48 156.67L173.48 156.55C173.48 141.65 160.76 131.12 142.30 131.12C123.83 131.12 110.15 142.68 110.15 159.15L110.15 159.63L127.10 159.63L127.16 159.09C127.40 151.22 133.46 145.35 142.42 145.35C150.17 145.35 155.62 150.43 155.68 157.58L155.68 157.70C155.68 163.75 153.32 168.05 142.05 178.59L111.18 207.47ZM220.46 221.51C242.62 221.51 256.06 204.14 256.06 176.35L256.06 176.22C256.06 148.43 242.62 131.12 220.46 131.12C198.30 131.12 184.86 148.43 184.86 176.22L184.86 176.35C184.86 204.14 198.30 221.51 220.46 221.51ZM220.46 206.86C209.56 206.86 203.33 195.54 203.33 176.35L203.33 176.22C203.33 157.03 209.56 145.77 220.46 145.77C231.36 145.77 237.60 157.03 237.60 176.22L237.60 176.35C237.60 195.54 231.36 206.86 220.46 206.86ZM267.27 220L330.78 220L330.78 205.47L291.18 205.47L291.18 204.74L309.47 188.03C324.54 174.17 329.57 167.26 329.57 156.67L329.57 156.55C329.57 141.65 316.85 131.12 298.39 131.12C279.92 131.12 266.24 142.68 266.24 159.15L266.24 159.63L283.19 159.63L283.25 159.09C283.49 151.22 289.55 145.35 298.51 145.35C306.26 145.35 311.71 150.43 311.77 157.58L311.77 157.70C311.77 163.75 309.41 168.05 298.14 178.59L267.27 207.47ZM375.58 221.51C395.56 221.51 409.37 209.10 409.37 190.82L409.37 190.70C409.37 174.23 397.38 162.30 380.79 162.30C371.95 162.30 364.75 165.87 361.11 171.74L360.75 171.74L362.87 147.16L404.10 147.16L404.10 132.63L348.34 132.63L344.34 183.91L360.27 183.91C361.29 182.10 362.69 180.40 364.44 179.07C367.41 176.71 371.22 175.38 375.71 175.38C385.15 175.38 391.87 181.86 391.93 191.06L391.93 191.18C391.93 200.50 385.21 207.04 375.64 207.04C367.23 207.04 361.11 201.96 359.84 195.36L359.72 194.93L342.83 194.93L342.89 195.84C343.98 210.43 356.57 221.51 375.58 221.51Z" fill="#B6FF8F"/>
    <path d="M145.26 361.51C166.09 361.51 180.44 351.16 180.44 336.14L180.44 336.02C180.44 324.70 172.03 316.35 160.34 314.04L160.34 313.68C170.39 311.20 177.29 303.87 177.29 294.55L177.29 294.43C177.29 280.93 164.09 271.12 145.26 271.12C126.37 271.12 113.23 280.93 113.23 294.43L113.23 294.55C113.23 303.87 120.08 311.20 130.19 313.68L130.19 314.04C118.44 316.35 110.03 324.70 110.03 336.02L110.03 336.14C110.03 351.16 124.44 361.51 145.26 361.51ZM145.26 308.17C137.03 308.17 131.28 303.27 131.28 296.24L131.28 296.12C131.28 289.16 137.09 284.32 145.26 284.32C153.44 284.32 159.19 289.16 159.19 296.12L159.19 296.24C159.19 303.27 153.50 308.17 145.26 308.17ZM145.26 348.19C135.70 348.19 128.98 342.62 128.98 334.93L128.98 334.81C128.98 327.06 135.64 321.43 145.26 321.43C154.89 321.43 161.49 327.06 161.49 334.81L161.49 334.93C161.49 342.62 154.77 348.19 145.26 348.19ZM225.19 361.51C245.17 361.51 258.97 349.10 258.97 330.82L258.97 330.70C258.97 314.23 246.98 302.30 230.39 302.30C221.55 302.30 214.35 305.87 210.71 311.74L210.35 311.74L212.47 287.16L253.70 287.16L253.70 272.63L197.94 272.63L193.94 323.91L209.87 323.91C210.90 322.10 212.29 320.40 214.04 319.07C217.01 316.71 220.83 315.38 225.31 315.38C234.75 315.38 241.47 321.86 241.53 331.06L241.53 331.18C241.53 340.50 234.81 347.04 225.25 347.04C216.83 347.04 210.71 341.96 209.44 335.36L209.32 334.93L192.43 334.93L192.49 335.84C193.58 350.43 206.17 361.51 225.19 361.51ZM288.34 317.62C300.87 317.62 308.56 308.84 308.56 294.73L308.56 294.67C308.56 280.62 300.87 271.84 288.34 271.84C275.74 271.84 268.05 280.62 268.05 294.67L268.05 294.73C268.05 308.84 275.74 317.62 288.34 317.62ZM297.36 360L352.52 272.63L339.07 272.63L283.86 360ZM288.34 307.57C283.43 307.57 280.71 303.03 280.71 294.73L280.71 294.67C280.71 286.44 283.43 281.89 288.34 281.89C293.18 281.89 295.84 286.44 295.84 294.67L295.84 294.73C295.84 303.03 293.18 307.57 288.34 307.57ZM348.10 360.79C360.63 360.79 368.32 352.01 368.32 337.90L368.32 337.84C368.32 323.79 360.63 315.01 348.10 315.01C335.50 315.01 327.81 323.79 327.81 337.84L327.81 337.90C327.81 352.01 335.50 360.79 348.10 360.79ZM348.10 350.74C343.19 350.74 340.47 346.20 340.47 337.90L340.47 337.84C340.47 329.61 343.19 325.06 348.10 325.06C352.94 325.06 355.60 329.61 355.60 337.84L355.60 337.90C355.60 346.20 352.94 350.74 348.10 350.74Z" fill="#B6FF8F" opacity="0.5"/>
</svg>
