
<svg xmlns="http://www.w3.org/2000/svg" viewBox="0 0 1080 1350" width="1080" height="1350">
  <rect width="1080" height="1350" fill="#543B0C"/>
  
  <!-- Background circle with opacity -->
  <circle opacity="0.12" cx="750.5" cy="1000.5" r="186.692" 
    fill="none"
    stroke="#FFFFFF" 
    stroke-width="85.6166"/>
  
  <!-- Progress arc -->
  <path d="M750.5 813.808 A186.692 186.692 0 0 1 899.2057634557732 1113.3738179518864" 
    fill="none"
    stroke="#938611" 
    stroke-width="85.6166" 
    stroke-linecap="round" 
    stroke-linejoin="round"/>
  
  <path d="M111.18 220L174.69 220L174.69 205.47L135.09 205.47L135.09 204.74L153.38 188.03C168.45 174.17 173.48 167.26 173.48 156.67L173.48 156.55C173.48 141.65 160.76 131.12 142.30 131.12C123.83 131.12 110.15 142.68 110.15 159.15L110.15 159.63L127.10 159.63L127.16 159.09C127.40 151.22 133.46 145.35 142.42 145.35C150.17 145.35 155.62 150.43 155.68 157.58L155.68 157.70C155.68 163.75 153.32 168.05 142.05 178.59L111.18 207.47ZM220.46 221.51C242.62 221.51 256.06 204.14 256.06 176.35L256.06 176.22C256.06 148.43 242.62 131.12 220.46 131.12C198.30 131.12 184.86 148.43 184.86 176.22L184.86 176.35C184.86 204.14 198.30 221.51 220.46 221.51ZM220.46 206.86C209.56 206.86 203.33 195.54 203.33 176.35L203.33 176.22C203.33 157.03 209.56 145.77 220.46 145.77C231.36 145.77 237.60 157.03 237.60 176.22L237.60 176.35C237.60 195.54 231.36 206.86 220.46 206.86ZM267.27 220L330.78 220L330.78 205.47L291.18 205.47L291.18 204.74L309.47 188.03C324.54 174.17 329.57 167.26 329.57 156.67L329.57 156.55C329.57 141.65 316.85 131.12 298.39 131.12C279.92 131.12 266.24 142.68 266.24 159.15L266.24 159.63L283.19 159.63L283.25 159.09C283.49 151.22 289.55 145.35 298.51 145.35C306.26 145.35 311.71 150.43 311.77 157.58L311.77 157.70C311.77 163.75 309.41 168.05 298.14 178.59L267.27 207.47ZM375.58 221.51C395.56 221.51 409.37 209.10 409.37 190.82L409.37 190.70C409.37 174.23 397.38 162.30 380.79 162.30C371.95 162.30 364.75 165.87 361.11 171.74L360.75 171.74L362.87 147.16L404.10 147.16L404.10 132.63L348.34 132.63L344.34 183.91L360.27 183.91C361.29 182.10 362.69 180.40 364.44 179.07C367.41 176.71 371.22 175.38 375.71 175.38C385.15 175.38 391.87 181.86 391.93 191.06L391.93 191.18C391.93 200.50 385.21 207.04 375.64 207.04C367.23 207.04 361.11 201.96 359.84 195.36L359.72 194.93L342.83 194.93L342.89 195.84C343.98 210.43 356.57 221.51 375.58 221.51Z" fill="#BCB35F"/>
    <path d="M144.72 361.51C164.70 361.51 178.50 349.10 178.50 330.82L178.50 330.70C178.50 314.23 166.52 302.30 149.93 302.30C141.09 302.30 133.88 305.87 130.25 311.74L129.88 311.74L132.00 287.16L173.24 287.16L173.24 272.63L117.47 272.63L113.48 323.91L129.40 323.91C130.43 322.10 131.82 320.40 133.58 319.07C136.54 316.71 140.36 315.38 144.84 315.38C154.29 315.38 161.01 321.86 161.07 331.06L161.07 331.18C161.07 340.50 154.35 347.04 144.78 347.04C136.36 347.04 130.25 341.96 128.98 335.36L128.86 334.93L111.96 334.93L112.02 335.84C113.11 350.43 125.71 361.51 144.72 361.51ZM221.19 361.51C241.59 361.51 255.16 350.98 255.16 335.36L255.16 335.24C255.16 323.37 246.68 315.86 233.72 314.65L233.72 314.29C243.96 312.17 251.95 305.08 251.95 294.19L251.95 294.06C251.95 280.32 239.84 271.12 221.01 271.12C202.66 271.12 190.37 281.05 189.16 296.18L189.10 296.91L205.87 296.91L205.93 296.37C206.66 289.58 212.47 285.16 221.01 285.16C229.61 285.16 234.63 289.40 234.63 296.49L234.63 296.61C234.63 303.69 228.70 308.54 219.55 308.54L209.81 308.54L209.81 321.55L219.80 321.55C230.33 321.55 236.57 326.15 236.57 334.51L236.57 334.63C236.57 341.78 230.51 346.80 221.13 346.80C211.68 346.80 205.51 342.14 204.72 335.90L204.60 335.24L187.16 335.24L187.22 336.02C188.43 351.10 201.39 361.51 221.19 361.51ZM285.97 317.62C298.51 317.62 306.20 308.84 306.20 294.73L306.20 294.67C306.20 280.62 298.51 271.84 285.97 271.84C273.38 271.84 265.69 280.62 265.69 294.67L265.69 294.73C265.69 308.84 273.38 317.62 285.97 317.62ZM295.00 360L350.15 272.63L336.71 272.63L281.49 360ZM285.97 307.57C281.07 307.57 278.35 303.03 278.35 294.73L278.35 294.67C278.35 286.44 281.07 281.89 285.97 281.89C290.82 281.89 293.48 286.44 293.48 294.67L293.48 294.73C293.48 303.03 290.82 307.57 285.97 307.57ZM345.73 360.79C358.27 360.79 365.96 352.01 365.96 337.90L365.96 337.84C365.96 323.79 358.27 315.01 345.73 315.01C333.14 315.01 325.45 323.79 325.45 337.84L325.45 337.90C325.45 352.01 333.14 360.79 345.73 360.79ZM345.73 350.74C340.83 350.74 338.11 346.20 338.11 337.90L338.11 337.84C338.11 329.61 340.83 325.06 345.73 325.06C350.58 325.06 353.24 329.61 353.24 337.84L353.24 337.90C353.24 346.20 350.58 350.74 345.73 350.74Z" fill="#BCB35F" opacity="0.5"/>
</svg>
