
<svg xmlns="http://www.w3.org/2000/svg" viewBox="0 0 1080 1350" width="1080" height="1350">
  <rect width="1080" height="1350" fill="#DC143C"/>
  
  <!-- Background circle with opacity -->
  <circle opacity="0.12" cx="750.5" cy="1000.5" r="186.692" 
    fill="none"
    stroke="#FFFFFF" 
    stroke-width="85.6166"/>
  
  <!-- Progress arc -->
  <path d="M750.5 813.808 A186.692 186.692 0 1 1 696.5400757648428 1179.2238916332567" 
    fill="none"
    stroke="#87CEEB" 
    stroke-width="85.6166" 
    stroke-linecap="round" 
    stroke-linejoin="round"/>
  
  <path d="M111.18 220L174.69 220L174.69 205.47L135.09 205.47L135.09 204.74L153.38 188.03C168.45 174.17 173.48 167.26 173.48 156.67L173.48 156.55C173.48 141.65 160.76 131.12 142.30 131.12C123.83 131.12 110.15 142.68 110.15 159.15L110.15 159.63L127.10 159.63L127.16 159.09C127.40 151.22 133.46 145.35 142.42 145.35C150.17 145.35 155.62 150.43 155.68 157.58L155.68 157.70C155.68 163.75 153.32 168.05 142.05 178.59L111.18 207.47ZM220.46 221.51C242.62 221.51 256.06 204.14 256.06 176.35L256.06 176.22C256.06 148.43 242.62 131.12 220.46 131.12C198.30 131.12 184.86 148.43 184.86 176.22L184.86 176.35C184.86 204.14 198.30 221.51 220.46 221.51ZM220.46 206.86C209.56 206.86 203.33 195.54 203.33 176.35L203.33 176.22C203.33 157.03 209.56 145.77 220.46 145.77C231.36 145.77 237.60 157.03 237.60 176.22L237.60 176.35C237.60 195.54 231.36 206.86 220.46 206.86ZM267.27 220L330.78 220L330.78 205.47L291.18 205.47L291.18 204.74L309.47 188.03C324.54 174.17 329.57 167.26 329.57 156.67L329.57 156.55C329.57 141.65 316.85 131.12 298.39 131.12C279.92 131.12 266.24 142.68 266.24 159.15L266.24 159.63L283.19 159.63L283.25 159.09C283.49 151.22 289.55 145.35 298.51 145.35C306.26 145.35 311.71 150.43 311.77 157.58L311.77 157.70C311.77 163.75 309.41 168.05 298.14 178.59L267.27 207.47ZM375.58 221.51C395.56 221.51 409.37 209.10 409.37 190.82L409.37 190.70C409.37 174.23 397.38 162.30 380.79 162.30C371.95 162.30 364.75 165.87 361.11 171.74L360.75 171.74L362.87 147.16L404.10 147.16L404.10 132.63L348.34 132.63L344.34 183.91L360.27 183.91C361.29 182.10 362.69 180.40 364.44 179.07C367.41 176.71 371.22 175.38 375.71 175.38C385.15 175.38 391.87 181.86 391.93 191.06L391.93 191.18C391.93 200.50 385.21 207.04 375.64 207.04C367.23 207.04 361.11 201.96 359.84 195.36L359.72 194.93L342.83 194.93L342.89 195.84C343.98 210.43 356.57 221.51 375.58 221.51Z" fill="#87CEEB"/>
    <path d="M145.26 361.51C166.09 361.51 180.44 351.16 180.44 336.14L180.44 336.02C180.44 324.70 172.03 316.35 160.34 314.04L160.34 313.68C170.39 311.20 177.29 303.87 177.29 294.55L177.29 294.43C177.29 280.93 164.09 271.12 145.26 271.12C126.37 271.12 113.23 280.93 113.23 294.43L113.23 294.55C113.23 303.87 120.08 311.20 130.19 313.68L130.19 314.04C118.44 316.35 110.03 324.70 110.03 336.02L110.03 336.14C110.03 351.16 124.44 361.51 145.26 361.51ZM145.26 308.17C137.03 308.17 131.28 303.27 131.28 296.24L131.28 296.12C131.28 289.16 137.09 284.32 145.26 284.32C153.44 284.32 159.19 289.16 159.19 296.12L159.19 296.24C159.19 303.27 153.50 308.17 145.26 308.17ZM145.26 348.19C135.70 348.19 128.98 342.62 128.98 334.93L128.98 334.81C128.98 327.06 135.64 321.43 145.26 321.43C154.89 321.43 161.49 327.06 161.49 334.81L161.49 334.93C161.49 342.62 154.77 348.19 145.26 348.19ZM191.64 360L255.16 360L255.16 345.47L215.56 345.47L215.56 344.74L233.84 328.03C248.92 314.17 253.95 307.26 253.95 296.67L253.95 296.55C253.95 281.65 241.23 271.12 222.76 271.12C204.30 271.12 190.61 282.68 190.61 299.15L190.61 299.63L207.57 299.63L207.63 299.09C207.87 291.22 213.92 285.35 222.88 285.35C230.63 285.35 236.08 290.43 236.14 297.58L236.14 297.70C236.14 303.75 233.78 308.05 222.52 318.59L191.64 347.47ZM285.61 317.62C298.14 317.62 305.83 308.84 305.83 294.73L305.83 294.67C305.83 280.62 298.14 271.84 285.61 271.84C273.02 271.84 265.33 280.62 265.33 294.67L265.33 294.73C265.33 308.84 273.02 317.62 285.61 317.62ZM294.63 360L349.79 272.63L336.35 272.63L281.13 360ZM285.61 307.57C280.71 307.57 277.98 303.03 277.98 294.73L277.98 294.67C277.98 286.44 280.71 281.89 285.61 281.89C290.46 281.89 293.12 286.44 293.12 294.67L293.12 294.73C293.12 303.03 290.46 307.57 285.61 307.57ZM345.37 360.79C357.90 360.79 365.59 352.01 365.59 337.90L365.59 337.84C365.59 323.79 357.90 315.01 345.37 315.01C332.78 315.01 325.09 323.79 325.09 337.84L325.09 337.90C325.09 352.01 332.78 360.79 345.37 360.79ZM345.37 350.74C340.47 350.74 337.74 346.20 337.74 337.90L337.74 337.84C337.74 329.61 340.47 325.06 345.37 325.06C350.21 325.06 352.88 329.61 352.88 337.84L352.88 337.90C352.88 346.20 350.21 350.74 345.37 350.74Z" fill="#87CEEB" opacity="0.5"/>
</svg>
