
<svg xmlns="http://www.w3.org/2000/svg" viewBox="0 0 1080 1350" width="1080" height="1350">
  <rect width="1080" height="1350" fill="#7389FF"/>
  
  <!-- Background circle with opacity -->
  <circle opacity="0.12" cx="750.5" cy="1000.5" r="186.692" 
    fill="none"
    stroke="#FFFFFF" 
    stroke-width="85.6166"/>
  
  <!-- Progress arc -->
  <path d="M750.5 813.808 A186.692 186.692 0 0 1 840.4395569253975 836.900553289251" 
    fill="none"
    stroke="#FF61A3" 
    stroke-width="85.6166" 
    stroke-linecap="round" 
    stroke-linejoin="round"/>
  
  <path d="M111.18 220L174.69 220L174.69 205.47L135.09 205.47L135.09 204.74L153.38 188.03C168.45 174.17 173.48 167.26 173.48 156.67L173.48 156.55C173.48 141.65 160.76 131.12 142.30 131.12C123.83 131.12 110.15 142.68 110.15 159.15L110.15 159.63L127.10 159.63L127.16 159.09C127.40 151.22 133.46 145.35 142.42 145.35C150.17 145.35 155.62 150.43 155.68 157.58L155.68 157.70C155.68 163.75 153.32 168.05 142.05 178.59L111.18 207.47ZM220.46 221.51C242.62 221.51 256.06 204.14 256.06 176.35L256.06 176.22C256.06 148.43 242.62 131.12 220.46 131.12C198.30 131.12 184.86 148.43 184.86 176.22L184.86 176.35C184.86 204.14 198.30 221.51 220.46 221.51ZM220.46 206.86C209.56 206.86 203.33 195.54 203.33 176.35L203.33 176.22C203.33 157.03 209.56 145.77 220.46 145.77C231.36 145.77 237.60 157.03 237.60 176.22L237.60 176.35C237.60 195.54 231.36 206.86 220.46 206.86ZM267.27 220L330.78 220L330.78 205.47L291.18 205.47L291.18 204.74L309.47 188.03C324.54 174.17 329.57 167.26 329.57 156.67L329.57 156.55C329.57 141.65 316.85 131.12 298.39 131.12C279.92 131.12 266.24 142.68 266.24 159.15L266.24 159.63L283.19 159.63L283.25 159.09C283.49 151.22 289.55 145.35 298.51 145.35C306.26 145.35 311.71 150.43 311.77 157.58L311.77 157.70C311.77 163.75 309.41 168.05 298.14 178.59L267.27 207.47ZM377.28 221.51C396.71 221.51 410.94 208.80 410.94 190.94L410.94 190.82C410.94 174.47 399.38 162.48 382.49 162.48C370.68 162.48 362.08 168.41 358.63 176.53L358.27 176.53C358.27 175.62 358.33 174.41 358.39 173.20C359.05 157.76 364.63 145.59 377.40 145.59C384.54 145.59 389.39 149.16 391.57 154.43L391.75 154.97L409.79 154.97L409.67 154.37C407.07 140.87 394.35 131.12 377.46 131.12C354.70 131.12 340.83 148.31 340.83 176.95L340.83 177.07C340.83 206.68 356.21 221.51 377.28 221.51ZM361.05 191.36L361.05 191.24C361.05 182.34 368.08 175.98 377.22 175.98C386.30 175.98 393.14 182.40 393.14 191.48L393.14 191.60C393.14 200.20 385.94 206.98 377.04 206.98C368.08 206.98 361.05 200.14 361.05 191.36Z" fill="white"/>
    <path d="M145.26 361.51C166.09 361.51 180.44 351.16 180.44 336.14L180.44 336.02C180.44 324.70 172.03 316.35 160.34 314.04L160.34 313.68C170.39 311.20 177.29 303.87 177.29 294.55L177.29 294.43C177.29 280.93 164.09 271.12 145.26 271.12C126.37 271.12 113.23 280.93 113.23 294.43L113.23 294.55C113.23 303.87 120.08 311.20 130.19 313.68L130.19 314.04C118.44 316.35 110.03 324.70 110.03 336.02L110.03 336.14C110.03 351.16 124.44 361.51 145.26 361.51ZM145.26 308.17C137.03 308.17 131.28 303.27 131.28 296.24L131.28 296.12C131.28 289.16 137.09 284.32 145.26 284.32C153.44 284.32 159.19 289.16 159.19 296.12L159.19 296.24C159.19 303.27 153.50 308.17 145.26 308.17ZM145.26 348.19C135.70 348.19 128.98 342.62 128.98 334.93L128.98 334.81C128.98 327.06 135.64 321.43 145.26 321.43C154.89 321.43 161.49 327.06 161.49 334.81L161.49 334.93C161.49 342.62 154.77 348.19 145.26 348.19ZM210.84 317.62C223.37 317.62 231.06 308.84 231.06 294.73L231.06 294.67C231.06 280.62 223.37 271.84 210.84 271.84C198.24 271.84 190.55 280.62 190.55 294.67L190.55 294.73C190.55 308.84 198.24 317.62 210.84 317.62ZM219.86 360L275.02 272.63L261.57 272.63L206.36 360ZM210.84 307.57C205.93 307.57 203.21 303.03 203.21 294.73L203.21 294.67C203.21 286.44 205.93 281.89 210.84 281.89C215.68 281.89 218.34 286.44 218.34 294.67L218.34 294.73C218.34 303.03 215.68 307.57 210.84 307.57ZM270.60 360.79C283.13 360.79 290.82 352.01 290.82 337.90L290.82 337.84C290.82 323.79 283.13 315.01 270.60 315.01C258.00 315.01 250.31 323.79 250.31 337.84L250.31 337.90C250.31 352.01 258.00 360.79 270.60 360.79ZM270.60 350.74C265.69 350.74 262.97 346.20 262.97 337.90L262.97 337.84C262.97 329.61 265.69 325.06 270.60 325.06C275.44 325.06 278.10 329.61 278.10 337.84L278.10 337.90C278.10 346.20 275.44 350.74 270.60 350.74Z" fill="white" opacity="0.5"/>
</svg>
