
<svg xmlns="http://www.w3.org/2000/svg" viewBox="0 0 1080 1350" width="1080" height="1350">
  <rect width="1080" height="1350" fill="#001AFF"/>
  
  <!-- Background circle with opacity -->
  <circle opacity="0.12" cx="750.5" cy="1000.5" r="186.692" 
    fill="none"
    stroke="#FFFFFF" 
    stroke-width="85.6166"/>
  
  <!-- Progress arc -->
  <path d="M750.5 813.808 A186.692 186.692 0 0 1 919.4239720789861 921.0104124991334" 
    fill="none"
    stroke="#5DE168" 
    stroke-width="85.6166" 
    stroke-linecap="round" 
    stroke-linejoin="round"/>
  
  <path d="M111.18 220L174.69 220L174.69 205.47L135.09 205.47L135.09 204.74L153.38 188.03C168.45 174.17 173.48 167.26 173.48 156.67L173.48 156.55C173.48 141.65 160.76 131.12 142.30 131.12C123.83 131.12 110.15 142.68 110.15 159.15L110.15 159.63L127.10 159.63L127.16 159.09C127.40 151.22 133.46 145.35 142.42 145.35C150.17 145.35 155.62 150.43 155.68 157.58L155.68 157.70C155.68 163.75 153.32 168.05 142.05 178.59L111.18 207.47ZM220.46 221.51C242.62 221.51 256.06 204.14 256.06 176.35L256.06 176.22C256.06 148.43 242.62 131.12 220.46 131.12C198.30 131.12 184.86 148.43 184.86 176.22L184.86 176.35C184.86 204.14 198.30 221.51 220.46 221.51ZM220.46 206.86C209.56 206.86 203.33 195.54 203.33 176.35L203.33 176.22C203.33 157.03 209.56 145.77 220.46 145.77C231.36 145.77 237.60 157.03 237.60 176.22L237.60 176.35C237.60 195.54 231.36 206.86 220.46 206.86ZM267.27 220L330.78 220L330.78 205.47L291.18 205.47L291.18 204.74L309.47 188.03C324.54 174.17 329.57 167.26 329.57 156.67L329.57 156.55C329.57 141.65 316.85 131.12 298.39 131.12C279.92 131.12 266.24 142.68 266.24 159.15L266.24 159.63L283.19 159.63L283.25 159.09C283.49 151.22 289.55 145.35 298.51 145.35C306.26 145.35 311.71 150.43 311.77 157.58L311.77 157.70C311.77 163.75 309.41 168.05 298.14 178.59L267.27 207.47ZM377.28 221.51C396.71 221.51 410.94 208.80 410.94 190.94L410.94 190.82C410.94 174.47 399.38 162.48 382.49 162.48C370.68 162.48 362.08 168.41 358.63 176.53L358.27 176.53C358.27 175.62 358.33 174.41 358.39 173.20C359.05 157.76 364.63 145.59 377.40 145.59C384.54 145.59 389.39 149.16 391.57 154.43L391.75 154.97L409.79 154.97L409.67 154.37C407.07 140.87 394.35 131.12 377.46 131.12C354.70 131.12 340.83 148.31 340.83 176.95L340.83 177.07C340.83 206.68 356.21 221.51 377.28 221.51ZM361.05 191.36L361.05 191.24C361.05 182.34 368.08 175.98 377.22 175.98C386.30 175.98 393.14 182.40 393.14 191.48L393.14 191.60C393.14 200.20 385.94 206.98 377.04 206.98C368.08 206.98 361.05 200.14 361.05 191.36Z" fill="#5DE168"/>
    <path d="M133.03 360L151.14 360L151.14 272.63L132.97 272.63L110.39 288.31L110.39 304.54L132.67 289.40L133.03 289.40ZM204.78 361.51C225.61 361.51 239.96 351.16 239.96 336.14L239.96 336.02C239.96 324.70 231.54 316.35 219.86 314.04L219.86 313.68C229.91 311.20 236.81 303.87 236.81 294.55L236.81 294.43C236.81 280.93 223.61 271.12 204.78 271.12C185.89 271.12 172.75 280.93 172.75 294.43L172.75 294.55C172.75 303.87 179.59 311.20 189.71 313.68L189.71 314.04C177.96 316.35 169.54 324.70 169.54 336.02L169.54 336.14C169.54 351.16 183.95 361.51 204.78 361.51ZM204.78 308.17C196.55 308.17 190.79 303.27 190.79 296.24L190.79 296.12C190.79 289.16 196.61 284.32 204.78 284.32C212.96 284.32 218.71 289.16 218.71 296.12L218.71 296.24C218.71 303.27 213.02 308.17 204.78 308.17ZM204.78 348.19C195.21 348.19 188.49 342.62 188.49 334.93L188.49 334.81C188.49 327.06 195.15 321.43 204.78 321.43C214.41 321.43 221.01 327.06 221.01 334.81L221.01 334.93C221.01 342.62 214.29 348.19 204.78 348.19ZM270.35 317.62C282.89 317.62 290.58 308.84 290.58 294.73L290.58 294.67C290.58 280.62 282.89 271.84 270.35 271.84C257.76 271.84 250.07 280.62 250.07 294.67L250.07 294.73C250.07 308.84 257.76 317.62 270.35 317.62ZM279.38 360L334.53 272.63L321.09 272.63L265.87 360ZM270.35 307.57C265.45 307.57 262.72 303.03 262.72 294.73L262.72 294.67C262.72 286.44 265.45 281.89 270.35 281.89C275.20 281.89 277.86 286.44 277.86 294.67L277.86 294.73C277.86 303.03 275.20 307.57 270.35 307.57ZM330.11 360.79C342.65 360.79 350.34 352.01 350.34 337.90L350.34 337.84C350.34 323.79 342.65 315.01 330.11 315.01C317.52 315.01 309.83 323.79 309.83 337.84L309.83 337.90C309.83 352.01 317.52 360.79 330.11 360.79ZM330.11 350.74C325.21 350.74 322.48 346.20 322.48 337.90L322.48 337.84C322.48 329.61 325.21 325.06 330.11 325.06C334.96 325.06 337.62 329.61 337.62 337.84L337.62 337.90C337.62 346.20 334.96 350.74 330.11 350.74Z" fill="#5DE168" opacity="0.5"/>
</svg>
