
<svg xmlns="http://www.w3.org/2000/svg" viewBox="0 0 1080 1350" width="1080" height="1350">
  <rect width="1080" height="1350" fill="#32893F"/>
  
  <!-- Background circle with opacity -->
  <circle opacity="0.12" cx="750.5" cy="1000.5" r="186.692" 
    fill="none"
    stroke="white" 
    stroke-width="85.6166"/>
  
  <!-- Progress arc -->
  <path d="M750.5 813.808 A186.692 186.692 0 0 1 922.6044754963604 1072.846059865916" 
    fill="none"
    stroke="#EABB8F" 
    stroke-width="85.6166" 
    stroke-linecap="round" 
    stroke-linejoin="round"/>
  
  <path d="M111.18 220L174.69 220L174.69 205.47L135.09 205.47L135.09 204.74L153.38 188.03C168.45 174.17 173.48 167.26 173.48 156.67L173.48 156.55C173.48 141.65 160.76 131.12 142.30 131.12C123.83 131.12 110.15 142.68 110.15 159.15L110.15 159.63L127.10 159.63L127.16 159.09C127.40 151.22 133.46 145.35 142.42 145.35C150.17 145.35 155.62 150.43 155.68 157.58L155.68 157.70C155.68 163.75 153.32 168.05 142.05 178.59L111.18 207.47ZM220.46 221.51C242.62 221.51 256.06 204.14 256.06 176.35L256.06 176.22C256.06 148.43 242.62 131.12 220.46 131.12C198.30 131.12 184.86 148.43 184.86 176.22L184.86 176.35C184.86 204.14 198.30 221.51 220.46 221.51ZM220.46 206.86C209.56 206.86 203.33 195.54 203.33 176.35L203.33 176.22C203.33 157.03 209.56 145.77 220.46 145.77C231.36 145.77 237.60 157.03 237.60 176.22L237.60 176.35C237.60 195.54 231.36 206.86 220.46 206.86ZM267.27 220L330.78 220L330.78 205.47L291.18 205.47L291.18 204.74L309.47 188.03C324.54 174.17 329.57 167.26 329.57 156.67L329.57 156.55C329.57 141.65 316.85 131.12 298.39 131.12C279.92 131.12 266.24 142.68 266.24 159.15L266.24 159.63L283.19 159.63L283.25 159.09C283.49 151.22 289.55 145.35 298.51 145.35C306.26 145.35 311.71 150.43 311.77 157.58L311.77 157.70C311.77 163.75 309.41 168.05 298.14 178.59L267.27 207.47ZM375.58 221.51C395.56 221.51 409.37 209.10 409.37 190.82L409.37 190.70C409.37 174.23 397.38 162.30 380.79 162.30C371.95 162.30 364.75 165.87 361.11 171.74L360.75 171.74L362.87 147.16L404.10 147.16L404.10 132.63L348.34 132.63L344.34 183.91L360.27 183.91C361.29 182.10 362.69 180.40 364.44 179.07C367.41 176.71 371.22 175.38 375.71 175.38C385.15 175.38 391.87 181.86 391.93 191.06L391.93 191.18C391.93 200.50 385.21 207.04 375.64 207.04C367.23 207.04 361.11 201.96 359.84 195.36L359.72 194.93L342.83 194.93L342.89 195.84C343.98 210.43 356.57 221.51 375.58 221.51Z" fill="white"/>
    <path d="M152.83 360L170.21 360L170.21 343.96L181.71 343.96L181.71 329.36L170.21 329.36L170.21 272.63L144.42 272.63L109.36 328.70L109.36 343.96L152.83 343.96ZM125.28 329.85L125.28 329.36L152.77 285.83L153.20 285.83L153.20 329.85ZM196.00 360L215.20 360L251.64 287.34L251.64 272.63L189.16 272.63L189.16 287.16L233.60 287.16L233.60 287.53ZM281.62 317.62C294.15 317.62 301.84 308.84 301.84 294.73L301.84 294.67C301.84 280.62 294.15 271.84 281.62 271.84C269.02 271.84 261.33 280.62 261.33 294.67L261.33 294.73C261.33 308.84 269.02 317.62 281.62 317.62ZM290.64 360L345.79 272.63L332.35 272.63L277.13 360ZM281.62 307.57C276.71 307.57 273.99 303.03 273.99 294.73L273.99 294.67C273.99 286.44 276.71 281.89 281.62 281.89C286.46 281.89 289.12 286.44 289.12 294.67L289.12 294.73C289.12 303.03 286.46 307.57 281.62 307.57ZM341.38 360.79C353.91 360.79 361.60 352.01 361.60 337.90L361.60 337.84C361.60 323.79 353.91 315.01 341.38 315.01C328.78 315.01 321.09 323.79 321.09 337.84L321.09 337.90C321.09 352.01 328.78 360.79 341.38 360.79ZM341.38 350.74C336.47 350.74 333.75 346.20 333.75 337.90L333.75 337.84C333.75 329.61 336.47 325.06 341.38 325.06C346.22 325.06 348.88 329.61 348.88 337.84L348.88 337.90C348.88 346.20 346.22 350.74 341.38 350.74Z" fill="white" opacity="0.5"/>
</svg>
