
<svg xmlns="http://www.w3.org/2000/svg" viewBox="0 0 1080 1350" width="1080" height="1350">
  <rect width="1080" height="1350" fill="#FFDAB9"/>
  
  <!-- Background circle with opacity -->
  <circle opacity="0.12" cx="750.5" cy="1000.5" r="186.692" 
    fill="none"
    stroke="#000000" 
    stroke-width="85.6166"/>
  
  <!-- Progress arc -->
  <path d="M750.5 813.808 A186.692 186.692 0 0 1 883.8863335060073 1131.1215483671212" 
    fill="none"
    stroke="#FF7F50" 
    stroke-width="85.6166" 
    stroke-linecap="round" 
    stroke-linejoin="round"/>
  
  <path d="M111.18 220L174.69 220L174.69 205.47L135.09 205.47L135.09 204.74L153.38 188.03C168.45 174.17 173.48 167.26 173.48 156.67L173.48 156.55C173.48 141.65 160.76 131.12 142.30 131.12C123.83 131.12 110.15 142.68 110.15 159.15L110.15 159.63L127.10 159.63L127.16 159.09C127.40 151.22 133.46 145.35 142.42 145.35C150.17 145.35 155.62 150.43 155.68 157.58L155.68 157.70C155.68 163.75 153.32 168.05 142.05 178.59L111.18 207.47ZM220.46 221.51C242.62 221.51 256.06 204.14 256.06 176.35L256.06 176.22C256.06 148.43 242.62 131.12 220.46 131.12C198.30 131.12 184.86 148.43 184.86 176.22L184.86 176.35C184.86 204.14 198.30 221.51 220.46 221.51ZM220.46 206.86C209.56 206.86 203.33 195.54 203.33 176.35L203.33 176.22C203.33 157.03 209.56 145.77 220.46 145.77C231.36 145.77 237.60 157.03 237.60 176.22L237.60 176.35C237.60 195.54 231.36 206.86 220.46 206.86ZM267.27 220L330.78 220L330.78 205.47L291.18 205.47L291.18 204.74L309.47 188.03C324.54 174.17 329.57 167.26 329.57 156.67L329.57 156.55C329.57 141.65 316.85 131.12 298.39 131.12C279.92 131.12 266.24 142.68 266.24 159.15L266.24 159.63L283.19 159.63L283.25 159.09C283.49 151.22 289.55 145.35 298.51 145.35C306.26 145.35 311.71 150.43 311.77 157.58L311.77 157.70C311.77 163.75 309.41 168.05 298.14 178.59L267.27 207.47ZM375.58 221.51C395.56 221.51 409.37 209.10 409.37 190.82L409.37 190.70C409.37 174.23 397.38 162.30 380.79 162.30C371.95 162.30 364.75 165.87 361.11 171.74L360.75 171.74L362.87 147.16L404.10 147.16L404.10 132.63L348.34 132.63L344.34 183.91L360.27 183.91C361.29 182.10 362.69 180.40 364.44 179.07C367.41 176.71 371.22 175.38 375.71 175.38C385.15 175.38 391.87 181.86 391.93 191.06L391.93 191.18C391.93 200.50 385.21 207.04 375.64 207.04C367.23 207.04 361.11 201.96 359.84 195.36L359.72 194.93L342.83 194.93L342.89 195.84C343.98 210.43 356.57 221.51 375.58 221.51Z" fill="#99654C"/>
    <path d="M144.72 361.51C164.70 361.51 178.50 349.10 178.50 330.82L178.50 330.70C178.50 314.23 166.52 302.30 149.93 302.30C141.09 302.30 133.88 305.87 130.25 311.74L129.88 311.74L132.00 287.16L173.24 287.16L173.24 272.63L117.47 272.63L113.48 323.91L129.40 323.91C130.43 322.10 131.82 320.40 133.58 319.07C136.54 316.71 140.36 315.38 144.84 315.38C154.29 315.38 161.01 321.86 161.07 331.06L161.07 331.18C161.07 340.50 154.35 347.04 144.78 347.04C136.36 347.04 130.25 341.96 128.98 335.36L128.86 334.93L111.96 334.93L112.02 335.84C113.11 350.43 125.71 361.51 144.72 361.51ZM223.91 361.51C243.35 361.51 257.58 348.80 257.58 330.94L257.58 330.82C257.58 314.47 246.01 302.48 229.12 302.48C217.31 302.48 208.72 308.41 205.27 316.53L204.90 316.53C204.90 315.62 204.96 314.41 205.02 313.20C205.69 297.76 211.26 285.59 224.04 285.59C231.18 285.59 236.02 289.16 238.20 294.43L238.38 294.97L256.43 294.97L256.31 294.37C253.70 280.87 240.99 271.12 224.10 271.12C201.33 271.12 187.46 288.31 187.46 316.95L187.46 317.07C187.46 346.68 202.84 361.51 223.91 361.51ZM207.69 331.36L207.69 331.24C207.69 322.34 214.71 315.98 223.85 315.98C232.94 315.98 239.78 322.40 239.78 331.48L239.78 331.60C239.78 340.20 232.57 346.98 223.67 346.98C214.71 346.98 207.69 340.14 207.69 331.36ZM288.76 317.62C301.29 317.62 308.98 308.84 308.98 294.73L308.98 294.67C308.98 280.62 301.29 271.84 288.76 271.84C276.17 271.84 268.48 280.62 268.48 294.67L268.48 294.73C268.48 308.84 276.17 317.62 288.76 317.62ZM297.78 360L352.94 272.63L339.50 272.63L284.28 360ZM288.76 307.57C283.86 307.57 281.13 303.03 281.13 294.73L281.13 294.67C281.13 286.44 283.86 281.89 288.76 281.89C293.60 281.89 296.27 286.44 296.27 294.67L296.27 294.73C296.27 303.03 293.60 307.57 288.76 307.57ZM348.52 360.79C361.05 360.79 368.74 352.01 368.74 337.90L368.74 337.84C368.74 323.79 361.05 315.01 348.52 315.01C335.93 315.01 328.24 323.79 328.24 337.84L328.24 337.90C328.24 352.01 335.93 360.79 348.52 360.79ZM348.52 350.74C343.62 350.74 340.89 346.20 340.89 337.90L340.89 337.84C340.89 329.61 343.62 325.06 348.52 325.06C353.36 325.06 356.03 329.61 356.03 337.84L356.03 337.90C356.03 346.20 353.36 350.74 348.52 350.74Z" fill="#99654C" opacity="0.5"/>
</svg>
