
<svg xmlns="http://www.w3.org/2000/svg" viewBox="0 0 1080 1350" width="1080" height="1350">
  <rect width="1080" height="1350" fill="#5C4033"/>
  
  <!-- Background circle with opacity -->
  <circle opacity="0.12" cx="750.5" cy="1000.5" r="186.692" 
    fill="none"
    stroke="#FFFFFF" 
    stroke-width="85.6166"/>
  
  <!-- Progress arc -->
  <path d="M750.5 813.808 A186.692 186.692 0 0 1 928.0546431401748 1058.1910007138476" 
    fill="none"
    stroke="#F5FFFA" 
    stroke-width="85.6166" 
    stroke-linecap="round" 
    stroke-linejoin="round"/>
  
  <path d="M111.18 220L174.69 220L174.69 205.47L135.09 205.47L135.09 204.74L153.38 188.03C168.45 174.17 173.48 167.26 173.48 156.67L173.48 156.55C173.48 141.65 160.76 131.12 142.30 131.12C123.83 131.12 110.15 142.68 110.15 159.15L110.15 159.63L127.10 159.63L127.16 159.09C127.40 151.22 133.46 145.35 142.42 145.35C150.17 145.35 155.62 150.43 155.68 157.58L155.68 157.70C155.68 163.75 153.32 168.05 142.05 178.59L111.18 207.47ZM220.46 221.51C242.62 221.51 256.06 204.14 256.06 176.35L256.06 176.22C256.06 148.43 242.62 131.12 220.46 131.12C198.30 131.12 184.86 148.43 184.86 176.22L184.86 176.35C184.86 204.14 198.30 221.51 220.46 221.51ZM220.46 206.86C209.56 206.86 203.33 195.54 203.33 176.35L203.33 176.22C203.33 157.03 209.56 145.77 220.46 145.77C231.36 145.77 237.60 157.03 237.60 176.22L237.60 176.35C237.60 195.54 231.36 206.86 220.46 206.86ZM267.27 220L330.78 220L330.78 205.47L291.18 205.47L291.18 204.74L309.47 188.03C324.54 174.17 329.57 167.26 329.57 156.67L329.57 156.55C329.57 141.65 316.85 131.12 298.39 131.12C279.92 131.12 266.24 142.68 266.24 159.15L266.24 159.63L283.19 159.63L283.25 159.09C283.49 151.22 289.55 145.35 298.51 145.35C306.26 145.35 311.71 150.43 311.77 157.58L311.77 157.70C311.77 163.75 309.41 168.05 298.14 178.59L267.27 207.47ZM375.58 221.51C395.56 221.51 409.37 209.10 409.37 190.82L409.37 190.70C409.37 174.23 397.38 162.30 380.79 162.30C371.95 162.30 364.75 165.87 361.11 171.74L360.75 171.74L362.87 147.16L404.10 147.16L404.10 132.63L348.34 132.63L344.34 183.91L360.27 183.91C361.29 182.10 362.69 180.40 364.44 179.07C367.41 176.71 371.22 175.38 375.71 175.38C385.15 175.38 391.87 181.86 391.93 191.06L391.93 191.18C391.93 200.50 385.21 207.04 375.64 207.04C367.23 207.04 361.11 201.96 359.84 195.36L359.72 194.93L342.83 194.93L342.89 195.84C343.98 210.43 356.57 221.51 375.58 221.51Z" fill="#F5FFFA"/>
    <path d="M152.83 360L170.21 360L170.21 343.96L181.71 343.96L181.71 329.36L170.21 329.36L170.21 272.63L144.42 272.63L109.36 328.70L109.36 343.96L152.83 343.96ZM125.28 329.85L125.28 329.36L152.77 285.83L153.20 285.83L153.20 329.85ZM225.00 361.51C244.98 361.51 258.79 349.10 258.79 330.82L258.79 330.70C258.79 314.23 246.80 302.30 230.21 302.30C221.37 302.30 214.17 305.87 210.53 311.74L210.17 311.74L212.29 287.16L253.52 287.16L253.52 272.63L197.76 272.63L193.76 323.91L209.69 323.91C210.71 322.10 212.11 320.40 213.86 319.07C216.83 316.71 220.64 315.38 225.13 315.38C234.57 315.38 241.29 321.86 241.35 331.06L241.35 331.18C241.35 340.50 234.63 347.04 225.06 347.04C216.65 347.04 210.53 341.96 209.26 335.36L209.14 334.93L192.25 334.93L192.31 335.84C193.40 350.43 205.99 361.51 225.00 361.51ZM288.15 317.62C300.69 317.62 308.38 308.84 308.38 294.73L308.38 294.67C308.38 280.62 300.69 271.84 288.15 271.84C275.56 271.84 267.87 280.62 267.87 294.67L267.87 294.73C267.87 308.84 275.56 317.62 288.15 317.62ZM297.18 360L352.33 272.63L338.89 272.63L283.67 360ZM288.15 307.57C283.25 307.57 280.53 303.03 280.53 294.73L280.53 294.67C280.53 286.44 283.25 281.89 288.15 281.89C293.00 281.89 295.66 286.44 295.66 294.67L295.66 294.73C295.66 303.03 293.00 307.57 288.15 307.57ZM347.91 360.79C360.45 360.79 368.14 352.01 368.14 337.90L368.14 337.84C368.14 323.79 360.45 315.01 347.91 315.01C335.32 315.01 327.63 323.79 327.63 337.84L327.63 337.90C327.63 352.01 335.32 360.79 347.91 360.79ZM347.91 350.74C343.01 350.74 340.29 346.20 340.29 337.90L340.29 337.84C340.29 329.61 343.01 325.06 347.91 325.06C352.76 325.06 355.42 329.61 355.42 337.84L355.42 337.90C355.42 346.20 352.76 350.74 347.91 350.74Z" fill="#F5FFFA" opacity="0.5"/>
</svg>
