
<svg xmlns="http://www.w3.org/2000/svg" viewBox="0 0 1080 1350" width="1080" height="1350">
  <rect width="1080" height="1350" fill="#FF2400"/>
  
  <!-- Background circle with opacity -->
  <circle opacity="0.12" cx="750.5" cy="1000.5" r="186.692" 
    fill="none"
    stroke="#00dbff" 
    stroke-width="85.6166"/>
  
  <!-- Progress arc -->
  <path d="M750.5 813.808 A186.692 186.692 0 0 1 766.1219839273966 1186.5372448790085" 
    fill="none"
    stroke="#F0F0F0" 
    stroke-width="85.6166" 
    stroke-linecap="round" 
    stroke-linejoin="round"/>
  
  <path d="M111.18 220L174.69 220L174.69 205.47L135.09 205.47L135.09 204.74L153.38 188.03C168.45 174.17 173.48 167.26 173.48 156.67L173.48 156.55C173.48 141.65 160.76 131.12 142.30 131.12C123.83 131.12 110.15 142.68 110.15 159.15L110.15 159.63L127.10 159.63L127.16 159.09C127.40 151.22 133.46 145.35 142.42 145.35C150.17 145.35 155.62 150.43 155.68 157.58L155.68 157.70C155.68 163.75 153.32 168.05 142.05 178.59L111.18 207.47ZM220.46 221.51C242.62 221.51 256.06 204.14 256.06 176.35L256.06 176.22C256.06 148.43 242.62 131.12 220.46 131.12C198.30 131.12 184.86 148.43 184.86 176.22L184.86 176.35C184.86 204.14 198.30 221.51 220.46 221.51ZM220.46 206.86C209.56 206.86 203.33 195.54 203.33 176.35L203.33 176.22C203.33 157.03 209.56 145.77 220.46 145.77C231.36 145.77 237.60 157.03 237.60 176.22L237.60 176.35C237.60 195.54 231.36 206.86 220.46 206.86ZM267.27 220L330.78 220L330.78 205.47L291.18 205.47L291.18 204.74L309.47 188.03C324.54 174.17 329.57 167.26 329.57 156.67L329.57 156.55C329.57 141.65 316.85 131.12 298.39 131.12C279.92 131.12 266.24 142.68 266.24 159.15L266.24 159.63L283.19 159.63L283.25 159.09C283.49 151.22 289.55 145.35 298.51 145.35C306.26 145.35 311.71 150.43 311.77 157.58L311.77 157.70C311.77 163.75 309.41 168.05 298.14 178.59L267.27 207.47ZM375.58 221.51C395.56 221.51 409.37 209.10 409.37 190.82L409.37 190.70C409.37 174.23 397.38 162.30 380.79 162.30C371.95 162.30 364.75 165.87 361.11 171.74L360.75 171.74L362.87 147.16L404.10 147.16L404.10 132.63L348.34 132.63L344.34 183.91L360.27 183.91C361.29 182.10 362.69 180.40 364.44 179.07C367.41 176.71 371.22 175.38 375.71 175.38C385.15 175.38 391.87 181.86 391.93 191.06L391.93 191.18C391.93 200.50 385.21 207.04 375.64 207.04C367.23 207.04 361.11 201.96 359.84 195.36L359.72 194.93L342.83 194.93L342.89 195.84C343.98 210.43 356.57 221.51 375.58 221.51Z" fill="#FFFFFF"/>
    <path d="M115.72 360L134.91 360L171.36 287.34L171.36 272.63L108.88 272.63L108.88 287.16L153.32 287.16L153.32 287.53ZM214.65 361.51C235.05 361.51 248.62 350.98 248.62 335.36L248.62 335.24C248.62 323.37 240.14 315.86 227.18 314.65L227.18 314.29C237.42 312.17 245.41 305.08 245.41 294.19L245.41 294.06C245.41 280.32 233.30 271.12 214.47 271.12C196.12 271.12 183.83 281.05 182.62 296.18L182.56 296.91L199.33 296.91L199.39 296.37C200.12 289.58 205.93 285.16 214.47 285.16C223.07 285.16 228.09 289.40 228.09 296.49L228.09 296.61C228.09 303.69 222.16 308.54 213.02 308.54L203.27 308.54L203.27 321.55L213.26 321.55C223.79 321.55 230.03 326.15 230.03 334.51L230.03 334.63C230.03 341.78 223.97 346.80 214.59 346.80C205.14 346.80 198.97 342.14 198.18 335.90L198.06 335.24L180.62 335.24L180.68 336.02C181.89 351.10 194.85 361.51 214.65 361.51ZM279.44 317.62C291.97 317.62 299.66 308.84 299.66 294.73L299.66 294.67C299.66 280.62 291.97 271.84 279.44 271.84C266.84 271.84 259.15 280.62 259.15 294.67L259.15 294.73C259.15 308.84 266.84 317.62 279.44 317.62ZM288.46 360L343.62 272.63L330.17 272.63L274.96 360ZM279.44 307.57C274.53 307.57 271.81 303.03 271.81 294.73L271.81 294.67C271.81 286.44 274.53 281.89 279.44 281.89C284.28 281.89 286.94 286.44 286.94 294.67L286.94 294.73C286.94 303.03 284.28 307.57 279.44 307.57ZM339.20 360.79C351.73 360.79 359.42 352.01 359.42 337.90L359.42 337.84C359.42 323.79 351.73 315.01 339.20 315.01C326.60 315.01 318.91 323.79 318.91 337.84L318.91 337.90C318.91 352.01 326.60 360.79 339.20 360.79ZM339.20 350.74C334.29 350.74 331.57 346.20 331.57 337.90L331.57 337.84C331.57 329.61 334.29 325.06 339.20 325.06C344.04 325.06 346.70 329.61 346.70 337.84L346.70 337.90C346.70 346.20 344.04 350.74 339.20 350.74Z" fill="#FFFFFF" opacity="0.5"/>
</svg>
