
<svg xmlns="http://www.w3.org/2000/svg" viewBox="0 0 1080 1350" width="1080" height="1350">
  <rect width="1080" height="1350" fill="#2C3539"/>
  
  <!-- Background circle with opacity -->
  <circle opacity="0.12" cx="750.5" cy="1000.5" r="186.692" 
    fill="none"
    stroke="#FFFFFF" 
    stroke-width="85.6166"/>
  
  <!-- Progress arc -->
  <path d="M750.5 813.808 A186.692 186.692 0 0 1 869.5019594941624 856.6513416797023" 
    fill="none"
    stroke="#FFBF00" 
    stroke-width="85.6166" 
    stroke-linecap="round" 
    stroke-linejoin="round"/>
  
  <path d="M111.18 220L174.69 220L174.69 205.47L135.09 205.47L135.09 204.74L153.38 188.03C168.45 174.17 173.48 167.26 173.48 156.67L173.48 156.55C173.48 141.65 160.76 131.12 142.30 131.12C123.83 131.12 110.15 142.68 110.15 159.15L110.15 159.63L127.10 159.63L127.16 159.09C127.40 151.22 133.46 145.35 142.42 145.35C150.17 145.35 155.62 150.43 155.68 157.58L155.68 157.70C155.68 163.75 153.32 168.05 142.05 178.59L111.18 207.47ZM220.46 221.51C242.62 221.51 256.06 204.14 256.06 176.35L256.06 176.22C256.06 148.43 242.62 131.12 220.46 131.12C198.30 131.12 184.86 148.43 184.86 176.22L184.86 176.35C184.86 204.14 198.30 221.51 220.46 221.51ZM220.46 206.86C209.56 206.86 203.33 195.54 203.33 176.35L203.33 176.22C203.33 157.03 209.56 145.77 220.46 145.77C231.36 145.77 237.60 157.03 237.60 176.22L237.60 176.35C237.60 195.54 231.36 206.86 220.46 206.86ZM267.27 220L330.78 220L330.78 205.47L291.18 205.47L291.18 204.74L309.47 188.03C324.54 174.17 329.57 167.26 329.57 156.67L329.57 156.55C329.57 141.65 316.85 131.12 298.39 131.12C279.92 131.12 266.24 142.68 266.24 159.15L266.24 159.63L283.19 159.63L283.25 159.09C283.49 151.22 289.55 145.35 298.51 145.35C306.26 145.35 311.71 150.43 311.77 157.58L311.77 157.70C311.77 163.75 309.41 168.05 298.14 178.59L267.27 207.47ZM377.28 221.51C396.71 221.51 410.94 208.80 410.94 190.94L410.94 190.82C410.94 174.47 399.38 162.48 382.49 162.48C370.68 162.48 362.08 168.41 358.63 176.53L358.27 176.53C358.27 175.62 358.33 174.41 358.39 173.20C359.05 157.76 364.63 145.59 377.40 145.59C384.54 145.59 389.39 149.16 391.57 154.43L391.75 154.97L409.79 154.97L409.67 154.37C407.07 140.87 394.35 131.12 377.46 131.12C354.70 131.12 340.83 148.31 340.83 176.95L340.83 177.07C340.83 206.68 356.21 221.51 377.28 221.51ZM361.05 191.36L361.05 191.24C361.05 182.34 368.08 175.98 377.22 175.98C386.30 175.98 393.14 182.40 393.14 191.48L393.14 191.60C393.14 200.20 385.94 206.98 377.04 206.98C368.08 206.98 361.05 200.14 361.05 191.36Z" fill="#FFBF00"/>
    <path d="M133.03 360L151.14 360L151.14 272.63L132.97 272.63L110.39 288.31L110.39 304.54L132.67 289.40L133.03 289.40ZM192.55 360L210.65 360L210.65 272.63L192.49 272.63L169.91 288.31L169.91 304.54L192.19 289.40L192.55 289.40ZM249.40 317.62C261.94 317.62 269.63 308.84 269.63 294.73L269.63 294.67C269.63 280.62 261.94 271.84 249.40 271.84C236.81 271.84 229.12 280.62 229.12 294.67L229.12 294.73C229.12 308.84 236.81 317.62 249.40 317.62ZM258.43 360L313.58 272.63L300.14 272.63L244.92 360ZM249.40 307.57C244.50 307.57 241.78 303.03 241.78 294.73L241.78 294.67C241.78 286.44 244.50 281.89 249.40 281.89C254.25 281.89 256.91 286.44 256.91 294.67L256.91 294.73C256.91 303.03 254.25 307.57 249.40 307.57ZM309.16 360.79C321.70 360.79 329.39 352.01 329.39 337.90L329.39 337.84C329.39 323.79 321.70 315.01 309.16 315.01C296.57 315.01 288.88 323.79 288.88 337.84L288.88 337.90C288.88 352.01 296.57 360.79 309.16 360.79ZM309.16 350.74C304.26 350.74 301.54 346.20 301.54 337.90L301.54 337.84C301.54 329.61 304.26 325.06 309.16 325.06C314.01 325.06 316.67 329.61 316.67 337.84L316.67 337.90C316.67 346.20 314.01 350.74 309.16 350.74Z" fill="#FFBF00" opacity="0.5"/>
</svg>
