
<svg xmlns="http://www.w3.org/2000/svg" viewBox="0 0 1080 1350" width="1080" height="1350">
  <rect width="1080" height="1350" fill="#FFFDD0"/>
  
  <!-- Background circle with opacity -->
  <circle opacity="0.12" cx="750.5" cy="1000.5" r="186.692" 
    fill="none"
    stroke="#000000" 
    stroke-width="85.6166"/>
  
  <!-- Progress arc -->
  <path d="M750.5 813.808 A186.692 186.692 0 0 1 789.3154493821492 1183.1123318761956" 
    fill="none"
    stroke="#800020" 
    stroke-width="85.6166" 
    stroke-linecap="round" 
    stroke-linejoin="round"/>
  
  <path d="M111.18 220L174.69 220L174.69 205.47L135.09 205.47L135.09 204.74L153.38 188.03C168.45 174.17 173.48 167.26 173.48 156.67L173.48 156.55C173.48 141.65 160.76 131.12 142.30 131.12C123.83 131.12 110.15 142.68 110.15 159.15L110.15 159.63L127.10 159.63L127.16 159.09C127.40 151.22 133.46 145.35 142.42 145.35C150.17 145.35 155.62 150.43 155.68 157.58L155.68 157.70C155.68 163.75 153.32 168.05 142.05 178.59L111.18 207.47ZM220.46 221.51C242.62 221.51 256.06 204.14 256.06 176.35L256.06 176.22C256.06 148.43 242.62 131.12 220.46 131.12C198.30 131.12 184.86 148.43 184.86 176.22L184.86 176.35C184.86 204.14 198.30 221.51 220.46 221.51ZM220.46 206.86C209.56 206.86 203.33 195.54 203.33 176.35L203.33 176.22C203.33 157.03 209.56 145.77 220.46 145.77C231.36 145.77 237.60 157.03 237.60 176.22L237.60 176.35C237.60 195.54 231.36 206.86 220.46 206.86ZM267.27 220L330.78 220L330.78 205.47L291.18 205.47L291.18 204.74L309.47 188.03C324.54 174.17 329.57 167.26 329.57 156.67L329.57 156.55C329.57 141.65 316.85 131.12 298.39 131.12C279.92 131.12 266.24 142.68 266.24 159.15L266.24 159.63L283.19 159.63L283.25 159.09C283.49 151.22 289.55 145.35 298.51 145.35C306.26 145.35 311.71 150.43 311.77 157.58L311.77 157.70C311.77 163.75 309.41 168.05 298.14 178.59L267.27 207.47ZM375.58 221.51C395.56 221.51 409.37 209.10 409.37 190.82L409.37 190.70C409.37 174.23 397.38 162.30 380.79 162.30C371.95 162.30 364.75 165.87 361.11 171.74L360.75 171.74L362.87 147.16L404.10 147.16L404.10 132.63L348.34 132.63L344.34 183.91L360.27 183.91C361.29 182.10 362.69 180.40 364.44 179.07C367.41 176.71 371.22 175.38 375.71 175.38C385.15 175.38 391.87 181.86 391.93 191.06L391.93 191.18C391.93 200.50 385.21 207.04 375.64 207.04C367.23 207.04 361.11 201.96 359.84 195.36L359.72 194.93L342.83 194.93L342.89 195.84C343.98 210.43 356.57 221.51 375.58 221.51Z" fill="#000000"/>
    <path d="M115.72 360L134.91 360L171.36 287.34L171.36 272.63L108.88 272.63L108.88 287.16L153.32 287.16L153.32 287.53ZM216.65 361.51C238.81 361.51 252.25 344.14 252.25 316.35L252.25 316.22C252.25 288.43 238.81 271.12 216.65 271.12C194.49 271.12 181.05 288.43 181.05 316.22L181.05 316.35C181.05 344.14 194.49 361.51 216.65 361.51ZM216.65 346.86C205.75 346.86 199.51 335.54 199.51 316.35L199.51 316.22C199.51 297.03 205.75 285.77 216.65 285.77C227.55 285.77 233.78 297.03 233.78 316.22L233.78 316.35C233.78 335.54 227.55 346.86 216.65 346.86ZM282.64 317.62C295.18 317.62 302.87 308.84 302.87 294.73L302.87 294.67C302.87 280.62 295.18 271.84 282.64 271.84C270.05 271.84 262.36 280.62 262.36 294.67L262.36 294.73C262.36 308.84 270.05 317.62 282.64 317.62ZM291.67 360L346.82 272.63L333.38 272.63L278.16 360ZM282.64 307.57C277.74 307.57 275.02 303.03 275.02 294.73L275.02 294.67C275.02 286.44 277.74 281.89 282.64 281.89C287.49 281.89 290.15 286.44 290.15 294.67L290.15 294.73C290.15 303.03 287.49 307.57 282.64 307.57ZM342.40 360.79C354.94 360.79 362.63 352.01 362.63 337.90L362.63 337.84C362.63 323.79 354.94 315.01 342.40 315.01C329.81 315.01 322.12 323.79 322.12 337.84L322.12 337.90C322.12 352.01 329.81 360.79 342.40 360.79ZM342.40 350.74C337.50 350.74 334.78 346.20 334.78 337.90L334.78 337.84C334.78 329.61 337.50 325.06 342.40 325.06C347.25 325.06 349.91 329.61 349.91 337.84L349.91 337.90C349.91 346.20 347.25 350.74 342.40 350.74Z" fill="#000000" opacity="0.5"/>
</svg>
