
<svg xmlns="http://www.w3.org/2000/svg" viewBox="0 0 1080 1350" width="1080" height="1350">
  <rect width="1080" height="1350" fill="#CCCCFF"/>
  
  <!-- Background circle with opacity -->
  <circle opacity="0.12" cx="750.5" cy="1000.5" r="186.692" 
    fill="none"
    stroke="#000000" 
    stroke-width="85.6166"/>
  
  <!-- Progress arc -->
  <path d="M750.5 813.808 A186.692 186.692 0 0 1 925.4830491822202 1065.5756126586043" 
    fill="none"
    stroke="#8787DE" 
    stroke-width="85.6166" 
    stroke-linecap="round" 
    stroke-linejoin="round"/>
  
  <path d="M111.18 220L174.69 220L174.69 205.47L135.09 205.47L135.09 204.74L153.38 188.03C168.45 174.17 173.48 167.26 173.48 156.67L173.48 156.55C173.48 141.65 160.76 131.12 142.30 131.12C123.83 131.12 110.15 142.68 110.15 159.15L110.15 159.63L127.10 159.63L127.16 159.09C127.40 151.22 133.46 145.35 142.42 145.35C150.17 145.35 155.62 150.43 155.68 157.58L155.68 157.70C155.68 163.75 153.32 168.05 142.05 178.59L111.18 207.47ZM220.46 221.51C242.62 221.51 256.06 204.14 256.06 176.35L256.06 176.22C256.06 148.43 242.62 131.12 220.46 131.12C198.30 131.12 184.86 148.43 184.86 176.22L184.86 176.35C184.86 204.14 198.30 221.51 220.46 221.51ZM220.46 206.86C209.56 206.86 203.33 195.54 203.33 176.35L203.33 176.22C203.33 157.03 209.56 145.77 220.46 145.77C231.36 145.77 237.60 157.03 237.60 176.22L237.60 176.35C237.60 195.54 231.36 206.86 220.46 206.86ZM267.27 220L330.78 220L330.78 205.47L291.18 205.47L291.18 204.74L309.47 188.03C324.54 174.17 329.57 167.26 329.57 156.67L329.57 156.55C329.57 141.65 316.85 131.12 298.39 131.12C279.92 131.12 266.24 142.68 266.24 159.15L266.24 159.63L283.19 159.63L283.25 159.09C283.49 151.22 289.55 145.35 298.51 145.35C306.26 145.35 311.71 150.43 311.77 157.58L311.77 157.70C311.77 163.75 309.41 168.05 298.14 178.59L267.27 207.47ZM375.58 221.51C395.56 221.51 409.37 209.10 409.37 190.82L409.37 190.70C409.37 174.23 397.38 162.30 380.79 162.30C371.95 162.30 364.75 165.87 361.11 171.74L360.75 171.74L362.87 147.16L404.10 147.16L404.10 132.63L348.34 132.63L344.34 183.91L360.27 183.91C361.29 182.10 362.69 180.40 364.44 179.07C367.41 176.71 371.22 175.38 375.71 175.38C385.15 175.38 391.87 181.86 391.93 191.06L391.93 191.18C391.93 200.50 385.21 207.04 375.64 207.04C367.23 207.04 361.11 201.96 359.84 195.36L359.72 194.93L342.83 194.93L342.89 195.84C343.98 210.43 356.57 221.51 375.58 221.51Z" fill="#33336D"/>
    <path d="M152.83 360L170.21 360L170.21 343.96L181.71 343.96L181.71 329.36L170.21 329.36L170.21 272.63L144.42 272.63L109.36 328.70L109.36 343.96L152.83 343.96ZM125.28 329.85L125.28 329.36L152.77 285.83L153.20 285.83L153.20 329.85ZM226.70 361.51C246.13 361.51 260.36 348.80 260.36 330.94L260.36 330.82C260.36 314.47 248.80 302.48 231.91 302.48C220.10 302.48 211.50 308.41 208.05 316.53L207.69 316.53C207.69 315.62 207.75 314.41 207.81 313.20C208.47 297.76 214.04 285.59 226.82 285.59C233.96 285.59 238.81 289.16 240.99 294.43L241.17 294.97L259.21 294.97L259.09 294.37C256.49 280.87 243.77 271.12 226.88 271.12C204.12 271.12 190.25 288.31 190.25 316.95L190.25 317.07C190.25 346.68 205.63 361.51 226.70 361.51ZM210.47 331.36L210.47 331.24C210.47 322.34 217.50 315.98 226.64 315.98C235.72 315.98 242.56 322.40 242.56 331.48L242.56 331.60C242.56 340.20 235.36 346.98 226.46 346.98C217.50 346.98 210.47 340.14 210.47 331.36ZM291.54 317.62C304.08 317.62 311.77 308.84 311.77 294.73L311.77 294.67C311.77 280.62 304.08 271.84 291.54 271.84C278.95 271.84 271.26 280.62 271.26 294.67L271.26 294.73C271.26 308.84 278.95 317.62 291.54 317.62ZM300.57 360L355.72 272.63L342.28 272.63L287.06 360ZM291.54 307.57C286.64 307.57 283.92 303.03 283.92 294.73L283.92 294.67C283.92 286.44 286.64 281.89 291.54 281.89C296.39 281.89 299.05 286.44 299.05 294.67L299.05 294.73C299.05 303.03 296.39 307.57 291.54 307.57ZM351.30 360.79C363.84 360.79 371.53 352.01 371.53 337.90L371.53 337.84C371.53 323.79 363.84 315.01 351.30 315.01C338.71 315.01 331.02 323.79 331.02 337.84L331.02 337.90C331.02 352.01 338.71 360.79 351.30 360.79ZM351.30 350.74C346.40 350.74 343.68 346.20 343.68 337.90L343.68 337.84C343.68 329.61 346.40 325.06 351.30 325.06C356.15 325.06 358.81 329.61 358.81 337.84L358.81 337.90C358.81 346.20 356.15 350.74 351.30 350.74Z" fill="#33336D" opacity="0.5"/>
</svg>
